<?xml version="1.0" encoding="UTF-8" standalone="no"?>
<!-- Created with Inkscape (http://www.inkscape.org/) -->

<svg
   version="1.1"
   id="svg2"
   width="583.19501"
   height="249.57397"
   viewBox="0 0 583.19501 249.57397"
   xmlns="http://www.w3.org/2000/svg"
   xmlns:svg="http://www.w3.org/2000/svg">
  <defs
     id="defs6">
    <clipPath
       clipPathUnits="userSpaceOnUse"
       id="clipPath20750">
      <path
         d="m 10124,8751.4 c -129.61,-139.1 -305.14,-237.6 -504.56,-271.7 -35.87,-6.1 -72.5,-10.2 -109.77,-12 -244.58,-12.1 -470.59,73.7 -638.28,222 -167.68,148.4 -277.05,359.4 -288.35,597.9 -6.68,141 21.67,275.8 77.58,396.4 38.63,83.3 90.42,159.8 152.9,226.9 152.87,164.2 369.71,271.7 614.29,283.8 37.28,1.8 74.13,1.4 110.4,-1.2 201.72,-14.4 385.75,-95.1 527.89,-220.9 68.5,-60.6 127.3,-131.7 173.6,-210.9 67.1,-114.5 108.1,-245.9 114.7,-386.9 11.3,-238.4 -77.6,-459.2 -230.4,-623.4 z"
         id="path20748" />
    </clipPath>
    <clipPath
       clipPathUnits="userSpaceOnUse"
       id="clipPath20756">
      <path
         d="m 10124,8751.4 c -129.61,-139.1 -305.14,-237.6 -504.56,-271.7 -35.87,-6.1 -72.5,-10.2 -109.77,-12 -244.58,-12.1 -470.59,73.7 -638.28,222 -167.68,148.4 -277.05,359.4 -288.35,597.9 -6.68,141 21.67,275.8 77.58,396.4 38.63,83.3 90.42,159.8 152.9,226.9 152.87,164.2 369.71,271.7 614.29,283.8 37.28,1.8 74.13,1.4 110.4,-1.2 201.72,-14.4 385.75,-95.1 527.89,-220.9 68.5,-60.6 127.3,-131.7 173.6,-210.9 67.1,-114.5 108.1,-245.9 114.7,-386.9 11.3,-238.4 -77.6,-459.2 -230.4,-623.4"
         id="path20754" />
    </clipPath>
    <clipPath
       clipPathUnits="userSpaceOnUse"
       id="clipPath20850">
      <path
         d="m 11101.2,8638.9 c -84,-90.2 -198,-154 -327.5,-175.7 -22.5,-3.8 -45.6,-6.3 -69,-7.5 -157.9,-7.8 -303.8,47.6 -412,143.4 -108.2,95.7 -178.8,231.9 -186.1,385.8 -3.4,72.1 7.3,141.7 29.9,206.2 25.6,73.2 66.4,139.8 118.9,196.2 98.6,105.9 238.6,175.4 396.5,183.1 23.4,1.2 46.6,0.9 69.4,-0.6 130.9,-8.9 250.4,-61.1 342.5,-142.7 57.6,-50.9 104.5,-113.2 136.9,-183.6 28.5,-62 45.8,-130.2 49.3,-202.3 7.2,-153.9 -50.1,-296.4 -148.8,-402.3 z"
         id="path20848" />
    </clipPath>
    <clipPath
       clipPathUnits="userSpaceOnUse"
       id="clipPath20856">
      <path
         d="m 11101.2,8638.9 c -84,-90.2 -198,-154 -327.5,-175.7 -22.5,-3.8 -45.6,-6.3 -69,-7.5 -157.9,-7.8 -303.8,47.6 -412,143.4 -108.2,95.7 -178.8,231.9 -186.1,385.8 -3.4,72.1 7.3,141.7 29.9,206.2 25.6,73.2 66.4,139.8 118.9,196.2 98.6,105.9 238.6,175.4 396.5,183.1 23.4,1.2 46.6,0.9 69.4,-0.6 130.9,-8.9 250.4,-61.1 342.5,-142.7 57.6,-50.9 104.5,-113.2 136.9,-183.6 28.5,-62 45.8,-130.2 49.3,-202.3 7.2,-153.9 -50.1,-296.4 -148.8,-402.3"
         id="path20854" />
    </clipPath>
    <clipPath
       clipPathUnits="userSpaceOnUse"
       id="clipPath20930">
      <path
         d="m 10687.8,8407 c -101.9,-109.5 -264.1,19.5 -424.5,2.6 -12.3,-1.3 -37.1,-23.6 -49.6,-24.2 -175.6,-8.6 -287.61,-98.9 -408.04,7.6 -120.43,106.6 -213.18,-140.1 -221.29,31.1 -4.39,92.7 12.27,181.6 45.87,262.4 28.52,68.5 69.24,131.2 119.65,185.3 109.79,117.9 265.51,195.2 441.21,203.8 12.5,0.6 24.9,0.9 37.3,0.8 161.2,-1.1 309.2,-61.3 421.1,-160.2 55.3,-49 101.7,-107.4 136.6,-172.8 41.1,-77.1 66.1,-164 70.5,-256.6 8.1,-171.2 -59,38.1 -168.8,-79.8 z"
         id="path20928" />
    </clipPath>
    <clipPath
       clipPathUnits="userSpaceOnUse"
       id="clipPath20936">
      <path
         d="m 10687.8,8407 c -101.9,-109.5 -264.1,19.5 -424.5,2.6 -12.3,-1.3 -37.1,-23.6 -49.6,-24.2 -175.6,-8.6 -287.61,-98.9 -408.04,7.6 -120.43,106.6 -213.18,-140.1 -221.29,31.1 -4.39,92.7 12.27,181.6 45.87,262.4 28.52,68.5 69.24,131.2 119.65,185.3 109.79,117.9 265.51,195.2 441.21,203.8 12.5,0.6 24.9,0.9 37.3,0.8 161.2,-1.1 309.2,-61.3 421.1,-160.2 55.3,-49 101.7,-107.4 136.6,-172.8 41.1,-77.1 66.1,-164 70.5,-256.6 8.1,-171.2 -59,38.1 -168.8,-79.8"
         id="path20934" />
    </clipPath>
    <clipPath
       clipPathUnits="userSpaceOnUse"
       id="clipPath21016">
      <path
         d="M 8699.33,8853.7 C 8589.54,8735.8 8433.8,8658.6 8258.15,8650 c -22.39,-1.2 -44.57,-1.1 -66.48,0 -149.88,7.7 -286.84,66.5 -391.91,159.4 -120.43,106.6 -198.98,258.1 -207.09,429.4 -4,84.3 9.45,165.5 37.24,240.4 28.65,77.1 72.55,147.4 128.28,207.3 95.79,102.8 226.56,174.7 375.02,197.2 21.69,3.2 43.76,5.5 66.16,6.6 175.65,8.6 337.96,-53 458.39,-159.5 61.13,-54.1 111.47,-119.8 147.29,-193.8 34.74,-71.7 55.8,-151.2 59.8,-235.6 8.12,-171.2 -55.73,-329.8 -165.52,-447.7 z"
         id="path21014" />
    </clipPath>
    <clipPath
       clipPathUnits="userSpaceOnUse"
       id="clipPath21022">
      <path
         d="M 8699.33,8853.7 C 8589.54,8735.8 8433.8,8658.6 8258.15,8650 c -22.39,-1.2 -44.57,-1.1 -66.48,0 -149.88,7.7 -286.84,66.5 -391.91,159.4 -120.43,106.6 -198.98,258.1 -207.09,429.4 -4,84.3 9.45,165.5 37.24,240.4 28.65,77.1 72.55,147.4 128.28,207.3 95.79,102.8 226.56,174.7 375.02,197.2 21.69,3.2 43.76,5.5 66.16,6.6 175.65,8.6 337.96,-53 458.39,-159.5 61.13,-54.1 111.47,-119.8 147.29,-193.8 34.74,-71.7 55.8,-151.2 59.8,-235.6 8.12,-171.2 -55.73,-329.8 -165.52,-447.7"
         id="path21020" />
    </clipPath>
    <clipPath
       clipPathUnits="userSpaceOnUse"
       id="clipPath21110">
      <path
         d="m 11506.2,8425 c -84.5,-16.7 -250.3,-9 -335.3,-26.5 -20.6,-4.2 -54.6,-15.8 -76.3,-16.9 -111.2,-5.5 -193.2,-38.6 -269.5,28.8 -76.2,67.4 -119.4,23.3 -124.5,131.7 -2.8,58.6 7.7,114.8 29,165.9 18,43.4 43.8,83.1 75.8,117.4 69.4,74.6 168,123.5 279.2,129 21.7,1.1 43,0.5 63.9,-1.7 86.3,-9.1 164.8,-44.9 226.2,-99.2 35,-31 64.5,-68 86.5,-109.5 26,-48.7 41.8,-103.7 44.6,-162.3 5.1,-108.4 7.7,-142.3 0.4,-156.7 z"
         id="path21108" />
    </clipPath>
    <clipPath
       clipPathUnits="userSpaceOnUse"
       id="clipPath21116">
      <path
         d="m 11506.2,8425 c -84.5,-16.7 -250.3,-9 -335.3,-26.5 -20.6,-4.2 -54.6,-15.8 -76.3,-16.9 -111.2,-5.5 -193.2,-38.6 -269.5,28.8 -76.2,67.4 -119.4,23.3 -124.5,131.7 -2.8,58.6 7.7,114.8 29,165.9 18,43.4 43.8,83.1 75.8,117.4 69.4,74.6 168,123.5 279.2,129 21.7,1.1 43,0.5 63.9,-1.7 86.3,-9.1 164.8,-44.9 226.2,-99.2 35,-31 64.5,-68 86.5,-109.5 26,-48.7 41.8,-103.7 44.6,-162.3 5.1,-108.4 7.7,-142.3 0.4,-156.7"
         id="path21114" />
    </clipPath>
    <clipPath
       clipPathUnits="userSpaceOnUse"
       id="clipPath21168">
      <path
         d="m 7853.16,8425 c -69.49,-74.7 -139.25,-10 -250.42,-15.4 -25.07,-1.3 -92.95,1.9 -116.95,5 -82.44,10.7 -218.5,-41.9 -277.53,10.4 -27.12,17.6 -66.04,100.7 -71.18,209.1 -1.83,38.6 2.13,76.2 11.12,112 16.24,64.6 48.92,123.3 93.65,171.3 53.82,57.8 125.08,100.2 206.13,118.9 23.6,5.4 48.03,8.9 73.09,10.1 111.18,5.5 213.91,-33.5 290.13,-100.9 49.06,-43.4 87.14,-98.7 109.42,-161.4 12.33,-34.7 19.82,-71.8 21.65,-110.4 5.14,-108.4 -19.62,-174.1 -89.11,-248.7 z"
         id="path21166" />
    </clipPath>
    <clipPath
       clipPathUnits="userSpaceOnUse"
       id="clipPath21174">
      <path
         d="m 7853.16,8425 c -69.49,-74.7 -139.25,-10 -250.42,-15.4 -25.07,-1.3 -92.95,1.9 -116.95,5 -82.44,10.7 -218.5,-41.9 -277.53,10.4 -27.12,17.6 -66.04,100.7 -71.18,209.1 -1.83,38.6 2.13,76.2 11.12,112 16.24,64.6 48.92,123.3 93.65,171.3 53.82,57.8 125.08,100.2 206.13,118.9 23.6,5.4 48.03,8.9 73.09,10.1 111.18,5.5 213.91,-33.5 290.13,-100.9 49.06,-43.4 87.14,-98.7 109.42,-161.4 12.33,-34.7 19.82,-71.8 21.65,-110.4 5.14,-108.4 -19.62,-174.1 -89.11,-248.7"
         id="path21172" />
    </clipPath>
    <clipPath
       clipPathUnits="userSpaceOnUse"
       id="clipPath21236">
      <path
         d="m 8759.25,8337.4 c -163.73,22.9 -265.06,50.7 -422.92,42.9 -157.86,-7.8 -182.99,-71.6 -291.23,24.2 -108.23,95.7 -252.02,-147.6 -259.31,6.3 -3.34,70.5 -14.26,62.3 7.29,125.6 25.49,74.9 66.85,143 120.33,200.5 98.67,105.9 238.64,175.3 396.51,183.1 157.86,7.8 303.74,-47.5 411.97,-143.3 58.67,-51.9 106.27,-115.7 138.74,-187.7 27.43,-60.9 44.04,-127.7 47.38,-198.2 7.3,-153.9 -50.09,52.5 -148.76,-53.4 z"
         id="path21234" />
    </clipPath>
    <clipPath
       clipPathUnits="userSpaceOnUse"
       id="clipPath21242">
      <path
         d="m 8759.25,8337.4 c -163.73,22.9 -265.06,50.7 -422.92,42.9 -157.86,-7.8 -182.99,-71.6 -291.23,24.2 -108.23,95.7 -252.02,-147.6 -259.31,6.3 -3.34,70.5 -14.26,62.3 7.29,125.6 25.49,74.9 66.85,143 120.33,200.5 98.67,105.9 238.64,175.3 396.51,183.1 157.86,7.8 303.74,-47.5 411.97,-143.3 58.67,-51.9 106.27,-115.7 138.74,-187.7 27.43,-60.9 44.04,-127.7 47.38,-198.2 7.3,-153.9 -50.09,52.5 -148.76,-53.4"
         id="path21240" />
    </clipPath>
    <clipPath
       clipPathUnits="userSpaceOnUse"
       id="clipPath21294">
      <path
         d="m 11506.2,8424.9 c -15,-35.7 -962.1,-100.9 -2148.96,-100.9 -1186.84,0 -2148.99,45.2 -2148.99,100.9 0,23.1 463.13,110.7 572.21,62.8 73.97,64.8 977.41,78.4 1115.16,-4 115.57,31.3 533.97,34.2 693.6,12 85.09,24 698.68,74.6 1117.28,3 703.4,11.3 804.9,-61.3 799.7,-73.8 z"
         id="path21292" />
    </clipPath>
    <linearGradient
       x1="0"
       y1="0"
       x2="1"
       y2="0"
       gradientUnits="userSpaceOnUse"
       gradientTransform="matrix(0,216.954,216.954,0,9357.32,8324)"
       spreadMethod="pad"
       id="linearGradient21302">
      <stop
         style="stop-opacity:1;stop-color:#bababa"
         offset="0"
         id="stop21296" />
      <stop
         style="stop-opacity:1;stop-color:#bababa"
         offset="0.00518135"
         id="stop21298" />
      <stop
         style="stop-opacity:1;stop-color:#ababab"
         offset="1"
         id="stop21300" />
    </linearGradient>
  </defs>
  <g
     id="g8"
     transform="matrix(1.3333333,0,0,-1.3333333,-954.8786,1339.4833)">
    <g
       id="g7"
       transform="matrix(0.1,0,0,0.1,2.4946543,-14.967926)">
      <path
         d="m 8608.71,8745.9 c 22.6,-476.9 438.31,-387.1 927.47,-363 489.12,24.1 866.52,-26.7 843.92,450.3 -22.6,476.9 -437.45,843.9 -926.61,819.8 -489.16,-24.1 -867.38,-430.2 -844.78,-907.1"
         style="fill:#ababab;fill-opacity:1;fill-rule:nonzero;stroke:none"
         id="path20742" />
      <g
         id="g20744">
        <g
           id="g20746"
           clip-path="url(#clipPath20750)">
          <g
             id="g20752"
             clip-path="url(#clipPath20756)">
            <g
               id="g20758"
               transform="matrix(10,0,0,-10,-64410,91910)">
              <path
                 d="m 7453.3816,8315.8511 c 7.4571,-8 13.3973,-17.3573 17.3893,-27.6089 -4.0719,1.7565 -8.8783,3.4491 -14.1637,5.014 -2.9062,12.2795 -7.4891,23.6328 -13.7645,32.2237 3.7844,-2.9222 7.3134,-6.1478 10.5389,-9.6288 z"
                 style="fill:#ababab;fill-opacity:1;fill-rule:nonzero;stroke:none"
                 id="path20760" />
              <path
                 d="m 7442.8427,8325.4799 c 6.2754,-8.5909 10.8583,-19.9442 13.7645,-32.2237 -5.2855,1.5809 -11.034,3.034 -16.9901,4.3433 -2.0439,13.4133 -5.1417,25.8844 -8.8304,35.7686 4.2476,-2.2994 8.2715,-4.9501 12.056,-7.8882 z"
                 style="fill:#ababab;fill-opacity:1;fill-rule:nonzero;stroke:none"
                 id="path20762" />
              <path
                 d="m 7470.7709,8288.2422 c 3.992,-10.2515 6.0359,-21.3972 5.7325,-32.9741 -4.9022,0.032 -10.3313,0.1277 -16.1278,0.2714 0.3833,12.2636 -0.8622,25.4532 -3.7684,37.7167 5.2854,-1.5649 10.0918,-3.2575 14.1637,-5.014 z"
                 style="fill:#d6d6d6;fill-opacity:1;fill-rule:nonzero;stroke:none"
                 id="path20764" />
              <path
                 d="m 7456.6072,8293.2562 c 2.9062,-12.2635 4.1517,-25.4531 3.7684,-37.7167 -5.7804,0.1438 -11.9281,0.3354 -18.2834,0.527 0.5269,13.7326 -0.4471,28.1039 -2.4751,41.533 5.9561,-1.3093 11.7046,-2.7624 16.9901,-4.3433 z"
                 style="fill:#cdcdcd;fill-opacity:1;fill-rule:nonzero;stroke:none"
                 id="path20766" />
              <path
                 d="m 7430.7867,8333.3681 c 3.6887,-9.8842 6.7865,-22.3553 8.8304,-35.7686 -5.9721,1.2935 -12.1517,2.4432 -18.2675,3.3693 -1.1817,14.0679 -2.8264,27.1298 -3.9441,38.3235 4.6626,-1.6128 9.1337,-3.6088 13.3812,-5.9242 z"
                 style="fill:#ababab;fill-opacity:1;fill-rule:nonzero;stroke:none"
                 id="path20768" />
              <path
                 d="m 7417.4055,8339.2923 c 1.1177,-11.1937 2.7624,-24.2556 3.9441,-38.3235 -6.1158,0.9421 -12.1837,1.6926 -17.9482,2.1717 -0.1756,14.5629 -0.5269,28.0879 -0.463,39.8883 4.982,-0.8623 9.8203,-2.1078 14.4671,-3.7365 z"
                 style="fill:#ababab;fill-opacity:1;fill-rule:nonzero;stroke:none"
                 id="path20770" />
              <path
                 d="m 7439.6171,8297.5995 c 2.028,-13.4291 3.002,-27.8004 2.4751,-41.533 -6.3553,0.1916 -12.9023,0.3992 -19.4971,0.5748 0.6707,15.2177 -0.064,30.2756 -1.2455,44.3275 6.1158,-0.9261 12.2954,-2.0758 18.2675,-3.3693 z"
                 style="fill:#bfbfbf;fill-opacity:1;fill-rule:nonzero;stroke:none"
                 id="path20772" />
              <path
                 d="m 7421.3496,8300.9688 c 1.1816,-14.0519 1.9162,-29.1098 1.2455,-44.3275 -6.5948,0.1917 -13.2376,0.3673 -19.7685,0.4951 0.7505,15.8723 0.7505,31.4571 0.5748,46.0041 5.7645,-0.4791 11.8324,-1.2296 17.9482,-2.1717 z"
                 style="fill:#b2b2b2;fill-opacity:1;fill-rule:nonzero;stroke:none"
                 id="path20774" />
              <path
                 d="m 7476.5034,8255.2681 c -0.016,-0.5908 -0.032,-1.1657 -0.064,-1.7565 -4.9022,-0.032 -10.3314,0 -16.1278,0.08 0.032,0.6068 0.048,1.3414 0.064,1.9481 5.7965,-0.1437 11.2256,-0.2395 16.1278,-0.2714 z"
                 style="fill:#f1f1f1;fill-opacity:1;fill-rule:nonzero;stroke:none"
                 id="path20776" />
              <path
                 d="m 7460.3756,8255.5395 c -0.016,-0.6067 -0.032,-1.3413 -0.064,-1.9481 -5.7965,0.08 -11.9601,0.2076 -18.3155,0.3673 0.032,0.6707 0.064,1.4371 0.096,2.1078 6.3553,-0.1916 12.503,-0.3832 18.2834,-0.527 z"
                 style="fill:#e1e1e1;fill-opacity:1;fill-rule:nonzero;stroke:none"
                 id="path20778" />
              <path
                 d="m 7442.0922,8256.0665 c -0.032,-0.6707 -0.064,-1.4371 -0.096,-2.1078 -6.3553,0.1437 -12.9182,0.3194 -19.513,0.479 0.032,0.7346 0.08,1.4851 0.1118,2.2036 6.5948,-0.1756 13.1418,-0.3832 19.4971,-0.5748 z"
                 style="fill:#cecece;fill-opacity:1;fill-rule:nonzero;stroke:none"
                 id="path20780" />
              <path
                 d="m 7422.5951,8256.6413 c -0.032,-0.7185 -0.08,-1.469 -0.1118,-2.2036 -6.6108,0.1597 -13.2535,0.3194 -19.7685,0.4472 0.048,0.7505 0.08,1.501 0.1118,2.2515 6.5309,-0.1278 13.1737,-0.3034 19.7685,-0.4951 z"
                 style="fill:#bdbdbd;fill-opacity:1;fill-rule:nonzero;stroke:none"
                 id="path20782" />
              <path
                 d="m 7476.4396,8253.5116 c -0.3354,-7.0419 -1.533,-13.8603 -3.4811,-20.3434 -4.5349,-0.974 -9.7725,-1.7565 -15.4891,-2.3792 1.5649,7.5689 2.4911,15.4411 2.8424,22.8024 5.7964,-0.08 11.2256,-0.1117 16.1278,-0.08 z"
                 style="fill:#f2f2f2;fill-opacity:1;fill-rule:nonzero;stroke:none"
                 id="path20784" />
              <path
                 d="m 7460.3118,8253.5914 c -0.3513,-7.3613 -1.2775,-15.2335 -2.8424,-22.8024 -5.7006,-0.6387 -11.8802,-1.1018 -18.2355,-1.4691 1.3892,8.1597 2.3632,16.6068 2.7624,24.6388 6.3554,-0.1597 12.519,-0.2874 18.3155,-0.3673 z"
                 style="fill:#e2e2e2;fill-opacity:1;fill-rule:nonzero;stroke:none"
                 id="path20786" />
              <path
                 d="m 7472.9585,8233.1682 c -9.0699,-1.9321 -20.9981,-3.1297 -33.7246,-3.8483 -1.4052,-8.1437 -3.2256,-16.016 -5.3494,-22.8663 11.7685,1.8203 22.7546,4.5509 31.074,8.3673 3.3533,5.7325 6.0679,11.8802 8,18.3473 z"
                 style="fill:#fbfbfb;fill-opacity:1;fill-rule:nonzero;stroke:none"
                 id="path20788" />
              <path
                 d="m 7441.9963,8253.9587 c -0.3992,-8.032 -1.3732,-16.4791 -2.7624,-24.6388 -6.3713,-0.3513 -12.9342,-0.5748 -19.4173,-0.7186 1.2136,8.4472 2.2196,17.1498 2.6667,25.8364 6.5948,-0.1596 13.1577,-0.3353 19.513,-0.479 z"
                 style="fill:#cfcfcf;fill-opacity:1;fill-rule:nonzero;stroke:none"
                 id="path20790" />
              <path
                 d="m 7422.4833,8254.4377 c -0.4471,-8.6866 -1.4531,-17.3892 -2.6667,-25.8364 -6.499,-0.1437 -12.9341,-0.1916 -19.0499,-0.1756 0.7984,8.6068 1.485,17.4691 1.9481,26.4592 6.515,-0.1278 13.1577,-0.2875 19.7685,-0.4472 z"
                 style="fill:#bdbdbd;fill-opacity:1;fill-rule:nonzero;stroke:none"
                 id="path20792" />
              <path
                 d="m 7439.2339,8229.3199 c -1.4052,-8.1437 -3.2256,-16.016 -5.3494,-22.8663 -5.8762,-0.9262 -11.9441,-1.6128 -17.98,-2.1078 1.2774,7.6327 2.6986,15.8084 3.9121,24.2555 6.4831,0.1438 13.046,0.3673 19.4173,0.7186 z"
                 style="fill:#d7d7d7;fill-opacity:1;fill-rule:nonzero;stroke:none"
                 id="path20794" />
              <path
                 d="m 7419.8166,8228.6013 c -1.2135,-8.4471 -2.6347,-16.6228 -3.9121,-24.2555 -6.02,-0.4791 -12.0081,-0.7665 -17.7087,-0.8783 0.8783,7.9841 1.7885,16.3514 2.5709,24.9582 6.1158,-0.016 12.5509,0.032 19.0499,0.1756 z"
                 style="fill:#c8c8c8;fill-opacity:1;fill-rule:nonzero;stroke:none"
                 id="path20796" />
              <path
                 d="m 7402.9384,8343.0288 c -3.5929,0.6068 -7.2496,1.022 -10.9861,1.1976 -1.1657,-11.8323 -1.8204,-25.3573 -2.3633,-39.9202 4.2954,-0.2715 9.6448,-0.6867 13.8124,-1.1657 -0.1756,14.5629 -0.5269,28.0879 -0.463,39.8883 z"
                 style="fill:#ababab;fill-opacity:1;fill-rule:nonzero;stroke:none"
                 id="path20798" />
              <path
                 d="m 7403.4014,8303.1405 c -4.1676,0.479 -9.517,0.8942 -13.8124,1.1657 -0.5429,-14.5789 -0.99,-30.1638 -1.7724,-46.1159 4.8702,-0.3354 10.2675,-0.7186 15.01,-1.0539 0.7505,15.8723 0.7505,31.4571 0.5748,46.0041 z"
                 style="fill:#acacac;fill-opacity:1;fill-rule:nonzero;stroke:none"
                 id="path20800" />
              <path
                 d="m 7391.9523,8344.2264 c -24.4472,1.2136 -47.058,-7.3613 -63.8245,-22.2116 -8.1757,-7.2336 -14.9781,-15.9681 -19.9123,-25.7885 20.04,6.483 53.2696,9.7725 81.3735,8.0799 0.5429,14.5629 1.1976,28.0879 2.3633,39.9202 z"
                 style="fill:#ababab;fill-opacity:1;fill-rule:nonzero;stroke:none"
                 id="path20802" />
              <path
                 d="m 7389.589,8304.3062 c -28.1039,1.6926 -61.3335,-1.5969 -81.3735,-8.0799 -4.9501,-9.8204 -8.0479,-20.7106 -8.8144,-32.2875 23.3135,-1.8683 56.6709,-3.5449 88.4155,-5.7485 0.7824,15.9521 1.2295,31.537 1.7724,46.1159 z"
                 style="fill:#ababab;fill-opacity:1;fill-rule:nonzero;stroke:none"
                 id="path20804" />
              <path
                 d="m 7402.8266,8257.1364 c -4.7425,0.3353 -10.1398,0.7185 -15.01,1.0539 -0.032,-0.7346 -0.064,-1.4851 -0.1118,-2.2196 4.8543,-0.3353 10.2834,-0.7186 15.01,-1.022 0.048,0.7186 0.08,1.4531 0.1118,2.1877 z"
                 style="fill:#b3b3b3;fill-opacity:1;fill-rule:nonzero;stroke:none"
                 id="path20806" />
              <path
                 d="m 7387.8166,8258.1903 c -0.032,-0.7346 -0.064,-1.4851 -0.1118,-2.2196 -15.8564,1.0858 -32.1438,2.0918 -47.3774,3.1138 0.032,0.6547 0.08,1.4531 0.1118,2.1078 15.2336,-0.9262 31.5051,-1.9002 47.3774,-3.002 z"
                 style="fill:#b1b1b1;fill-opacity:1;fill-rule:nonzero;stroke:none"
                 id="path20808" />
              <path
                 d="m 7340.4392,8261.1923 c -0.032,-0.6547 -0.08,-1.4531 -0.1118,-2.1078 -15.2176,1.0219 -29.3973,2.0439 -41.038,3.1617 0.032,0.5588 0.064,1.1337 0.1117,1.6926 11.6568,-0.9262 25.8205,-1.8204 41.0381,-2.7465 z"
                 style="fill:#b0b0b0;fill-opacity:1;fill-rule:nonzero;stroke:none"
                 id="path20810" />
              <path
                 d="m 7402.7148,8254.9487 c -4.7266,0.3034 -10.1557,0.6867 -15.01,1.022 -0.4631,-9.1338 -1.006,-18.1238 -1.533,-26.8743 4.535,-0.2555 10.1877,-0.527 14.5949,-0.6388 0.7984,8.6228 1.485,17.4851 1.9481,26.4911 z"
                 style="fill:#b4b4b4;fill-opacity:1;fill-rule:nonzero;stroke:none"
                 id="path20812" />
              <path
                 d="m 7400.7667,8228.4576 c -4.4072,0.1118 -10.0599,0.3833 -14.5949,0.6388 -0.5269,-8.7346 -1.0379,-17.2296 -1.4371,-25.3574 4.2156,-0.2076 9.3573,-0.3513 13.4611,-0.2715 0.8942,8.0001 1.7885,16.3674 2.5709,24.9901 z"
                 style="fill:#bfbfbf;fill-opacity:1;fill-rule:nonzero;stroke:none"
                 id="path20814" />
              <path
                 d="m 7387.7048,8255.9707 c -15.8564,1.0858 -32.1438,2.0918 -47.3774,3.1138 -0.3992,-8.0799 -0.4311,-16.9262 -0.08,-25.5011 15.01,-2.0918 31.0899,-3.5928 45.9242,-4.487 0.527,8.7505 1.0699,17.7405 1.533,26.8743 z"
                 style="fill:#b2b2b2;fill-opacity:1;fill-rule:nonzero;stroke:none"
                 id="path20816" />
              <path
                 d="m 7386.1718,8229.0964 c -14.8343,0.8942 -30.9142,2.3952 -45.9242,4.487 0.3513,-8.5749 1.1177,-16.9102 2.3153,-23.9841 13.6208,-3.1777 28.3754,-5.1737 42.1718,-5.8603 0.3992,8.1278 0.9102,16.6228 1.4371,25.3574 z"
                 style="fill:#bcbcbc;fill-opacity:1;fill-rule:nonzero;stroke:none"
                 id="path20818" />
              <path
                 d="m 7340.3274,8259.0845 c -15.2176,1.0219 -29.3973,2.0439 -41.038,3.1617 -0.3194,-7.058 0.2075,-13.9562 1.5329,-20.5989 10.507,-3.2735 24.4152,-5.9721 39.4253,-8.0639 -0.3513,8.5749 -0.3194,17.4212 0.08,25.5011 z"
                 style="fill:#b0b0b0;fill-opacity:1;fill-rule:nonzero;stroke:none"
                 id="path20820" />
              <path
                 d="m 7340.2476,8233.5834 c -15.0101,2.0918 -28.9183,4.7904 -39.4253,8.0639 1.3254,-6.6268 3.4331,-13.014 6.2276,-19.05 9.3573,-5.4291 21.8763,-9.8044 35.513,-12.998 -1.1976,7.0739 -1.964,15.4092 -2.3153,23.9841 z"
                 style="fill:#b9b9b9;fill-opacity:1;fill-rule:nonzero;stroke:none"
                 id="path20822" />
              <path
                 d="m 7464.9585,8214.8209 c -8.3194,-3.8164 -19.3055,-6.547 -31.074,-8.3673 -1.469,-4.8543 -3.1137,-9.8843 -4.8862,-14.6747 10.5869,2.7944 20.4073,6.7545 28.1198,11.8004 2.9062,3.529 5.525,7.2815 7.8404,11.2416 z"
                 style="fill:#fefefe;fill-opacity:1;fill-rule:nonzero;stroke:none"
                 id="path20824" />
              <path
                 d="m 7457.1181,8203.5793 c -7.7125,-5.0459 -17.5329,-9.006 -28.1198,-11.8004 -1.7565,-4.7904 -3.6248,-9.3573 -5.5569,-13.2695 8.8942,3.7685 17.0539,8.9421 24.1598,15.2176 3.4331,3.0339 6.6108,6.3234 9.5169,9.8523 z"
                 style="fill:#fefefe;fill-opacity:1;fill-rule:nonzero;stroke:none"
                 id="path20826" />
              <path
                 d="m 7433.8845,8206.4536 c -11.7525,-1.8364 -24.2874,-2.7785 -35.6887,-2.9861 -0.6387,-5.7485 -1.2615,-11.3054 -1.8363,-16.6228 10.7306,0.4631 22.0679,2.1238 32.6388,4.9342 1.7725,4.7904 3.4172,9.8204 4.8862,14.6747 z"
                 style="fill:#e0e0e0;fill-opacity:1;fill-rule:nonzero;stroke:none"
                 id="path20828" />
              <path
                 d="m 7428.9983,8191.7789 c -10.5709,-2.8104 -21.9082,-4.4711 -32.6388,-4.9342 -0.5908,-5.3173 -1.1178,-10.4112 -1.5489,-15.2016 10.0918,0.7186 19.7366,3.0978 28.6308,6.8663 1.9321,3.9122 3.8004,8.4791 5.5569,13.2695 z"
                 style="fill:#ededed;fill-opacity:1;fill-rule:nonzero;stroke:none"
                 id="path20830" />
              <path
                 d="m 7398.1958,8203.4675 c -4.1038,-0.08 -9.2455,0.064 -13.4611,0.2715 -0.3194,-5.7964 -0.5748,-11.4172 -0.7345,-16.7984 3.9601,-0.2076 8.479,-0.2715 12.3593,-0.096 0.5748,5.3174 1.1976,10.8743 1.8363,16.6228 z"
                 style="fill:#d0d0d0;fill-opacity:1;fill-rule:nonzero;stroke:none"
                 id="path20832" />
              <path
                 d="m 7396.3595,8186.8447 c -3.8803,-0.1756 -8.3992,-0.1117 -12.3593,0.096 -0.1757,-5.3813 -0.2555,-10.539 -0.2236,-15.4093 3.7206,-0.1916 7.4092,-0.1437 11.034,0.1118 0.4311,4.7904 0.9581,9.8843 1.5489,15.2016 z"
                 style="fill:#e2e2e2;fill-opacity:1;fill-rule:nonzero;stroke:none"
                 id="path20834" />
              <path
                 d="m 7384.7347,8203.739 c -13.7964,0.6866 -28.551,2.6826 -42.1718,5.8603 0.7984,-4.9821 1.7725,-10.3314 2.9541,-15.4412 12.1677,-4.0718 25.4692,-6.5788 38.4832,-7.2175 0.1597,5.3812 0.4151,11.002 0.7345,16.7984 z"
                 style="fill:#cccccc;fill-opacity:1;fill-rule:nonzero;stroke:none"
                 id="path20836" />
              <path
                 d="m 7384.0002,8186.9406 c -13.014,0.6387 -26.3155,3.1457 -38.4832,7.2175 1.1657,-5.1257 2.523,-10.0279 4.1038,-14.1477 10.3953,-4.8862 21.9243,-7.8883 34.1558,-8.4791 -0.032,4.8703 0.048,10.028 0.2236,15.4093 z"
                 style="fill:#e1e1e1;fill-opacity:1;fill-rule:nonzero;stroke:none"
                 id="path20838" />
              <path
                 d="m 7342.5629,8209.5993 c -13.6367,3.1936 -26.1557,7.5689 -35.513,12.998 1.9321,-4.1676 4.1996,-8.1597 6.7545,-11.9601 8.495,-6.8184 19.5449,-12.4232 31.7126,-16.4791 -1.1816,5.1098 -2.1557,10.4591 -2.9541,15.4412 z"
                 style="fill:#c7c7c7;fill-opacity:1;fill-rule:nonzero;stroke:none"
                 id="path20840" />
              <path
                 d="m 7345.517,8194.1581 c -12.1677,4.0559 -23.2176,9.6607 -31.7126,16.4791 2.5549,-3.7844 5.4132,-7.3772 8.5429,-10.7305 7.6328,-8.2077 16.8783,-15.0101 27.2735,-19.8963 -1.5808,4.1198 -2.9381,9.022 -4.1038,14.1477 z"
                 style="fill:#dcdcdc;fill-opacity:1;fill-rule:nonzero;stroke:none"
                 id="path20842" />
            </g>
          </g>
        </g>
      </g>
      <g
         id="g20844">
        <g
           id="g20846"
           clip-path="url(#clipPath20850)">
          <g
             id="g20852"
             clip-path="url(#clipPath20856)">
            <g
               id="g20858"
               transform="matrix(10,0,0,-10,-64410,91910)">
              <path
                 d="m 7551.1093,8327.107 c -4.1903,4.5178 -9.145,8.3669 -14.6593,11.3561 2.4296,-7.4115 4.3678,-15.915 5.6098,-24.7051 7.8347,-1.1192 15.137,-2.6479 20.4738,-4.9683 -2.5797,6.811 -6.4833,13.0214 -11.4243,18.3173 z"
                 style="fill:#ababab;fill-opacity:1;fill-rule:nonzero;stroke:none"
                 id="path20860" />
              <path
                 d="m 7562.5336,8308.7897 c 2.5661,-6.8109 3.8218,-14.2224 3.4533,-21.9206 -3.2212,0.068 -6.7837,0.1365 -10.5645,0.2184 0.3549,7.9575 -0.3549,16.5565 -2.1839,24.6368 3.4669,-0.8053 6.6199,-1.7744 9.2951,-2.9346 z"
                 style="fill:#ababab;fill-opacity:1;fill-rule:nonzero;stroke:none"
                 id="path20862" />
              <path
                 d="m 7553.2385,8311.7243 c 1.829,-8.0803 2.5388,-16.6793 2.1839,-24.6368 -3.7808,0.068 -7.7937,0.1502 -11.943,0.232 0.3685,8.5717 -0.1775,17.6485 -1.4196,26.4385 3.9174,-0.5596 7.6982,-1.2147 11.1787,-2.0337 z"
                 style="fill:#aeaeae;fill-opacity:1;fill-rule:nonzero;stroke:none"
                 id="path20864" />
              <path
                 d="m 7536.45,8338.4631 c -5.5279,2.9892 -11.6154,5.1321 -18.0852,6.2104 -0.068,-9.5135 -0.027,-18.9861 -0.055,-28.4586 7.5208,-0.6415 15.915,-1.3376 23.7496,-2.4569 -1.242,8.7901 -3.1802,17.2936 -5.6098,24.7051 z"
                 style="fill:#ababab;fill-opacity:1;fill-rule:nonzero;stroke:none"
                 id="path20866" />
              <path
                 d="m 7542.0598,8313.758 c -7.8346,1.1193 -16.2288,1.8154 -23.7496,2.4569 -0.027,-9.4589 -0.1364,-18.9041 -0.505,-28.3494 8.5717,-0.2047 17.3891,-0.3822 25.6742,-0.546 0.3685,8.5717 -0.1775,17.6485 -1.4196,26.4385 z"
                 style="fill:#afafaf;fill-opacity:1;fill-rule:nonzero;stroke:none"
                 id="path20868" />
              <path
                 d="m 7565.9869,8286.8691 c -0.3412,-7.2067 -2.0747,-14.0313 -4.9274,-20.2281 -2.8936,-0.8326 -6.1831,-1.5696 -9.7318,-2.2248 2.5524,6.6062 3.7535,15.2052 4.0947,22.6713 3.7808,-0.082 7.3433,-0.1501 10.5645,-0.2184 z"
                 style="fill:#ababab;fill-opacity:1;fill-rule:nonzero;stroke:none"
                 id="path20870" />
              <path
                 d="m 7555.4224,8287.0875 c -0.3412,-7.4661 -1.5423,-16.0651 -4.0947,-22.6713 -3.5352,-0.6552 -7.3433,-1.2148 -11.2743,-1.6652 1.8836,7.5207 3.0847,16.5565 3.426,24.5685 4.1493,-0.082 8.1622,-0.1637 11.943,-0.232 z"
                 style="fill:#b5b5b5;fill-opacity:1;fill-rule:nonzero;stroke:none"
                 id="path20872" />
              <path
                 d="m 7543.4794,8287.3195 c -0.3413,-8.012 -1.5424,-17.0478 -3.426,-24.5685 -3.931,-0.4504 -7.9848,-0.8053 -12.0386,-1.0373 1.2285,8.4352 2.4023,17.3071 2.7299,25.8652 4.3131,-0.096 8.5853,-0.1775 12.7347,-0.2594 z"
                 style="fill:#b9b9b9;fill-opacity:1;fill-rule:nonzero;stroke:none"
                 id="path20874" />
              <path
                 d="m 7530.7447,8287.5789 c -0.3276,-8.5581 -1.5014,-17.43 -2.7299,-25.8652 -4.0538,-0.2184 -8.1076,-0.3276 -12.0113,-0.314 0.9145,8.8447 1.4741,17.6621 1.8017,26.4658 4.2859,-0.1092 8.64,-0.2047 12.9395,-0.2866 z"
                 style="fill:#bababa;fill-opacity:1;fill-rule:nonzero;stroke:none"
                 id="path20876" />
              <path
                 d="m 7518.3648,8344.6735 c -2.2521,0.3821 -4.5588,0.6415 -6.9064,0.7507 -0.7098,-9.3088 -1.2012,-18.7267 -1.597,-28.2266 2.6752,-0.1501 5.8419,-0.6688 8.4488,-0.9554 0.027,9.4452 -0.014,18.9178 0.055,28.4313 z"
                 style="fill:#ababab;fill-opacity:1;fill-rule:nonzero;stroke:none"
                 id="path20878" />
              <path
                 d="m 7518.3102,8316.2422 c -2.6069,0.2866 -5.7736,0.8053 -8.4488,0.9554 -0.3958,-9.4862 -0.6825,-19.0679 -0.9827,-28.7042 3.0028,-0.1911 5.9783,-0.3958 8.9265,-0.6006 0.3686,9.4453 0.4778,18.8905 0.505,28.3494 z"
                 style="fill:#aeaeae;fill-opacity:1;fill-rule:nonzero;stroke:none"
                 id="path20880" />
              <path
                 d="m 7511.4584,8345.4242 c -7.8893,0.3958 -15.4782,-0.8053 -22.453,-3.2895 -3.0574,-7.043 -5.3232,-15.6829 -6.8928,-24.7323 9.1722,0.464 18.8222,0.3139 27.7488,-0.2048 0.3958,9.4999 0.8872,18.9178 1.597,28.2266 z"
                 style="fill:#ababab;fill-opacity:1;fill-rule:nonzero;stroke:none"
                 id="path20882" />
              <path
                 d="m 7509.8614,8317.1976 c -8.9266,0.5187 -18.5766,0.6688 -27.7488,0.2048 -1.5833,-9.0494 -2.4705,-18.4947 -2.7981,-27.1619 9.6363,-0.6006 19.6002,-1.1193 29.5642,-1.7471 0.3002,9.6363 0.5869,19.218 0.9827,28.7042 z"
                 style="fill:#aeaeae;fill-opacity:1;fill-rule:nonzero;stroke:none"
                 id="path20884" />
              <path
                 d="m 7489.0054,8342.1347 c -6.1285,-14.0996 -9.0221,-34.5597 -9.6909,-51.8942 -9.65,0.6005 -18.9724,1.283 -27.6669,2.2657 0.737,15.3963 7.7937,29.0046 18.6175,38.5863 5.4187,4.7909 11.7656,8.5581 18.7403,11.0422 z"
                 style="fill:#ababab;fill-opacity:1;fill-rule:nonzero;stroke:none"
                 id="path20886" />
              <path
                 d="m 7517.8052,8287.8928 c -2.9482,0.2048 -5.9237,0.4095 -8.9265,0.6006 -0.2867,-9.0085 -0.5733,-17.976 -1.0237,-26.9026 2.7298,-0.1228 5.446,-0.1774 8.1485,-0.1911 0.9145,8.8584 1.4741,17.6757 1.8017,26.4931 z"
                 style="fill:#bababa;fill-opacity:1;fill-rule:nonzero;stroke:none"
                 id="path20888" />
              <path
                 d="m 7508.8787,8288.4934 c -0.2867,-9.0085 -0.5733,-17.976 -1.0237,-26.9026 -9.0085,0.3685 -18.1671,1.2967 -27.1346,2.9482 -0.9009,7.6982 -1.7198,17.5939 -1.4059,25.7015 9.6363,-0.6006 19.6002,-1.1193 29.5642,-1.7471 z"
                 style="fill:#bababa;fill-opacity:1;fill-rule:nonzero;stroke:none"
                 id="path20890" />
              <path
                 d="m 7479.3145,8290.2405 c -0.3139,-8.1076 0.505,-18.0033 1.4059,-25.7015 -8.9812,1.6652 -17.7713,4.0539 -26.07,7.3433 -2.2658,6.4561 -3.3304,13.4172 -3.0028,20.6239 8.6945,-0.9827 18.0169,-1.6652 27.6669,-2.2657 z"
                 style="fill:#bebebe;fill-opacity:1;fill-rule:nonzero;stroke:none"
                 id="path20892" />
              <path
                 d="m 7561.0595,8266.641 c -1.6106,-3.5078 -3.6034,-6.8246 -5.8964,-9.9093 -2.607,-1.4332 -5.5552,-2.7298 -8.7355,-3.89 1.8563,3.7945 3.4532,7.821 4.9001,11.5745 3.5487,0.6552 6.8382,1.3922 9.7318,2.2248 z"
                 style="fill:#ababab;fill-opacity:1;fill-rule:nonzero;stroke:none"
                 id="path20894" />
              <path
                 d="m 7551.3277,8264.4162 c -1.4469,-3.7535 -3.0438,-7.78 -4.9001,-11.5745 -3.1803,-1.1465 -6.5926,-2.1429 -10.1414,-2.9892 1.4196,4.1903 2.7026,8.6263 3.7672,12.8985 3.931,0.4504 7.7391,1.01 11.2743,1.6652 z"
                 style="fill:#bbbbbb;fill-opacity:1;fill-rule:nonzero;stroke:none"
                 id="path20896" />
              <path
                 d="m 7555.1631,8256.7317 c -2.2931,-3.0711 -4.9137,-5.8964 -7.7801,-8.4488 -2.3067,-2.0338 -4.7772,-3.8901 -7.3978,-5.5416 2.4705,2.7844 4.5861,6.3196 6.4424,10.1004 3.1803,1.1602 6.1285,2.4568 8.7355,3.89 z"
                 style="fill:#ababab;fill-opacity:1;fill-rule:nonzero;stroke:none"
                 id="path20898" />
              <path
                 d="m 7546.4276,8252.8417 c -1.8563,-3.7808 -3.9719,-7.316 -6.4424,-10.1004 -2.6207,-1.6516 -5.3915,-3.0984 -8.2851,-4.3132 1.6243,3.2895 3.1666,7.2341 4.5861,11.4244 3.5488,0.8463 6.9611,1.8427 10.1414,2.9892 z"
                 style="fill:#c4c4c4;fill-opacity:1;fill-rule:nonzero;stroke:none"
                 id="path20900" />
              <path
                 d="m 7540.0534,8262.751 c -1.0646,-4.2722 -2.3476,-8.7082 -3.7672,-12.8985 -3.5351,-0.8326 -7.2067,-1.5014 -10.892,-1.9928 0.9691,4.4224 1.9245,9.0767 2.6206,13.854 4.0538,0.232 8.1076,0.5869 12.0386,1.0373 z"
                 style="fill:#c6c6c6;fill-opacity:1;fill-rule:nonzero;stroke:none"
                 id="path20902" />
              <path
                 d="m 7528.0148,8261.7137 c -0.6961,-4.7773 -1.6515,-9.4316 -2.6206,-13.854 -3.6717,-0.4777 -7.3706,-0.778 -10.9603,-0.8872 0.505,4.5862 1.051,9.418 1.5696,14.4272 3.9037,-0.014 7.9575,0.096 12.0113,0.314 z"
                 style="fill:#cdcdcd;fill-opacity:1;fill-rule:nonzero;stroke:none"
                 id="path20904" />
              <path
                 d="m 7536.2862,8249.8525 c -1.4195,-4.1903 -2.9618,-8.1349 -4.5861,-11.4244 -2.88,-1.2147 -5.8964,-2.2111 -8.9948,-2.9482 0.7507,3.7945 1.7334,7.9711 2.6889,12.3798 3.6853,0.4914 7.3569,1.1602 10.892,1.9928 z"
                 style="fill:#d6d6d6;fill-opacity:1;fill-rule:nonzero;stroke:none"
                 id="path20906" />
              <path
                 d="m 7525.3942,8247.8597 c -0.9555,-4.4087 -1.9382,-8.5853 -2.6889,-12.3798 -3.112,-0.7507 -6.3059,-1.2421 -9.5817,-1.4605 0.3548,4.0266 0.8189,8.367 1.3103,12.9531 3.5897,0.1092 7.2886,0.4095 10.9603,0.8872 z"
                 style="fill:#e0e0e0;fill-opacity:1;fill-rule:nonzero;stroke:none"
                 id="path20908" />
              <path
                 d="m 7516.0035,8261.3997 c -2.7025,0.014 -5.4187,0.068 -8.1349,0.1911 -0.4095,-5.0502 -0.7916,-9.9093 -1.0919,-14.5364 2.5387,-0.1228 5.173,-0.1501 7.6572,-0.082 0.505,4.5862 1.051,9.418 1.5696,14.4272 z"
                 style="fill:#d0d0d0;fill-opacity:1;fill-rule:nonzero;stroke:none"
                 id="path20910" />
              <path
                 d="m 7514.4339,8246.9725 c -2.4842,-0.068 -5.1185,-0.041 -7.6572,0.082 -0.2867,-4.6271 -0.505,-9.0221 -0.6006,-13.1032 2.3477,-0.1092 4.668,-0.095 6.9475,0.068 0.3548,4.0266 0.8189,8.367 1.3103,12.9531 z"
                 style="fill:#e3e3e3;fill-opacity:1;fill-rule:nonzero;stroke:none"
                 id="path20912" />
              <path
                 d="m 7507.8686,8261.5908 c -9.0221,0.3685 -18.1671,1.2967 -27.1482,2.9482 0.4367,-4.354 0.6551,-8.8992 1.0783,-13.226 8.0393,-2.4296 16.5291,-3.89 24.978,-4.2586 0.3003,4.6271 0.6824,9.4862 1.0919,14.5364 z"
                 style="fill:#cfcfcf;fill-opacity:1;fill-rule:nonzero;stroke:none"
                 id="path20914" />
              <path
                 d="m 7506.7767,8247.0544 c -8.4489,0.3686 -16.9387,1.829 -24.978,4.2586 0.4367,-4.3268 1.0646,-8.4352 2.334,-11.8885 6.7154,-3.1529 14.1542,-5.0775 22.0434,-5.4733 0.096,4.0811 0.3139,8.4761 0.6006,13.1032 z"
                 style="fill:#e3e3e3;fill-opacity:1;fill-rule:nonzero;stroke:none"
                 id="path20916" />
              <path
                 d="m 7480.7204,8264.539 c -8.9812,1.6652 -17.7713,4.0539 -26.07,7.3433 1.2694,-3.658 2.9346,-7.1522 4.9274,-10.4416 6.6198,-4.2859 14.1951,-7.6982 22.2209,-10.1277 -0.4232,4.3268 -0.6416,8.872 -1.0783,13.226 z"
                 style="fill:#cecece;fill-opacity:1;fill-rule:nonzero;stroke:none"
                 id="path20918" />
              <path
                 d="m 7481.7987,8251.313 c 0.4367,-4.3268 1.0646,-8.4352 2.334,-11.8885 -3.3441,1.5833 -6.5107,3.4669 -9.4589,5.6235 -2.1975,3.0165 -3.5079,6.7154 -4.5179,10.6327 3.7262,-1.6925 7.6299,-3.1529 11.6428,-4.3677 z"
                 style="fill:#dedede;fill-opacity:1;fill-rule:nonzero;stroke:none"
                 id="path20920" />
              <path
                 d="m 7470.1559,8255.6807 c 1.01,-3.9173 2.3204,-7.6162 4.5179,-10.6327 -2.9483,2.1566 -5.6781,4.5725 -8.1486,7.2204 -2.6206,2.8118 -4.9547,5.8965 -6.9474,9.1723 3.3167,-2.1429 6.8655,-4.0675 10.5781,-5.76 z"
                 style="fill:#d7d7d7;fill-opacity:1;fill-rule:nonzero;stroke:none"
                 id="path20922" />
            </g>
          </g>
        </g>
      </g>
      <g
         id="g20924">
        <g
           id="g20926"
           clip-path="url(#clipPath20930)">
          <g
             id="g20932"
             clip-path="url(#clipPath20936)">
            <g
               id="g20938"
               transform="matrix(10,0,0,-10,-64410,91910)">
              <path
                 d="m 7509.78,8350.2804 c 10.9769,-11.7829 17.6744,9.1449 16.8683,-7.9725 -7.7966,-1.6561 -17.4692,-4.807 -27.8159,-7.8553 0.513,11.0208 -3.019,2.3302 -8.0898,19.1692 7.3277,1.6561 13.9373,2.1397 19.0374,-3.3414 z"
                 style="fill:#ababab;fill-opacity:1;fill-rule:nonzero;stroke:none"
                 id="path20940" />
              <path
                 d="m 7490.7426,8353.6218 c 5.0708,-16.839 8.6028,-8.1484 8.0898,-19.1692 -10.3467,-3.0483 -21.3675,-6.0087 -31.8461,-7.313 0.2198,4.9095 -0.4836,1.0112 0.3371,22.8916 8.0164,-0.85 16.0769,1.9492 23.4192,3.5906 z"
                 style="fill:#c3c3c3;fill-opacity:1;fill-rule:nonzero;stroke:none"
                 id="path20942" />
              <path
                 d="m 7526.6483,8342.3079 c -0.4396,-9.2622 -2.9311,-17.9529 -7.0492,-25.6616 -6.7415,-2.594 -15.564,-4.4845 -25.0167,-5.6716 2.4767,9.2036 3.9716,17.645 4.25,23.4779 10.3467,3.0483 20.0193,6.1992 27.8159,7.8553 z"
                 style="fill:#b3b3b3;fill-opacity:1;fill-rule:nonzero;stroke:none"
                 id="path20944" />
              <path
                 d="m 7498.8324,8334.4526 c -0.2784,-5.8329 -1.7733,-14.2743 -4.25,-23.4779 -9.4528,-1.1871 -19.5357,-1.6707 -28.8565,-1.4656 0.8354,10.6985 1.1578,15.227 1.2604,17.6305 10.4786,1.3043 21.4994,4.2647 31.8461,7.313 z"
                 style="fill:#c5c5c5;fill-opacity:1;fill-rule:nonzero;stroke:none"
                 id="path20946" />
              <path
                 d="m 7467.3234,8350.0312 c -1.2311,0.1319 -3.7079,2.3596 -4.9536,2.4182 -2.0664,-21.9245 -2.4034,-15.8864 -2.7405,-23.4193 2.3448,-0.5423 5.0414,-1.744 7.3423,-2.2716 0.2638,5.4958 -0.4983,0.85 0.3518,23.2727 z"
                 style="fill:#cccccc;fill-opacity:1;fill-rule:nonzero;stroke:none"
                 id="path20948" />
              <path
                 d="m 7462.3698,8352.4494 c -2.0664,-21.9245 -2.4034,-15.8864 -2.7405,-23.4193 -10.7571,2.3155 -21.2357,5.6863 -31.3039,9.2329 0.5716,12.3252 4.5139,1.8319 11.5631,18.1287 6.507,-1.0405 13.6881,-3.5173 22.4813,-3.9423 z"
                 style="fill:#cbcbcb;fill-opacity:1;fill-rule:nonzero;stroke:none"
                 id="path20950" />
              <path
                 d="m 7439.8885,8356.3917 c -6.4923,1.0259 -12.3105,0.6155 -18.3339,-4.7044 -6.0087,-5.3345 -11.3432,-1.8319 -15.2709,0.8647 7.5915,1.1431 16.2235,-2.4621 25.3978,-6.7122 1.9345,0.9526 4.6897,2.4035 8.207,10.5519 z"
                 style="fill:#c1c1c1;fill-opacity:1;fill-rule:nonzero;stroke:none"
                 id="path20952" />
              <path
                 d="m 7431.6815,8345.8398 c -9.1743,4.2501 -17.8063,7.8553 -25.3978,6.7122 -3.9276,2.6966 -6.4483,4.5871 -6.8587,-3.9716 9.1596,-3.0484 18.8322,-6.7708 28.9004,-10.3174 0.2931,6.1699 1.4216,6.6242 3.3561,7.5768 z"
                 style="fill:#c1c1c1;fill-opacity:1;fill-rule:nonzero;stroke:none"
                 id="path20954" />
              <path
                 d="m 7466.9716,8326.7585 c -2.3009,0.5276 -4.9975,1.7293 -7.3423,2.2716 -0.1466,-3.5759 -0.2785,-8.9837 -0.6155,-19.2718 2.2569,-0.1173 4.4992,-0.2052 6.7121,-0.2492 0.7914,10.1709 1.1138,14.758 1.2457,17.2494 z"
                 style="fill:#cdcdcd;fill-opacity:1;fill-rule:nonzero;stroke:none"
                 id="path20956" />
              <path
                 d="m 7459.6293,8329.0301 c -0.1466,-3.5759 -0.2785,-8.9837 -0.6155,-19.2718 -9.3355,0.469 -18.9641,1.5534 -28.3142,3.5466 -1.5095,9.1889 -2.6673,18.539 -2.3742,24.9581 10.0682,-3.5466 20.5468,-6.9174 31.3039,-9.2329 z"
                 style="fill:#cccccc;fill-opacity:1;fill-rule:nonzero;stroke:none"
                 id="path20958" />
              <path
                 d="m 7428.3254,8338.263 c -0.2931,-6.4191 0.8647,-15.7692 2.3742,-24.9581 -9.3648,1.9931 -18.4365,4.8949 -26.6875,9.0423 -3.356,8.0752 -5.0121,16.971 -4.5871,26.2332 9.1596,-3.0484 18.8322,-6.7708 28.9004,-10.3174 z"
                 style="fill:#c3c3c3;fill-opacity:1;fill-rule:nonzero;stroke:none"
                 id="path20960" />
              <path
                 d="m 7519.5991,8316.6463 c -1.744,-3.2681 -3.7665,-6.3604 -6.0673,-9.2475 -3.0777,-1.8906 -6.595,-3.5613 -10.3907,-5.0122 1.8173,3.5906 3.444,7.401 4.9682,10.9036 4.2354,0.938 8.119,2.0664 11.4898,3.3561 z"
                 style="fill:#bebebe;fill-opacity:1;fill-rule:nonzero;stroke:none"
                 id="path20962" />
              <path
                 d="m 7508.1093,8313.2902 c -4.2354,-0.9526 -8.7933,-1.7147 -13.5269,-2.3155 -0.5276,-1.9932 -1.0845,-4.0596 -1.6854,-6.1113 4.4845,0.8207 8.8079,1.8319 12.8381,3.0043 0.8207,1.8466 1.6121,3.6639 2.3742,5.4225 z"
                 style="fill:#c5c5c5;fill-opacity:1;fill-rule:nonzero;stroke:none"
                 id="path20964" />
              <path
                 d="m 7505.7351,8307.8677 c -4.0302,-1.1724 -8.3536,-2.1836 -12.8381,-3.0043 -0.6009,-2.0664 -1.2457,-4.1182 -1.9052,-6.1406 4.25,0.9819 8.3389,2.2129 12.1493,3.6638 0.9086,1.788 1.7733,3.6492 2.594,5.4811 z"
                 style="fill:#cacaca;fill-opacity:1;fill-rule:nonzero;stroke:none"
                 id="path20966" />
              <path
                 d="m 7513.5318,8307.3988 c -2.2863,-2.9018 -4.8217,-5.5837 -7.5915,-8.0312 -2.7992,-2.4621 -5.8182,-4.7044 -9.0277,-6.6535 2.3595,2.6819 4.3966,6.0673 6.2285,9.6725 3.7957,1.4509 7.313,3.1216 10.3907,5.0122 z"
                 style="fill:#c3c3c3;fill-opacity:1;fill-rule:nonzero;stroke:none"
                 id="path20968" />
              <path
                 d="m 7503.1411,8302.3866 c -1.8319,-3.6052 -3.869,-6.9906 -6.2285,-9.6725 -3.2096,-1.9638 -6.6243,-3.6492 -10.1709,-5.0268 1.4949,3.1949 2.9311,7.0199 4.2501,11.0355 4.25,0.9819 8.3389,2.2129 12.1493,3.6638 z"
                 style="fill:#d1d1d1;fill-opacity:1;fill-rule:nonzero;stroke:none"
                 id="path20970" />
              <path
                 d="m 7494.5824,8310.9747 c -9.4528,-1.1871 -19.5357,-1.6707 -28.8565,-1.4656 -0.1905,-2.3595 -0.3664,-4.6897 -0.5422,-6.9759 9.1156,-0.1612 18.7295,0.6888 27.7133,2.3302 0.6009,2.0517 1.1578,4.1181 1.6854,6.1113 z"
                 style="fill:#cbcbcb;fill-opacity:1;fill-rule:nonzero;stroke:none"
                 id="path20972" />
              <path
                 d="m 7492.897,8304.8634 c -8.9838,-1.6414 -18.5977,-2.4914 -27.7133,-2.3302 -0.1759,-2.2716 -0.3518,-4.5139 -0.513,-6.6975 8.6907,-0.073 17.821,0.9233 26.3211,2.8871 0.6595,2.0224 1.3043,4.0742 1.9052,6.1406 z"
                 style="fill:#d0d0d0;fill-opacity:1;fill-rule:nonzero;stroke:none"
                 id="path20974" />
              <path
                 d="m 7490.9918,8298.7228 c -1.319,-4.0156 -2.7552,-7.8406 -4.2501,-11.0355 -3.5612,-1.3776 -7.269,-2.4475 -11.0941,-3.1802 0.6155,3.7078 1.4362,7.7673 2.2569,12.0174 4.426,0.4836 8.8372,1.2164 13.0873,2.1983 z"
                 style="fill:#d8d8d8;fill-opacity:1;fill-rule:nonzero;stroke:none"
                 id="path20976" />
              <path
                 d="m 7477.9045,8296.5245 c -4.4405,-0.4983 -8.8958,-0.7181 -13.2338,-0.6888 -0.1612,-2.1837 -0.3224,-4.3234 -0.4543,-6.4044 4.1328,0.015 8.3243,0.3077 12.4864,0.8793 0.381,2.0078 0.7914,4.0888 1.2017,6.2139 z"
                 style="fill:#dbdbdb;fill-opacity:1;fill-rule:nonzero;stroke:none"
                 id="path20978" />
              <path
                 d="m 7476.7028,8290.3106 c -4.1621,-0.5716 -8.3536,-0.8647 -12.4864,-0.8793 -0.1465,-2.0811 -0.2784,-4.1182 -0.381,-6.082 4.0302,0.029 7.9725,0.425 11.8122,1.1578 0.3078,1.8612 0.6595,3.7957 1.0552,5.8035 z"
                 style="fill:#e9e9e9;fill-opacity:1;fill-rule:nonzero;stroke:none"
                 id="path20980" />
              <path
                 d="m 7465.7259,8309.5091 c -1.4069,0.029 -2.7992,0.073 -4.2207,0.1319 -0.1612,-2.3741 -0.3078,-4.7043 -0.4543,-6.9759 1.3776,-0.059 2.7552,-0.1026 4.1328,-0.1319 0.1758,2.2862 0.3517,4.6164 0.5422,6.9759 z"
                 style="fill:#d0d0d0;fill-opacity:1;fill-rule:nonzero;stroke:none"
                 id="path20982" />
              <path
                 d="m 7465.1837,8302.5332 c -1.3776,0.029 -2.7552,0.073 -4.1328,0.1319 -0.1466,-2.2863 -0.2785,-4.5285 -0.3957,-6.7268 1.3189,-0.044 2.6966,-0.088 4.0155,-0.1026 0.1612,2.1836 0.3371,4.4259 0.513,6.6975 z"
                 style="fill:#d3d3d3;fill-opacity:1;fill-rule:nonzero;stroke:none"
                 id="path20984" />
              <path
                 d="m 7464.6707,8295.8357 c -1.3189,0.015 -2.6966,0.059 -4.0155,0.1026 -0.1319,-2.1837 -0.2345,-4.3234 -0.3225,-6.4191 1.2751,-0.059 2.6234,-0.088 3.8837,-0.088 0.1319,2.081 0.2931,4.2207 0.4543,6.4044 z"
                 style="fill:#dcdcdc;fill-opacity:1;fill-rule:nonzero;stroke:none"
                 id="path20986" />
              <path
                 d="m 7464.2164,8289.4313 c -1.2603,0 -2.6086,0.029 -3.8837,0.088 -0.1025,-2.0811 -0.1758,-4.1182 -0.2344,-6.0966 1.2603,-0.059 2.4914,-0.088 3.7371,-0.073 0.1026,1.9638 0.2345,4.0009 0.381,6.082 z"
                 style="fill:#eaeaea;fill-opacity:1;fill-rule:nonzero;stroke:none"
                 id="path20988" />
              <path
                 d="m 7461.5052,8309.641 c -9.6872,0.3811 -19.7555,1.3923 -29.5453,3.4001 0.2785,-2.0371 0.4837,-4.1182 0.6888,-6.1846 9.2476,-2.4181 18.8615,-3.8104 28.4022,-4.1914 0.1465,2.2716 0.2931,4.6018 0.4543,6.9759 z"
                 style="fill:#cfcfcf;fill-opacity:1;fill-rule:nonzero;stroke:none"
                 id="path20990" />
              <path
                 d="m 7461.0509,8302.6651 c -9.5407,0.381 -19.1546,1.7733 -28.4022,4.1914 0.2052,-2.0664 0.3957,-4.1328 0.6302,-6.1406 8.7932,-2.7699 18.1434,-4.3673 27.3763,-4.7776 0.1172,2.1983 0.2491,4.4405 0.3957,6.7268 z"
                 style="fill:#d3d3d3;fill-opacity:1;fill-rule:nonzero;stroke:none"
                 id="path20992" />
              <path
                 d="m 7460.6552,8295.9383 c -4.6165,0.2051 -9.2622,0.7181 -13.8494,1.5095 0.029,-2.1397 0.088,-4.2354 0.1759,-6.2579 4.3966,-0.894 8.8812,-1.4509 13.351,-1.6707 0.088,2.0957 0.1906,4.2354 0.3225,6.4191 z"
                 style="fill:#dcdcdc;fill-opacity:1;fill-rule:nonzero;stroke:none"
                 id="path20994" />
              <path
                 d="m 7460.3327,8289.5192 c -4.4698,0.2198 -8.9544,0.7767 -13.351,1.6707 0.1026,-2.0371 0.2052,-3.9862 0.3664,-5.8768 4.0888,-1.0259 8.3682,-1.6707 12.7502,-1.8905 0.059,1.9784 0.1319,4.0155 0.2344,6.0966 z"
                 style="fill:#eaeaea;fill-opacity:1;fill-rule:nonzero;stroke:none"
                 id="path20996" />
              <path
                 d="m 7446.8058,8297.4478 c 0.073,-4.2794 0.2345,-8.3683 0.5423,-12.1347 -4.1035,1.0405 -8.0458,2.4475 -11.7683,4.2061 -1.2164,3.3268 -1.8319,7.1665 -2.3009,11.1967 4.3966,-1.3776 8.9251,-2.4767 13.5269,-3.2681 z"
                 style="fill:#dbdbdb;fill-opacity:1;fill-rule:nonzero;stroke:none"
                 id="path20998" />
              <path
                 d="m 7431.9599,8313.0411 c -4.9095,0.9965 -9.7311,2.2423 -14.4209,3.7811 0.5716,-1.8173 1.0699,-3.6785 1.5535,-5.5398 4.3966,-1.744 8.9251,-3.2095 13.5562,-4.4259 -0.2051,2.0664 -0.4103,4.1475 -0.6888,6.1846 z"
                 style="fill:#c9c9c9;fill-opacity:1;fill-rule:nonzero;stroke:none"
                 id="path21000" />
              <path
                 d="m 7432.6487,8306.8565 c -4.6311,1.2164 -9.1596,2.6819 -13.5562,4.4259 0.4836,-1.8612 0.9526,-3.7224 1.4802,-5.5397 4.0449,-1.9638 8.3096,-3.6492 12.7062,-5.0268 -0.2345,2.0078 -0.425,4.0742 -0.6302,6.1406 z"
                 style="fill:#cecece;fill-opacity:1;fill-rule:nonzero;stroke:none"
                 id="path21002" />
              <path
                 d="m 7417.539,8316.8222 c 1.1578,-3.6346 1.9785,-7.445 3.0337,-11.0795 -4.0449,1.9785 -7.8699,4.2354 -11.3872,6.7854 -2.0078,3.107 -3.7371,6.3898 -5.1734,9.8191 4.3087,-2.1689 8.8372,-3.9862 13.5269,-5.525 z"
                 style="fill:#c3c3c3;fill-opacity:1;fill-rule:nonzero;stroke:none"
                 id="path21004" />
              <path
                 d="m 7433.2789,8300.7159 c 0.469,-4.0302 1.0845,-7.8699 2.3009,-11.1967 -3.7371,1.7587 -7.2691,3.8544 -10.5372,6.2432 -2.1104,2.9018 -3.4147,6.3604 -4.4699,9.9803 4.0449,-1.9638 8.3096,-3.6492 12.7062,-5.0268 z"
                 style="fill:#d7d7d7;fill-opacity:1;fill-rule:nonzero;stroke:none"
                 id="path21006" />
              <path
                 d="m 7420.5727,8305.7427 c 1.0552,-3.6199 2.3595,-7.0785 4.4699,-9.9803 -3.2828,2.4035 -6.3165,5.1001 -9.057,8.0458 -2.5207,2.6966 -4.807,5.6277 -6.8001,8.7199 3.5173,-2.55 7.3423,-4.8069 11.3872,-6.7854 z"
                 style="fill:#cecece;fill-opacity:1;fill-rule:nonzero;stroke:none"
                 id="path21008" />
            </g>
          </g>
        </g>
      </g>
      <g
         id="g21010">
        <g
           id="g21012"
           clip-path="url(#clipPath21016)">
          <g
             id="g21018"
             clip-path="url(#clipPath21022)">
            <g
               id="g21024"
               transform="matrix(10,0,0,-10,-64410,91910)">
              <path
                 d="m 7310.9225,8305.6177 c 10.7066,-11.4971 17.048,-26.8437 16.6012,-43.4792 -9.6582,-0.086 -20.0898,0.2406 -30.8995,0.6874 0.8249,19.7977 0,42.7746 -5.2931,57.0901 7.4757,-3.523 14.1093,-8.4037 19.5914,-14.2983 z"
                 style="fill:#ababab;fill-opacity:1;fill-rule:nonzero;stroke:none"
                 id="path21026" />
              <path
                 d="m 7291.3311,8319.916 c -7.4585,3.5059 -15.7419,5.6541 -24.5237,6.0837 -0.051,-8.5584 -0.5843,-18.2682 -1.2545,-28.7169 9.9676,-0.3953 20.6397,-1.8217 30.7276,-3.8496 -0.7733,10.002 -2.3028,19.3165 -4.9494,26.4828 z"
                 style="fill:#ababab;fill-opacity:1;fill-rule:nonzero;stroke:none"
                 id="path21028" />
              <path
                 d="m 7296.2805,8293.4332 c -10.0879,2.0279 -20.76,3.4543 -30.7276,3.8496 -0.6703,-10.4488 -1.478,-21.6193 -2.0795,-33.0992 11.1706,-0.3609 22.3583,-0.9109 33.1508,-1.3577 0.4125,9.8988 0.4125,20.5882 -0.3437,30.6073 z"
                 style="fill:#b2b2b2;fill-opacity:1;fill-rule:nonzero;stroke:none"
                 id="path21030" />
              <path
                 d="m 7266.8074,8325.9997 c -2.2341,0.1031 -4.451,0.1031 -6.6508,0 -0.653,-8.4896 -1.7013,-18.165 -2.7324,-28.5623 2.5262,0.017 5.5509,-0.052 8.1287,-0.1546 0.6702,10.4487 1.203,20.1585 1.2545,28.7169 z"
                 style="fill:#ababab;fill-opacity:1;fill-rule:nonzero;stroke:none"
                 id="path21032" />
              <path
                 d="m 7265.5529,8297.2828 c -2.5778,0.1031 -5.6025,0.1718 -8.1287,0.1546 -1.0312,-10.4144 -2.0107,-21.5505 -2.5607,-33.0132 2.8528,-0.069 5.7228,-0.1375 8.6099,-0.2406 0.6015,11.4799 1.4092,22.6504 2.0795,33.0992 z"
                 style="fill:#aeaeae;fill-opacity:1;fill-rule:nonzero;stroke:none"
                 id="path21034" />
              <path
                 d="m 7327.5237,8262.1385 c 0,-0.4297 -0.017,-0.8593 -0.052,-1.2889 -9.6754,-0.2234 -20.1241,0 -30.9338,0.3781 0.017,0.4983 0.069,1.0998 0.086,1.5982 10.8097,-0.4468 21.2413,-0.7733 30.8995,-0.6874 z"
                 style="fill:#bdbdbd;fill-opacity:1;fill-rule:nonzero;stroke:none"
                 id="path21036" />
              <path
                 d="m 7296.6242,8262.8259 c -0.017,-0.4984 -0.069,-1.0999 -0.086,-1.5982 -10.8269,0.378 -21.9974,0.9108 -33.1508,1.2889 0.034,0.5499 0.052,1.117 0.086,1.667 11.1706,-0.3609 22.3583,-0.9109 33.1508,-1.3577 z"
                 style="fill:#bdbdbd;fill-opacity:1;fill-rule:nonzero;stroke:none"
                 id="path21038" />
              <path
                 d="m 7263.4734,8264.1836 c -2.8871,0.1031 -5.7571,0.1718 -8.6099,0.2406 -0.034,-0.55 -0.052,-1.0999 -0.069,-1.6499 2.8356,-0.069 5.7056,-0.1546 8.5927,-0.2577 0.034,0.5499 0.052,1.117 0.086,1.667 z"
                 style="fill:#b9b9b9;fill-opacity:1;fill-rule:nonzero;stroke:none"
                 id="path21040" />
              <path
                 d="m 7327.4721,8260.8496 c -0.3952,-8.4209 -2.4919,-16.3778 -5.9805,-23.5613 -9.3489,-2.9731 -19.2649,-4.7776 -29.3356,-5.7056 1.9763,8.5412 3.9011,20.0211 4.3823,29.645 10.8097,-0.3781 21.2584,-0.6015 30.9338,-0.3781 z"
                 style="fill:#bdbdbd;fill-opacity:1;fill-rule:nonzero;stroke:none"
                 id="path21042" />
              <path
                 d="m 7296.5383,8261.2277 c -0.4812,-9.6239 -2.406,-21.1038 -4.3823,-29.645 -10.0535,-0.9108 -20.2617,-0.9452 -30.1777,-0.3609 0.464,9.8988 0.8593,20.4679 1.4092,31.2948 11.1534,-0.3781 22.3239,-0.9109 33.1508,-1.2889 z"
                 style="fill:#bdbdbd;fill-opacity:1;fill-rule:nonzero;stroke:none"
                 id="path21044" />
              <path
                 d="m 7263.3875,8262.5166 c -2.8871,0.1031 -5.7571,0.189 -8.5927,0.2577 -0.4812,-10.7065 -0.5328,-21.1553 -0.4984,-30.9682 2.5263,-0.2406 5.1041,-0.4296 7.6819,-0.5843 0.464,9.8988 0.8593,20.4679 1.4092,31.2948 z"
                 style="fill:#b9b9b9;fill-opacity:1;fill-rule:nonzero;stroke:none"
                 id="path21046" />
              <path
                 d="m 7260.1566,8325.9997 c -7.4928,-0.3953 -14.6592,-2.0451 -21.2756,-4.7776 -3.2652,-6.8398 -6.2555,-15.57 -8.5927,-25.0564 8.9708,1.014 18.5259,1.4436 27.1359,1.2717 1.0311,10.3973 2.0794,20.0727 2.7324,28.5623 z"
                 style="fill:#ababab;fill-opacity:1;fill-rule:nonzero;stroke:none"
                 id="path21048" />
              <path
                 d="m 7257.4242,8297.4374 c -8.61,0.1719 -18.1651,-0.2577 -27.1359,-1.2717 -2.3201,-9.4692 -3.9527,-19.7117 -4.5198,-29.5934 9.3833,-0.6702 19.3852,-1.4092 29.095,-2.1481 0.55,11.4627 1.5295,22.5988 2.5607,33.0132 z"
                 style="fill:#adadad;fill-opacity:1;fill-rule:nonzero;stroke:none"
                 id="path21050" />
              <path
                 d="m 7238.881,8321.2221 c -6.5992,-2.7325 -12.6657,-6.5133 -17.9072,-11.1705 -5.8775,-5.19 -10.7581,-11.4627 -14.2984,-18.5088 6.2556,2.0623 14.6421,3.6262 23.6129,4.6229 2.3372,9.4864 5.3275,18.2166 8.5927,25.0564 z"
                 style="fill:#ababab;fill-opacity:1;fill-rule:nonzero;stroke:none"
                 id="path21052" />
              <path
                 d="m 7230.2883,8296.1657 c -2.3201,-9.4692 -3.9527,-19.7117 -4.5198,-29.5934 -4.6916,0.3437 -9.2286,0.6531 -13.5078,0.9624 0.5671,8.799 2.3201,18.1479 5.2072,26.7234 4.0042,0.7734 8.335,1.4092 12.8204,1.9076 z"
                 style="fill:#aeaeae;fill-opacity:1;fill-rule:nonzero;stroke:none"
                 id="path21054" />
              <path
                 d="m 7217.4679,8294.2581 c -2.8871,-8.5755 -4.6401,-17.9244 -5.2072,-26.7234 -4.2792,0.3094 -8.2834,0.5843 -11.9267,0.8421 0.5671,8.3006 2.7841,16.12 6.3414,23.166 3.1278,1.0312 6.7883,1.942 10.7925,2.7153 z"
                 style="fill:#aeaeae;fill-opacity:1;fill-rule:nonzero;stroke:none"
                 id="path21056" />
              <path
                 d="m 7254.8635,8264.4242 c -0.034,-0.5328 -0.052,-1.0655 -0.069,-1.6155 -9.7098,0.7562 -19.7118,1.5123 -29.095,2.2513 0.017,0.4812 0.051,1.0311 0.069,1.5123 9.3833,-0.6702 19.3852,-1.4092 29.095,-2.1481 z"
                 style="fill:#b8b8b8;fill-opacity:1;fill-rule:nonzero;stroke:none"
                 id="path21058" />
              <path
                 d="m 7225.7685,8266.5723 c -0.017,-0.4812 -0.052,-1.0311 -0.069,-1.5123 -4.6917,0.3609 -9.2458,0.7218 -13.525,1.0827 0.034,0.4296 0.069,0.9624 0.086,1.392 4.2792,-0.3093 8.8162,-0.6187 13.5078,-0.9624 z"
                 style="fill:#b8b8b8;fill-opacity:1;fill-rule:nonzero;stroke:none"
                 id="path21060" />
              <path
                 d="m 7212.2607,8267.5347 c -0.017,-0.4296 -0.051,-0.9624 -0.086,-1.392 -4.262,0.3437 -8.2834,0.6702 -11.9095,0.9796 0.017,0.4124 0.034,0.8421 0.069,1.2545 3.6433,-0.2578 7.6475,-0.5327 11.9267,-0.8421 z"
                 style="fill:#b4b4b4;fill-opacity:1;fill-rule:nonzero;stroke:none"
                 id="path21062" />
              <path
                 d="m 7254.7948,8262.8087 c -0.4812,-10.7065 -0.5328,-21.1725 -0.4984,-31.0026 -4.4167,0.3953 -8.988,0.9624 -13.5422,1.6842 -0.464,9.452 -1.0826,20.0898 -0.6186,30.4527 4.8806,-0.3781 9.7957,-0.7562 14.6592,-1.1343 z"
                 style="fill:#b9b9b9;fill-opacity:1;fill-rule:nonzero;stroke:none"
                 id="path21064" />
              <path
                 d="m 7240.1356,8263.943 c -0.464,-10.3629 0.1546,-21.0007 0.6186,-30.4527 -4.5541,0.7046 -9.1254,1.5467 -13.5077,2.5263 -1.4092,8.6614 -1.9764,19.4711 -1.5467,29.0434 4.6916,-0.3609 9.5379,-0.739 14.4358,-1.117 z"
                 style="fill:#b9b9b9;fill-opacity:1;fill-rule:nonzero;stroke:none"
                 id="path21066" />
              <path
                 d="m 7225.6998,8265.06 c -0.4297,-9.5723 0.1375,-20.382 1.5467,-29.0434 -4.3995,0.9623 -8.6443,2.0622 -12.5798,3.248 -2.3372,7.8366 -2.8872,18.0791 -2.4919,26.8781 4.2792,-0.3609 8.8333,-0.7218 13.525,-1.0827 z"
                 style="fill:#b9b9b9;fill-opacity:1;fill-rule:nonzero;stroke:none"
                 id="path21068" />
              <path
                 d="m 7212.1748,8266.1427 c -0.3953,-8.799 0.1547,-19.0415 2.4919,-26.8781 -3.9183,1.1858 -7.5272,2.4575 -10.6894,3.8152 -2.7668,7.4757 -4.1073,15.6044 -3.712,24.0425 3.6261,-0.3094 7.6475,-0.6359 11.9095,-0.9796 z"
                 style="fill:#b5b5b5;fill-opacity:1;fill-rule:nonzero;stroke:none"
                 id="path21070" />
              <path
                 d="m 7321.4916,8237.2883 c -9.3489,-2.9731 -19.2649,-4.7776 -29.3184,-5.7056 -0.9452,-4.5198 -1.667,-9.2458 -2.5778,-13.7312 9.1083,1.856 17.8041,4.8463 25.486,9.0052 2.4747,3.2481 4.6229,6.7367 6.4102,10.4316 z"
                 style="fill:#c7c7c7;fill-opacity:1;fill-rule:nonzero;stroke:none"
                 id="path21072" />
              <path
                 d="m 7315.0814,8226.8567 c -2.4747,-3.248 -5.2587,-6.2383 -8.3178,-8.9364 -3.0074,-2.6638 -6.2727,-5.0526 -9.7613,-7.1148 2.6294,2.9559 4.3823,6.7023 5.8774,10.6893 4.262,1.4952 8.3522,3.2825 12.2017,5.3619 z"
                 style="fill:#cbcbcb;fill-opacity:1;fill-rule:nonzero;stroke:none"
                 id="path21074" />
              <path
                 d="m 7302.8797,8221.4948 c -1.4951,-3.987 -3.248,-7.7334 -5.8774,-10.6893 -3.4887,-2.0623 -7.2007,-3.798 -11.0846,-5.19 1.6841,3.523 2.784,7.7678 3.6777,12.236 4.5541,0.928 9.0051,2.131 13.2843,3.6433 z"
                 style="fill:#d5d5d5;fill-opacity:1;fill-rule:nonzero;stroke:none"
                 id="path21076" />
              <path
                 d="m 7292.1732,8231.5827 c -10.0707,-0.9108 -20.2789,-0.9452 -30.1949,-0.3609 -0.086,-5.3275 -0.189,-10.4831 -0.3437,-15.3638 9.3489,-0.5156 18.8696,0.1547 27.9608,1.9935 0.9108,4.4854 1.6326,9.2114 2.5778,13.7312 z"
                 style="fill:#cdcdcd;fill-opacity:1;fill-rule:nonzero;stroke:none"
                 id="path21078" />
              <path
                 d="m 7289.5954,8217.8515 c -0.8937,-4.4682 -1.9936,-8.713 -3.6777,-12.236 -3.884,-1.3749 -7.9225,-2.3888 -12.1158,-3.0247 0.7562,4.0902 1.3748,8.6099 1.9076,13.3875 4.6916,0.3265 9.3489,0.9624 13.8859,1.8732 z"
                 style="fill:#dddddd;fill-opacity:1;fill-rule:nonzero;stroke:none"
                 id="path21080" />
              <path
                 d="m 7275.7095,8215.9783 c -0.5328,-4.7776 -1.1514,-9.2973 -1.9076,-13.3875 -4.1761,-0.6187 -8.4724,-0.8421 -12.8719,-0.6187 0.3093,4.3308 0.5327,8.988 0.7046,13.8859 4.6744,-0.2578 9.3833,-0.2234 14.0749,0.1203 z"
                 style="fill:#e1e1e1;fill-opacity:1;fill-rule:nonzero;stroke:none"
                 id="path21082" />
              <path
                 d="m 7261.9783,8231.2218 c -2.5778,0.1547 -5.1556,0.3437 -7.6819,0.5843 0.017,-5.3275 0.052,-10.4487 0.069,-15.3294 2.3544,-0.2922 4.8463,-0.4984 7.2695,-0.6187 0.1547,4.8807 0.2578,10.0363 0.3437,15.3638 z"
                 style="fill:#cfcfcf;fill-opacity:1;fill-rule:nonzero;stroke:none"
                 id="path21084" />
              <path
                 d="m 7261.6346,8215.858 c -2.4232,0.1203 -4.9151,0.3265 -7.2695,0.6187 0.034,-4.8979 0.017,-9.5208 -0.051,-13.8515 2.1653,-0.3265 4.3823,-0.5499 6.6164,-0.6531 0.3093,4.3308 0.5327,8.988 0.7046,13.8859 z"
                 style="fill:#e3e3e3;fill-opacity:1;fill-rule:nonzero;stroke:none"
                 id="path21086" />
              <path
                 d="m 7254.2964,8231.8061 c 0.017,-5.3275 0.052,-10.4487 0.069,-15.3294 -4.0557,0.4812 -8.2146,1.203 -12.3219,2.131 -0.55,4.7775 -1.0484,9.7785 -1.289,14.8826 4.5542,-0.7218 9.1255,-1.2889 13.5422,-1.6842 z"
                 style="fill:#d0d0d0;fill-opacity:1;fill-rule:nonzero;stroke:none"
                 id="path21088" />
              <path
                 d="m 7240.7542,8233.4903 c 0.2406,-5.1041 0.739,-10.1051 1.289,-14.8826 -4.1074,0.9452 -8.1803,2.0966 -12.0986,3.4371 -1.0655,4.5713 -1.9764,9.3832 -2.6981,13.9718 4.3823,-0.9796 8.9536,-1.8217 13.5077,-2.5263 z"
                 style="fill:#cdcdcd;fill-opacity:1;fill-rule:nonzero;stroke:none"
                 id="path21090" />
              <path
                 d="m 7254.3651,8216.4767 c 0.034,-4.8979 0.017,-9.5208 -0.051,-13.8515 -3.7121,0.5671 -7.3038,1.4264 -10.7753,2.5778 -0.3781,4.1245 -0.9452,8.6443 -1.4951,13.4047 4.1073,-0.928 8.2662,-1.6498 12.3219,-2.131 z"
                 style="fill:#e3e3e3;fill-opacity:1;fill-rule:nonzero;stroke:none"
                 id="path21092" />
              <path
                 d="m 7242.0432,8218.6077 c 0.5499,-4.7604 1.117,-9.2802 1.4951,-13.4047 -3.4543,1.1514 -6.7883,2.595 -9.9504,4.262 -1.3577,3.6605 -2.5778,8.0084 -3.6433,12.5798 3.9183,-1.3405 7.9912,-2.4919 12.0986,-3.4371 z"
                 style="fill:#e0e0e0;fill-opacity:1;fill-rule:nonzero;stroke:none"
                 id="path21094" />
              <path
                 d="m 7227.2465,8236.0166 c 0.7217,-4.5886 1.6326,-9.4005 2.6981,-13.9718 -3.9183,1.3404 -7.6647,2.8699 -11.1362,4.5369 -1.5983,4.1933 -2.9215,8.5928 -4.1417,12.6829 3.9355,-1.1858 8.1803,-2.2857 12.5798,-3.248 z"
                 style="fill:#c6c6c6;fill-opacity:1;fill-rule:nonzero;stroke:none"
                 id="path21096" />
              <path
                 d="m 7214.6667,8239.2646 c 1.2202,-4.0901 2.5434,-8.4896 4.1417,-12.6829 -3.4715,1.6842 -6.6508,3.5231 -9.4176,5.4822 -2.1654,3.4715 -3.9699,7.1663 -5.4135,11.0159 3.1622,-1.3577 6.7711,-2.6294 10.6894,-3.8152 z"
                 style="fill:#bbbbbb;fill-opacity:1;fill-rule:nonzero;stroke:none"
                 id="path21098" />
              <path
                 d="m 7229.9446,8222.0448 c 1.0655,-4.5714 2.2856,-8.9193 3.6433,-12.5798 -3.1621,1.6842 -6.1524,3.6261 -8.9536,5.7743 -2.3544,3.1965 -4.2277,7.1664 -5.8259,11.3424 3.4715,-1.667 7.2179,-3.1965 11.1362,-4.5369 z"
                 style="fill:#d6d6d6;fill-opacity:1;fill-rule:nonzero;stroke:none"
                 id="path21100" />
              <path
                 d="m 7218.8084,8226.5817 c 1.5982,-4.176 3.4715,-8.1459 5.8259,-11.3424 -2.8185,2.1654 -5.4306,4.537 -7.8194,7.1148 -2.7841,2.9903 -5.276,6.2383 -7.4241,9.7098 2.7668,-1.9591 5.9461,-3.798 9.4176,-5.4822 z"
                 style="fill:#c4c4c4;fill-opacity:1;fill-rule:nonzero;stroke:none"
                 id="path21102" />
            </g>
          </g>
        </g>
      </g>
      <g
         id="g21104">
        <g
           id="g21106"
           clip-path="url(#clipPath21110)">
          <g
             id="g21112"
             clip-path="url(#clipPath21116)">
            <g
               id="g21118"
               transform="matrix(10,0,0,-10,-64410,91910)">
              <path
                 d="m 7591.6093,8348.4906 c 0.7229,-1.4457 0.4776,-4.8405 -0.039,-15.6702 -4.1434,-0.2453 -9.8745,-0.6325 -15.7605,-0.852 0.129,7.6544 -0.4776,12.1335 -0.9423,17.813 6.2603,-0.2324 12.5207,-0.4518 16.7415,-1.2908 z"
                 style="fill:#ababab;fill-opacity:1;fill-rule:nonzero;stroke:none"
                 id="path21120" />
              <path
                 d="m 7574.8678,8349.7814 c 0.4647,-5.6795 1.0713,-10.1586 0.9423,-17.813 -5.886,-0.2323 -11.9399,-0.2968 -16.7158,0.1162 -0.2452,4.4661 -0.8003,9.1388 -1.0197,19.0521 4.2596,-0.8777 10.5328,-1.123 16.7932,-1.3553 z"
                 style="fill:#ababab;fill-opacity:1;fill-rule:nonzero;stroke:none"
                 id="path21122" />
              <path
                 d="m 7591.5706,8332.8204 c -4.1434,-0.2453 -9.8745,-0.6325 -15.7605,-0.852 -0.013,-2.6719 -0.1033,-5.3955 -0.426,-8.4159 5.5633,-0.142 10.9072,-0.052 14.8312,0.7745 0.7486,2.7235 1.2133,5.5633 1.3553,8.4934 z"
                 style="fill:#ababab;fill-opacity:1;fill-rule:nonzero;stroke:none"
                 id="path21124" />
              <path
                 d="m 7590.2153,8324.327 c -0.7616,-2.7107 -1.8071,-5.3052 -3.0979,-7.7448 -1.8587,-0.7099 -3.9756,-1.3295 -6.2862,-1.8716 1.2005,2.8913 2.0266,5.886 2.5816,8.8677 2.5171,0.1033 4.8405,0.3356 6.8025,0.7487 z"
                 style="fill:#ababab;fill-opacity:1;fill-rule:nonzero;stroke:none"
                 id="path21126" />
              <path
                 d="m 7583.4128,8323.5783 c -0.555,-2.9817 -1.3811,-5.9764 -2.5816,-8.8677 -2.2976,-0.5422 -4.7888,-0.9939 -7.3446,-1.3683 0.981,3.8724 1.5619,7.2026 1.8975,10.2102 2.7752,-0.065 5.5117,-0.077 8.0287,0.026 z"
                 style="fill:#b9b9b9;fill-opacity:1;fill-rule:nonzero;stroke:none"
                 id="path21128" />
              <path
                 d="m 7575.8101,8331.9684 c -0.013,-2.6719 -0.1033,-5.3955 -0.426,-8.4159 -2.7881,0.077 -5.6408,0.2194 -8.4031,0.3485 0.1808,2.9946 0.142,5.3955 0.052,7.8867 2.8526,-0.013 5.8344,0.065 8.7774,0.1807 z"
                 style="fill:#bcbcbc;fill-opacity:1;fill-rule:nonzero;stroke:none"
                 id="path21130" />
              <path
                 d="m 7567.0327,8331.7877 c 0.09,-2.4912 0.1291,-4.8921 -0.052,-7.8867 -2.7622,0.142 -5.4342,0.2711 -7.8867,0.3356 0.1678,3.085 0.1291,5.4342 0,7.848 2.388,-0.2065 5.0986,-0.2969 7.9384,-0.2969 z"
                 style="fill:#c3c3c3;fill-opacity:1;fill-rule:nonzero;stroke:none"
                 id="path21132" />
              <path
                 d="m 7575.3841,8323.5525 c -0.3356,-3.0076 -0.9165,-6.3378 -1.8975,-10.2102 -2.5557,-0.3743 -5.2019,-0.6712 -7.8351,-0.8777 0.7616,4.8663 1.1488,8.4547 1.3295,11.4364 2.7623,-0.1291 5.615,-0.2711 8.4031,-0.3485 z"
                 style="fill:#c3c3c3;fill-opacity:1;fill-rule:nonzero;stroke:none"
                 id="path21134" />
              <path
                 d="m 7566.981,8323.901 c -0.1807,-2.9817 -0.5679,-6.5701 -1.3295,-11.4364 -2.6203,-0.2194 -5.2277,-0.3485 -7.7318,-0.4131 0.6583,5.3052 1.0197,9.113 1.1746,12.1851 2.4525,-0.065 5.1245,-0.1936 7.8867,-0.3356 z"
                 style="fill:#cbcbcb;fill-opacity:1;fill-rule:nonzero;stroke:none"
                 id="path21136" />
              <path
                 d="m 7558.0746,8351.1367 c -2.0524,0.426 -5.4471,1.5877 -7.6157,1.6909 -0.6454,-6.0667 -1.0068,-9.8745 -1.2133,-13.1273 2.7365,-0.2582 6.8799,-2.0395 9.4873,-2.4396 -0.2453,3.3689 -0.5163,7.5511 -0.6583,13.876 z"
                 style="fill:#ababab;fill-opacity:1;fill-rule:nonzero;stroke:none"
                 id="path21138" />
              <path
                 d="m 7558.7329,8337.2607 c -2.6074,0.4001 -6.7508,2.1814 -9.4873,2.4396 -0.1936,-3.2657 -0.2324,-5.9764 -0.2453,-9.8488 3.2915,-0.4001 7.0348,-1.1359 10.2102,-1.5231 -0.013,3.0205 -0.2324,5.5633 -0.4776,8.9323 z"
                 style="fill:#bebebe;fill-opacity:1;fill-rule:nonzero;stroke:none"
                 id="path21140" />
              <path
                 d="m 7550.4589,8352.8276 c -11.1266,0.5551 -19.336,3.8595 -26.9517,-2.8784 -3.8078,-3.369 -6.8025,-3.9499 -8.8936,-5.047 9.4874,2.5686 22.2275,-4.1435 34.632,-5.2019 0.2065,3.2528 0.5679,7.0606 1.2133,13.1273 z"
                 style="fill:#ababab;fill-opacity:1;fill-rule:nonzero;stroke:none"
                 id="path21142" />
              <path
                 d="m 7549.2456,8339.7003 c -12.4045,1.0584 -25.1446,7.7705 -34.632,5.2019 -2.1039,-1.0972 -3.3044,-2.6978 -3.5625,-8.1191 11.3589,-1.6135 24.2668,-5.3439 37.9492,-6.9316 0.013,3.8724 0.052,6.5831 0.2453,9.8488 z"
                 style="fill:#bdbdbd;fill-opacity:1;fill-rule:nonzero;stroke:none"
                 id="path21144" />
              <path
                 d="m 7559.2105,8328.3284 c -3.1754,0.3872 -6.9187,1.123 -10.2102,1.5231 0.013,-4.6855 0.026,-9.9261 -0.2581,-17.7096 3.1108,-0.142 6.1829,-0.1678 9.1775,-0.09 0.981,7.9126 1.3037,12.4691 1.2908,16.2769 z"
                 style="fill:#cacaca;fill-opacity:1;fill-rule:nonzero;stroke:none"
                 id="path21146" />
              <path
                 d="m 7549.0003,8329.8515 c -13.6824,1.5877 -26.5903,5.3181 -37.9492,6.9316 -0.2711,-5.8602 0.7744,-11.488 2.9042,-16.5996 10.3393,-5.189 22.8341,-7.4995 34.7869,-8.0416 0.2839,7.7835 0.271,13.0241 0.2581,17.7096 z"
                 style="fill:#c9c9c9;fill-opacity:1;fill-rule:nonzero;stroke:none"
                 id="path21148" />
              <path
                 d="m 7587.1174,8316.5822 c -2.2073,-4.1434 -5.1503,-7.8351 -8.6612,-10.9459 -1.5232,-1.3553 -3.1754,-2.5945 -4.905,-3.7046 3.0462,3.369 5.3051,8.3514 7.28,12.7789 2.3106,0.5421 4.4275,1.1617 6.2862,1.8716 z"
                 style="fill:#ababab;fill-opacity:1;fill-rule:nonzero;stroke:none"
                 id="path21150" />
              <path
                 d="m 7580.8312,8314.7106 c -1.9749,-4.4275 -4.2338,-9.4099 -7.28,-12.7789 -1.7297,-1.1101 -3.5626,-2.104 -5.4601,-2.943 2.0266,3.9628 3.924,9.3066 5.3955,14.3536 2.5558,0.3744 5.047,0.8261 7.3446,1.3683 z"
                 style="fill:#bbbbbb;fill-opacity:1;fill-rule:nonzero;stroke:none"
                 id="path21152" />
              <path
                 d="m 7573.4866,8313.3423 c -1.4715,-5.047 -3.3689,-10.3908 -5.3955,-14.3536 -1.9103,-0.839 -3.8853,-1.5489 -5.9376,-2.0911 1.0197,4.5565 2.5299,9.8875 3.498,15.567 2.6332,0.2065 5.2794,0.5034 7.8351,0.8777 z"
                 style="fill:#c6c6c6;fill-opacity:1;fill-rule:nonzero;stroke:none"
                 id="path21154" />
              <path
                 d="m 7565.6515,8312.4646 c -0.9681,-5.6795 -2.4783,-11.0105 -3.498,-15.567 -2.0395,-0.555 -4.1564,-0.9422 -6.312,-1.1746 0.568,4.8405 1.3424,10.3651 2.0782,16.3285 2.5041,0.065 5.1115,0.1937 7.7318,0.4131 z"
                 style="fill:#cdcdcd;fill-opacity:1;fill-rule:nonzero;stroke:none"
                 id="path21156" />
              <path
                 d="m 7557.9197,8312.0515 c -2.388,-0.065 -4.8405,-0.065 -7.3188,0.013 -0.5421,-6.0021 -0.981,-11.5913 -1.1488,-16.5092 2.1685,-0.1161 4.2983,-0.052 6.3894,0.1678 0.568,4.8405 1.3424,10.3651 2.0782,16.3285 z"
                 style="fill:#d0d0d0;fill-opacity:1;fill-rule:nonzero;stroke:none"
                 id="path21158" />
              <path
                 d="m 7550.6009,8312.0644 c -12.4949,0.3873 -25.7642,2.6591 -36.6456,8.1191 1.7942,-4.337 4.3758,-8.3127 7.577,-11.7333 6.9444,-7.4607 16.7932,-12.3528 27.9198,-12.895 0.1678,4.9179 0.6067,10.5071 1.1488,16.5092 z"
                 style="fill:#cfcfcf;fill-opacity:1;fill-rule:nonzero;stroke:none"
                 id="path21160" />
            </g>
          </g>
        </g>
      </g>
      <g
         id="g21162">
        <g
           id="g21164"
           clip-path="url(#clipPath21168)">
          <g
             id="g21170"
             clip-path="url(#clipPath21174)">
            <g
               id="g21176"
               transform="matrix(10,0,0,-10,-64410,91910)">
              <path
                 d="m 7226.3138,8348.4951 c -3.4731,3.729 -6.9645,3.9849 -10.9678,3.3634 1.8097,-4.7892 2.6323,-9.3409 2.8882,-13.9656 5.5387,1.0054 10.7301,1.5538 15.3366,-0.5666 -1.4259,3.9301 -3.7839,7.4397 -7.257,11.1688 z"
                 style="fill:#ababab;fill-opacity:1;fill-rule:nonzero;stroke:none"
                 id="path21178" />
              <path
                 d="m 7233.5708,8337.3263 c -4.6065,2.1204 -9.7979,1.572 -15.3366,0.5666 0.2559,-4.6247 -0.037,-9.3225 -0.4387,-14.4043 5.9226,0.3656 11.6806,0.6398 17.4204,0.128 0.2559,5.4107 -0.2193,9.7796 -1.6451,13.7097 z"
                 style="fill:#a6a6a6;fill-opacity:1;fill-rule:nonzero;stroke:none"
                 id="path21180" />
              <path
                 d="m 7215.346,8351.8585 c -4.0032,-0.6215 -8.5182,-2.1022 -14.0752,-1.828 0.128,-5.8494 -0.055,-10.2548 -0.4204,-14.3677 5.9774,-0.2559 11.8451,1.2065 17.3838,2.2301 -0.2559,4.6247 -1.0785,9.1764 -2.8882,13.9656 z"
                 style="fill:#ababab;fill-opacity:1;fill-rule:nonzero;stroke:none"
                 id="path21182" />
              <path
                 d="m 7218.2342,8337.8929 c -5.5387,-1.0236 -11.4064,-2.486 -17.3838,-2.2301 -0.3473,-4.1129 -0.8775,-7.9333 -1.4258,-12.6677 6.3795,-0.2742 12.4666,0.1462 18.3709,0.4935 0.4022,5.0818 0.6946,9.7796 0.4387,14.4043 z"
                 style="fill:#b2b2b2;fill-opacity:1;fill-rule:nonzero;stroke:none"
                 id="path21184" />
              <path
                 d="m 7201.2708,8350.0305 c -2.5043,0.128 -9.3043,-0.201 -11.6989,-0.5118 -0.8774,-6.343 -1.7731,-10.7484 -2.5591,-14.6053 3.3634,0.018 10.4193,0.9139 13.8376,0.7494 0.3656,4.1129 0.5484,8.5183 0.4204,14.3677 z"
                 style="fill:#ababab;fill-opacity:1;fill-rule:nonzero;stroke:none"
                 id="path21186" />
              <path
                 d="m 7200.8504,8335.6628 c -3.4183,0.1645 -10.4742,-0.7312 -13.8376,-0.7494 -0.7861,-3.857 -1.4441,-7.1656 -1.8463,-11.3334 4.314,-0.2559 9.9075,-0.4204 14.2581,-0.5849 0.5483,4.7344 1.0785,8.5548 1.4258,12.6677 z"
                 style="fill:#bdbdbd;fill-opacity:1;fill-rule:nonzero;stroke:none"
                 id="path21188" />
              <path
                 d="m 7235.2159,8323.6166 c -0.1828,-3.857 -0.9322,-7.5677 -2.157,-11.0408 -5.7946,-0.8957 -11.6075,-1.5172 -17.4387,-1.8828 0.8409,4.186 1.8828,9.0301 2.1753,12.7956 5.9226,0.3656 11.6806,0.6398 17.4204,0.128 z"
                 style="fill:#a3a3a3;fill-opacity:1;fill-rule:nonzero;stroke:none"
                 id="path21190" />
              <path
                 d="m 7217.7955,8323.4886 c -0.2925,-3.7655 -1.3344,-8.6096 -2.1753,-12.7956 -5.8129,-0.3656 -11.6623,-0.4753 -17.4935,-0.3291 0.4022,4.8989 0.8774,8.9387 1.2979,12.6312 6.3795,-0.2742 12.4666,0.1462 18.3709,0.4935 z"
                 style="fill:#bababa;fill-opacity:1;fill-rule:nonzero;stroke:none"
                 id="path21192" />
              <path
                 d="m 7199.4246,8322.9951 c -4.3506,0.1645 -9.9441,0.329 -14.2581,0.5849 -0.3107,-3.3451 -0.4753,-7.2569 -0.3656,-12.4483 4.442,-0.4022 8.8839,-0.6581 13.3258,-0.7678 0.4022,4.8989 0.8774,8.9387 1.2979,12.6312 z"
                 style="fill:#c9c9c9;fill-opacity:1;fill-rule:nonzero;stroke:none"
                 id="path21194" />
              <path
                 d="m 7189.5719,8349.5187 c -4.1129,-0.5301 -9.5785,0.5118 -14.7516,1.0419 -1.0968,-3.4365 -2.3581,-7.1473 -3.4366,-11.1505 5.4108,-1.901 11.114,-4.0763 15.757,-3.8387 0.7495,3.7108 1.6086,7.9699 2.4312,13.9473 z"
                 style="fill:#ababab;fill-opacity:1;fill-rule:nonzero;stroke:none"
                 id="path21196" />
              <path
                 d="m 7187.1407,8335.5714 c -0.7495,-3.7107 -1.3892,-6.8548 -1.8279,-10.6204 -2.5775,0.037 -5.3011,0.2376 -8.043,0.5301 0.4021,4.0215 1.2795,7.4763 2.2849,11.2054 2.6871,-0.7495 5.2645,-1.243 7.586,-1.1151 z"
                 style="fill:#bfbfbf;fill-opacity:1;fill-rule:nonzero;stroke:none"
                 id="path21198" />
              <path
                 d="m 7179.5547,8336.6865 c -1.0054,-3.7291 -1.8828,-7.1839 -2.2849,-11.2054 -2.742,0.2925 -5.5022,0.6764 -8.2076,1.0419 0.3473,4.5882 1.243,8.8839 2.3215,12.8871 2.7054,-0.9505 5.4839,-1.9742 8.171,-2.7236 z"
                 style="fill:#bdbdbd;fill-opacity:1;fill-rule:nonzero;stroke:none"
                 id="path21200" />
              <path
                 d="m 7174.8203,8350.5606 c -5.1731,0.5302 -10.0538,0.5484 -12.9968,-2.0655 -1.3526,-0.8775 -3.0161,-3.4 -4.3871,-7.0559 3.4366,1.444 8.5366,-0.1463 13.9473,-2.0291 1.0785,4.0032 2.3398,7.714 3.4366,11.1505 z"
                 style="fill:#ababab;fill-opacity:1;fill-rule:nonzero;stroke:none"
                 id="path21202" />
              <path
                 d="m 7171.3837,8339.4101 c -5.4107,1.8828 -10.5107,3.4731 -13.9473,2.0291 -1.3709,-3.656 -2.4677,-8.4452 -2.7419,-13.8559 3.9118,0.2742 8.9936,-0.3474 14.3677,-1.0603 0.3473,4.5882 1.243,8.8839 2.3215,12.8871 z"
                 style="fill:#b7b7b7;fill-opacity:1;fill-rule:nonzero;stroke:none"
                 id="path21204" />
              <path
                 d="m 7185.3128,8324.951 c -0.4205,-3.6559 -0.6216,-7.8968 -0.5119,-13.8193 -2.5774,0.2376 -5.1914,0.5666 -7.8053,0.9322 -0.2194,5.557 -0.1097,9.7247 0.2742,13.4172 2.7419,-0.2925 5.4655,-0.4935 8.043,-0.5301 z"
                 style="fill:#cccccc;fill-opacity:1;fill-rule:nonzero;stroke:none"
                 id="path21206" />
              <path
                 d="m 7177.2698,8325.4811 c -0.3839,-3.6925 -0.4936,-7.8602 -0.2742,-13.4172 -2.5957,0.3839 -5.1732,0.8226 -7.6592,1.2979 -0.5118,4.7527 -0.5666,9.3957 -0.2742,13.1612 2.7054,-0.3655 5.4656,-0.7494 8.2076,-1.0419 z"
                 style="fill:#c9c9c9;fill-opacity:1;fill-rule:nonzero;stroke:none"
                 id="path21208" />
              <path
                 d="m 7169.0622,8326.523 c -0.2924,-3.7655 -0.2376,-8.4085 0.2742,-13.1612 -2.5043,0.4752 -4.9172,0.9871 -7.1838,1.4989 -0.7678,3.9301 -1.042,8.7376 -0.8226,12.558 2.4312,-0.201 5.0451,-0.5483 7.7322,-0.8957 z"
                 style="fill:#c2c2c2;fill-opacity:1;fill-rule:nonzero;stroke:none"
                 id="path21210" />
              <path
                 d="m 7161.33,8327.4187 c -0.2194,-3.8204 0.055,-8.6279 0.8226,-12.558 -2.2667,0.5118 -4.4054,1.0237 -6.343,1.5172 -0.8957,3.5828 -1.2796,7.3484 -1.1151,11.2054 1.9559,0.1462 4.2043,0.055 6.6355,-0.1646 z"
                 style="fill:#b7b7b7;fill-opacity:1;fill-rule:nonzero;stroke:none"
                 id="path21212" />
              <path
                 d="m 7233.0589,8312.5758 c -6.5075,-1.0054 -13.0333,-1.6635 -19.5774,-2.0108 -0.5849,-3.8021 -1.0419,-7.8602 -1.7,-11.6989 5.9409,1.0602 11.6624,2.7236 16.8172,4.9172 1.828,2.7054 3.3452,5.6484 4.4602,8.7925 z"
                 style="fill:#a2a2a2;fill-opacity:1;fill-rule:nonzero;stroke:none"
                 id="path21214" />
              <path
                 d="m 7228.5987,8303.7833 c -5.1548,-2.1936 -10.8763,-3.857 -16.8172,-4.9172 -0.658,-3.8204 -1.5172,-7.4032 -2.8699,-10.2 4.9172,1.7366 9.3957,4.4054 13.1979,7.7688 2.4494,2.1753 4.643,4.643 6.4892,7.3484 z"
                 style="fill:#a4a4a4;fill-opacity:1;fill-rule:nonzero;stroke:none"
                 id="path21216" />
              <path
                 d="m 7213.4815,8310.565 c -1.1699,-7.6043 -1.8645,-16.2871 -4.5699,-21.8989 -4.8989,-1.7548 -10.2548,-2.5957 -15.8118,-2.3215 0.5119,6.9097 0.6033,15.2451 0.7129,24.1656 6.5624,-0.2925 13.1248,-0.2742 19.6688,0.055 z"
                 style="fill:#c0c0c0;fill-opacity:1;fill-rule:nonzero;stroke:none"
                 id="path21218" />
              <path
                 d="m 7193.8127,8310.5102 c -3.0161,0.1462 -6.0139,0.3473 -9.0118,0.6215 0.1645,-8.7925 0.6946,-17.0183 0.9871,-23.7634 2.3581,-0.5484 4.8075,-0.8957 7.3118,-1.0237 0.5119,6.9097 0.6033,15.2451 0.7129,24.1656 z"
                 style="fill:#cecece;fill-opacity:1;fill-rule:nonzero;stroke:none"
                 id="path21220" />
              <path
                 d="m 7184.8009,8311.1317 c 0.1645,-8.7925 0.6946,-17.0183 0.9871,-23.7634 -2.029,0.4569 -3.9849,1.0785 -5.886,1.8279 -0.9322,6.4344 -2.5043,14.4409 -2.9064,22.8677 2.6139,-0.3656 5.2279,-0.6946 7.8053,-0.9322 z"
                 style="fill:#d0d0d0;fill-opacity:1;fill-rule:nonzero;stroke:none"
                 id="path21222" />
              <path
                 d="m 7176.9956,8312.0639 c 0.4021,-8.4268 1.9742,-16.4333 2.9064,-22.8677 -1.8828,0.7495 -3.7107,1.6269 -5.429,2.6323 -2.3946,5.7763 -4.2409,13.9107 -5.1366,21.5333 2.486,-0.4753 5.0635,-0.914 7.6592,-1.2979 z"
                 style="fill:#cdcdcd;fill-opacity:1;fill-rule:nonzero;stroke:none"
                 id="path21224" />
              <path
                 d="m 7169.3364,8313.3618 c 0.8957,-7.6226 2.742,-15.757 5.1366,-21.5333 -1.7366,1.0236 -3.3817,2.1387 -4.9355,3.3817 -3.8204,5.1183 -5.9957,12.8139 -7.3849,19.6505 2.2666,-0.5118 4.6795,-1.0237 7.1838,-1.4989 z"
                 style="fill:#c6c6c6;fill-opacity:1;fill-rule:nonzero;stroke:none"
                 id="path21226" />
              <path
                 d="m 7162.1526,8314.8607 c 1.3892,-6.8366 3.5645,-14.5322 7.3849,-19.6505 -1.5538,1.243 -3.0161,2.5957 -4.3505,4.0398 -4.4785,4.8075 -7.7506,10.6752 -9.3774,17.1279 1.9376,-0.4935 4.0763,-1.0054 6.343,-1.5172 z"
                 style="fill:#bbbbbb;fill-opacity:1;fill-rule:nonzero;stroke:none"
                 id="path21228" />
            </g>
          </g>
        </g>
      </g>
      <g
         id="g21230">
        <g
           id="g21232"
           clip-path="url(#clipPath21236)">
          <g
             id="g21238"
             clip-path="url(#clipPath21242)">
            <g
               id="g21244"
               transform="matrix(10,0,0,-10,-64410,91910)">
              <path
                 d="m 7316.9076,8357.2586 c -8.1863,-1.1495 -14.8049,-2.421 -21.3539,-3.3093 2.2294,-7.5941 4.4937,-7.7334 6.1658,-7.1238 9.2313,3.5358 18.271,7.507 26.5966,9.5448 -2.5604,-1.8985 -6.4619,-4.424 -11.4085,0.8883 z"
                 style="fill:#ababab;fill-opacity:1;fill-rule:nonzero;stroke:none"
                 id="path21246" />
              <path
                 d="m 7328.3161,8356.3703 c -8.3256,-2.0378 -17.3653,-6.009 -26.5966,-9.5448 1.6546,0.6096 2.6997,1.9682 2.4733,-2.63 9.7886,2.1249 19.1244,4.7898 27.5894,7.7159 0.3658,7.6812 -0.8883,6.3749 -3.4661,4.4589 z"
                 style="fill:#ababab;fill-opacity:1;fill-rule:nonzero;stroke:none"
                 id="path21248" />
              <path
                 d="m 7295.5537,8353.9493 c -6.5665,-0.8883 -13.0458,-1.376 -20.936,-0.9928 -0.4702,-9.8932 -0.5922,-12.471 -0.627,-12.9587 9.0571,0.2265 18.48,3.2919 27.7288,6.8277 -1.6721,-0.6096 -3.9364,-0.4703 -6.1658,7.1238 z"
                 style="fill:#ababab;fill-opacity:1;fill-rule:nonzero;stroke:none"
                 id="path21250" />
              <path
                 d="m 7301.7195,8346.8255 c 1.6546,0.6096 2.6997,1.9682 2.4733,-2.63 -4.8944,-1.0799 -9.8932,-2.0031 -14.9617,-2.7694 0.1219,2.4733 -0.5922,0.7663 -1.4457,0.7489 4.6505,1.2367 9.301,2.8913 13.9341,4.6505 z"
                 style="fill:#b8b8b8;fill-opacity:1;fill-rule:nonzero;stroke:none"
                 id="path21252" />
              <path
                 d="m 7287.7854,8342.175 c 0.8535,0.017 1.5676,1.7244 1.4457,-0.7489 -5.0685,-0.7838 -10.1893,-1.376 -15.3101,-1.794 0.087,1.5153 0.017,-0.1046 0.07,0.3657 4.5286,0.1219 9.1442,0.9406 13.7947,2.1772 z"
                 style="fill:#bebebe;fill-opacity:1;fill-rule:nonzero;stroke:none"
                 id="path21254" />
              <path
                 d="m 7331.7822,8351.9114 c -0.331,-7.0541 -1.9856,-13.725 -4.7376,-19.8211 -3.4138,-0.9406 -7.298,-1.7592 -11.513,-2.4733 2.3862,6.3922 2.6649,12.0007 2.961,18.1316 4.6156,1.2889 9.0571,2.6998 13.2896,4.1628 z"
                 style="fill:#ababab;fill-opacity:1;fill-rule:nonzero;stroke:none"
                 id="path21256" />
              <path
                 d="m 7318.4926,8347.7486 c -0.2961,-6.1309 -0.5748,-11.7394 -2.961,-18.1316 -4.1976,-0.6967 -8.7088,-1.2715 -13.3767,-1.707 1.5502,7.0193 1.8289,12.1575 2.0379,16.2855 4.8943,1.0624 9.6667,2.2642 14.2998,3.5531 z"
                 style="fill:#b8b8b8;fill-opacity:1;fill-rule:nonzero;stroke:none"
                 id="path21258" />
              <path
                 d="m 7304.1928,8344.1955 c -0.209,-4.128 -0.4877,-9.2662 -2.0379,-16.2855 -4.6853,-0.418 -9.5274,-0.7141 -14.3869,-0.8186 0.749,7.6463 1.3586,12.2097 1.4631,14.3347 5.0685,0.7663 10.0673,1.6895 14.9617,2.7694 z"
                 style="fill:#c3c3c3;fill-opacity:1;fill-rule:nonzero;stroke:none"
                 id="path21260" />
              <path
                 d="m 7289.2311,8341.4261 c -0.1045,-2.125 -0.7141,-6.6884 -1.4631,-14.3347 -4.8421,-0.1219 -9.719,-0.07 -14.4566,0.1568 0.3832,7.9424 0.54,11.182 0.6096,12.3839 5.1208,0.418 10.2416,1.0102 15.3101,1.794 z"
                 style="fill:#cacaca;fill-opacity:1;fill-rule:nonzero;stroke:none"
                 id="path21262" />
              <path
                 d="m 7274.6177,8352.9565 c -7.8901,0.3832 -12.4709,2.1772 -16.4247,2.6823 -2.961,-7.9076 -6.2181,-8.1166 -8.7959,-7.7508 7.4373,-3.3094 15.5365,-7.1935 24.5762,-7.9773 0.017,0.087 0.1219,2.0379 0.6444,13.0458 z"
                 style="fill:#ababab;fill-opacity:1;fill-rule:nonzero;stroke:none"
                 id="path21264" />
              <path
                 d="m 7273.9733,8339.9107 c -9.0397,0.7838 -17.1389,4.6679 -24.5762,7.9773 -2.5778,0.3657 -4.4937,1.2889 -4.755,-4.3196 9.1617,-2.2294 19.02,-4.3195 29.1918,-5.4865 0.1916,3.5358 0.122,1.7417 0.1394,1.8288 z"
                 style="fill:#c2c2c2;fill-opacity:1;fill-rule:nonzero;stroke:none"
                 id="path21266" />
              <path
                 d="m 7258.193,8355.6388 c -3.9538,0.4877 -7.2806,-0.3135 -12.6974,-5.1034 -5.4169,-4.7898 -11.7046,-1.0973 -16.7557,1.8637 6.4271,1.5328 13.2199,-1.2018 20.6572,-4.5111 2.5778,-0.3658 5.8349,-0.1568 8.7959,7.7508 z"
                 style="fill:#ababab;fill-opacity:1;fill-rule:nonzero;stroke:none"
                 id="path21268" />
              <path
                 d="m 7249.3971,8347.888 c -7.4373,3.3093 -14.2301,6.0439 -20.6572,4.5111 -5.0337,2.961 -8.8133,5.2079 -9.1791,-2.4907 7.4199,-1.7417 15.9023,-4.1105 25.0813,-6.34 0.2613,5.6085 2.1772,4.6853 4.755,4.3196 z"
                 style="fill:#bdbdbd;fill-opacity:1;fill-rule:nonzero;stroke:none"
                 id="path21270" />
              <path
                 d="m 7273.8339,8338.0819 c -0.087,-1.8463 -0.2438,-5.1208 -0.5225,-10.8337 -9.4577,0.4702 -19.3857,1.7243 -28.617,3.5009 -0.9406,6.0265 -0.2613,8.3778 -0.052,12.8193 9.1617,-2.2294 19.02,-4.3195 29.1918,-5.4865 z"
                 style="fill:#cecece;fill-opacity:1;fill-rule:nonzero;stroke:none"
                 id="path21272" />
              <path
                 d="m 7244.6421,8343.5684 c -0.209,-4.4415 -0.8883,-6.7928 0.052,-12.8193 -9.2313,1.7766 -17.7659,4.0583 -24.402,6.6013 -2.1424,6.3225 -1.0625,5.5039 -0.7316,12.558 7.4199,-1.7417 15.9023,-4.1105 25.0813,-6.34 z"
                 style="fill:#c8c8c8;fill-opacity:1;fill-rule:nonzero;stroke:none"
                 id="path21274" />
              <path
                 d="m 7327.0446,8332.0903 c -3.2397,-7.1935 -7.9947,-13.5857 -13.8644,-18.7762 -2.7171,-2.3862 -5.6433,-4.5285 -8.7784,-6.3748 4.9988,5.6781 8.3256,14.9965 11.1298,22.6777 4.215,0.7141 8.0992,1.5327 11.513,2.4733 z"
                 style="fill:#ababab;fill-opacity:1;fill-rule:nonzero;stroke:none"
                 id="path21276" />
              <path
                 d="m 7315.5316,8329.617 c -2.8042,-7.6812 -6.131,-16.9996 -11.1298,-22.6777 -3.1526,-1.8637 -6.4794,-3.4313 -9.9629,-4.6679 3.1352,6.8102 5.8349,16.895 7.716,25.6386 4.6679,0.4355 9.1791,1.0103 13.3767,1.707 z"
                 style="fill:#bbbbbb;fill-opacity:1;fill-rule:nonzero;stroke:none"
                 id="path21278" />
              <path
                 d="m 7302.1549,8327.91 c -1.8811,-8.7436 -4.5808,-18.8284 -7.716,-25.6386 -3.4835,-1.2367 -7.1238,-2.1598 -10.886,-2.7172 1.2541,7.9076 3.3094,17.7137 4.2151,27.5372 4.8595,0.1045 9.7016,0.4006 14.3869,0.8186 z"
                 style="fill:#c6c6c6;fill-opacity:1;fill-rule:nonzero;stroke:none"
                 id="path21280" />
              <path
                 d="m 7287.768,8327.0914 c -0.9057,-9.8235 -2.961,-19.6296 -4.2151,-27.5372 -3.7621,-0.5573 -7.6288,-0.7663 -11.5652,-0.5747 0.3832,8.4301 0.836,17.9749 1.3237,28.2687 4.7376,-0.2265 9.6145,-0.2787 14.4566,-0.1568 z"
                 style="fill:#cdcdcd;fill-opacity:1;fill-rule:nonzero;stroke:none"
                 id="path21282" />
              <path
                 d="m 7273.3114,8327.2482 c -0.4877,-10.2938 -0.9405,-19.8386 -1.3237,-28.2687 -7.9076,0.4006 -15.3449,2.3339 -22.0506,5.4865 -2.4733,7.0715 -4.2151,17.3827 -5.2427,26.2831 9.2313,-1.7766 19.1593,-3.0307 28.617,-3.5009 z"
                 style="fill:#d0d0d0;fill-opacity:1;fill-rule:nonzero;stroke:none"
                 id="path21284" />
              <path
                 d="m 7244.6944,8330.7491 c 1.0276,-8.9004 2.7694,-19.2116 5.2427,-26.2831 -6.7058,3.1526 -12.68,7.5418 -17.6092,12.8367 -5.3472,5.7478 -9.4752,12.5581 -12.0355,20.0477 6.6361,-2.543 15.1707,-4.8247 24.402,-6.6013 z"
                 style="fill:#cacaca;fill-opacity:1;fill-rule:nonzero;stroke:none"
                 id="path21286" />
            </g>
          </g>
        </g>
      </g>
      <g
         id="g21288">
        <g
           id="g21290"
           clip-path="url(#clipPath21294)">
          <path
             d="m 11506.2,8424.9 c -15,-35.7 -962.1,-100.9 -2148.96,-100.9 -1186.84,0 -2148.99,45.2 -2148.99,100.9 0,23.1 463.13,110.7 572.21,62.8 73.97,64.8 977.41,78.4 1115.16,-4 115.57,31.3 533.97,34.2 693.6,12 85.09,24 698.68,74.6 1117.28,3 703.4,11.3 804.9,-61.3 799.7,-73.8"
             style="fill:url(#linearGradient21302);fill-opacity:1;fill-rule:nonzero;stroke:none"
             id="path21304" />
        </g>
      </g>
    </g>
  </g>
</svg>
