<?xml version="1.0" encoding="UTF-8" standalone="no"?>
<!-- Created with Inkscape (http://www.inkscape.org/) -->

<svg
   version="1.1"
   id="svg2"
   width="291.7334"
   height="291.7345"
   viewBox="0 0 291.7334 291.73449"
   xmlns="http://www.w3.org/2000/svg"
   xmlns:svg="http://www.w3.org/2000/svg">
  <defs
     id="defs6">
    <clipPath
       clipPathUnits="userSpaceOnUse"
       id="clipPath16716">
      <path
         d="m 30573.4,4130.9 c 76.3,-75.8 163.6,-140.5 259.4,-191.4 95,-50.4 198.2,-87.4 307.2,-108.2 67,-12.8 136.2,-19.5 207,-19.5 174.2,0 338.9,40.6 485.2,112.9 108.2,53.4 206.3,124.1 290.7,208.5 152.4,152.4 260.1,349.3 302,569.6 12.8,66.8 19.4,135.8 19.4,206.4 0,219.1 -64.2,423.2 -174.8,594.5 -41.8,64.6 -90.2,124.7 -144.3,179 -149.7,150.6 -342.8,258.1 -559.1,301.9 -32.3,6.5 -65.2,11.7 -98.6,15.3 66.1,-124.9 103.6,-267.3 103.6,-418.5 0,-246.8 -99.8,-470.3 -261.1,-632.3 -129.9,-130.5 -299.6,-221.1 -489.4,-252.2 -47.5,-7.8 -96.2,-11.8 -145.8,-11.8 -151.2,0 -293.6,37.4 -418.5,103.5 3.8,-34.9 9.2,-69.4 16.2,-103.3 24.7,-118.9 68.6,-230.8 128.3,-332.2 48,-81.4 106.1,-156 172.6,-222.2 z"
         id="path16714" />
    </clipPath>
    <clipPath
       clipPathUnits="userSpaceOnUse"
       id="clipPath16722">
      <path
         d="m 30573.4,4130.9 c 76.3,-75.8 163.6,-140.5 259.4,-191.4 95,-50.4 198.2,-87.4 307.2,-108.2 67,-12.8 136.2,-19.5 207,-19.5 174.2,0 338.9,40.6 485.2,112.9 108.2,53.4 206.3,124.1 290.7,208.5 152.4,152.4 260.1,349.3 302,569.6 12.8,66.8 19.4,135.8 19.4,206.4 0,219.1 -64.2,423.2 -174.8,594.5 -41.8,64.6 -90.2,124.7 -144.3,179 -149.7,150.6 -342.8,258.1 -559.1,301.9 -32.3,6.5 -65.2,11.7 -98.6,15.3 66.1,-124.9 103.6,-267.3 103.6,-418.5 0,-246.8 -99.8,-470.3 -261.1,-632.3 -129.9,-130.5 -299.6,-221.1 -489.4,-252.2 -47.5,-7.8 -96.2,-11.8 -145.8,-11.8 -151.2,0 -293.6,37.4 -418.5,103.5 3.8,-34.9 9.2,-69.4 16.2,-103.3 24.7,-118.9 68.6,-230.8 128.3,-332.2 48,-81.4 106.1,-156 172.6,-222.2"
         id="path16720" />
    </clipPath>
  </defs>
  <g
     id="g8"
     transform="matrix(1.3333333,0,0,-1.3333333,-4037.4995,780.02934)">
    <g
       id="g14"
       transform="matrix(0.1,0,0,0.1,2.4946543,-14.967926)">
      <g
         id="g16710">
        <g
           id="g16712"
           clip-path="url(#clipPath16716)">
          <g
             id="g16718"
             clip-path="url(#clipPath16722)">
            <g
               id="g16724"
               transform="matrix(10,0,0,-10,-64410,91910)">
              <path
                 d="m 9498.3257,8777.8972 c 1.9205,1.9038 3.891,3.7241 5.9284,5.4776 -1.4195,-1.7702 -2.6887,-3.5237 -3.8409,-5.2939 -2.4716,-1.6366 -4.7929,-3.4067 -6.9138,-5.2938 1.5531,1.7535 3.173,3.4568 4.8263,5.1101 z"
                 style="fill:#fead0b;fill-opacity:1;fill-rule:nonzero;stroke:none"
                 id="path16726" />
              <path
                 d="m 9493.4994,8772.7871 c 2.1209,1.8871 4.4422,3.6572 6.9138,5.2938 -1.169,-1.7535 -2.2378,-3.5236 -3.2565,-5.3439 -2.839,-1.6867 -5.5777,-3.4903 -8.1495,-5.3773 1.4362,1.8536 2.9392,3.6739 4.4922,5.4274 z"
                 style="fill:#fec52b;fill-opacity:1;fill-rule:nonzero;stroke:none"
                 id="path16728" />
              <path
                 d="m 9504.2541,8783.3748 c 2.0374,1.7534 4.1415,3.4234 6.3125,5.0266 -0.8684,-2.0541 -1.67,-3.8911 -2.4215,-5.6779 -2.6719,-1.4362 -5.2771,-2.9893 -7.7319,-4.6426 1.1522,1.7702 2.4214,3.5237 3.8409,5.2939 z"
                 style="fill:#feaa0e;fill-opacity:1;fill-rule:nonzero;stroke:none"
                 id="path16730" />
              <path
                 d="m 9500.4132,8778.0809 c 2.4548,1.6533 5.06,3.2064 7.7319,4.6426 -0.7681,-1.7702 -1.4695,-3.4736 -2.1542,-5.2271 -3.0227,-1.4696 -5.9952,-3.056 -8.8342,-4.7594 1.0187,1.8203 2.0875,3.5904 3.2565,5.3439 z"
                 style="fill:#febd27;fill-opacity:1;fill-rule:nonzero;stroke:none"
                 id="path16732" />
              <path
                 d="m 9489.0072,8767.3597 c 2.5718,1.887 5.3105,3.6906 8.1495,5.3773 -1.0187,-1.8036 -1.9873,-3.674 -2.9726,-5.6278 -3.1896,-1.7368 -6.2958,-3.5738 -9.3351,-5.4442 1.3359,1.9372 2.7053,3.841 4.1582,5.6947 z"
                 style="fill:#fed743;fill-opacity:1;fill-rule:nonzero;stroke:none"
                 id="path16734" />
              <path
                 d="m 9484.849,8761.665 c 3.0393,1.8704 6.1455,3.7074 9.3351,5.4442 -0.9853,-1.9539 -1.9538,-4.008 -3.0059,-6.179 -3.4903,-1.6031 -6.8636,-3.3733 -10.1034,-5.2437 1.2024,2.0374 2.4549,4.0247 3.7742,5.9785 z"
                 style="fill:#fee151;fill-opacity:1;fill-rule:nonzero;stroke:none"
                 id="path16736" />
              <path
                 d="m 9497.1567,8772.737 c 2.839,1.7034 5.8115,3.2898 8.8342,4.7594 -0.6847,-1.7367 -1.3527,-3.5403 -2.0207,-5.5276 -3.34,-1.4863 -6.5964,-3.1229 -9.7861,-4.8596 0.9853,1.9538 1.9539,3.8242 2.9726,5.6278 z"
                 style="fill:#fec935;fill-opacity:1;fill-rule:nonzero;stroke:none"
                 id="path16738" />
              <path
                 d="m 9494.1841,8767.1092 c 3.1897,1.7367 6.4461,3.3733 9.7861,4.8596 -0.668,-1.9873 -1.336,-4.1415 -2.0207,-6.6131 -3.6739,-1.3193 -7.2811,-2.8056 -10.7713,-4.4255 1.0521,2.171 2.0206,4.2251 3.0059,6.179 z"
                 style="fill:#fed03b;fill-opacity:1;fill-rule:nonzero;stroke:none"
                 id="path16740" />
              <path
                 d="m 9510.5666,8788.4014 c 2.171,1.6032 4.3921,3.1228 6.6799,4.5757 -0.3173,-2.3379 -0.6513,-4.3085 -0.9853,-6.1455 -2.722,-1.2859 -5.4608,-2.6553 -8.1161,-4.1081 0.7515,1.7868 1.5531,3.6238 2.4215,5.6779 z"
                 style="fill:#fea711;fill-opacity:1;fill-rule:nonzero;stroke:none"
                 id="path16742" />
              <path
                 d="m 9508.1451,8782.7235 c 2.6553,1.4528 5.3941,2.8222 8.1161,4.1081 -0.334,-1.837 -0.6679,-3.5236 -1.0186,-5.2771 -3.1229,-1.2191 -6.2291,-2.5718 -9.2517,-4.0581 0.6847,1.7535 1.3861,3.4569 2.1542,5.2271 z"
                 style="fill:#feb31f;fill-opacity:1;fill-rule:nonzero;stroke:none"
                 id="path16744" />
              <path
                 d="m 9517.2465,8792.9771 c -0.6513,-4.6592 -1.3193,-7.9324 -2.0039,-11.4226 3.1395,1.2191 6.2958,2.3045 9.4353,3.2564 -0.2505,3.7742 -0.5678,7.3312 -0.4008,12.2243 -2.4047,-1.2692 -4.7427,-2.6219 -7.0306,-4.0581 z"
                 style="fill:#fea514;fill-opacity:1;fill-rule:nonzero;stroke:none"
                 id="path16746" />
              <path
                 d="m 9505.9909,8777.4964 c -1.3694,-3.4902 -2.6553,-7.2143 -4.0414,-12.1407 3.674,1.3193 7.4314,2.4716 11.239,3.4568 0.7014,5.5277 1.3861,9.2517 2.0541,12.742 -3.1229,-1.2191 -6.2291,-2.5718 -9.2517,-4.0581 z"
                 style="fill:#febb26;fill-opacity:1;fill-rule:nonzero;stroke:none"
                 id="path16748" />
              <path
                 d="m 9515.2426,8781.5545 c -0.668,-3.4903 -1.3527,-7.2143 -2.0541,-12.742 3.8075,0.9853 7.6819,1.7869 11.5562,2.4048 0.3841,5.7948 0.1837,9.8028 -0.067,13.5936 -3.1395,-0.9519 -6.2958,-2.0373 -9.4353,-3.2564 z"
                 style="fill:#feaf1b;fill-opacity:1;fill-rule:nonzero;stroke:none"
                 id="path16750" />
              <path
                 d="m 9524.2771,8797.0352 c 4.7428,2.5216 9.7026,4.7093 14.8294,6.5296 1.4028,-5.6946 3.3066,-10.1535 5.01,-14.8461 -6.6298,-0.7014 -13.2096,-2.0374 -19.4386,-3.9078 -0.2505,3.7742 -0.5678,7.3312 -0.4008,12.2243 z"
                 style="fill:#fea217;fill-opacity:1;fill-rule:nonzero;stroke:none"
                 id="path16752" />
              <path
                 d="m 9524.6779,8784.8109 c 0.2505,-3.7908 0.4509,-7.7988 0.067,-13.5936 3.8577,0.6012 7.732,1.0187 11.6064,1.2191 0.067,6.0787 -0.9686,10.5376 -2.1042,14.7626 -3.2565,-0.6513 -6.4628,-1.4529 -9.569,-2.3881 z"
                 style="fill:#feaa18;fill-opacity:1;fill-rule:nonzero;stroke:none"
                 id="path16754" />
              <path
                 d="m 9534.2469,8787.199 c 1.1356,-4.225 2.171,-8.6839 2.1042,-14.7626 3.8743,0.2004 7.7487,0.2004 11.5896,-0.033 -0.6179,6.6632 -2.1209,11.6063 -3.8242,16.3157 -3.3066,-0.3507 -6.6131,-0.8684 -9.8696,-1.5197 z"
                 style="fill:#feab1b;fill-opacity:1;fill-rule:nonzero;stroke:none"
                 id="path16756" />
              <path
                 d="m 9539.1065,8803.5648 c 5.1269,1.8036 10.4374,3.2564 15.8815,4.2918 2.9559,-6.4628 6.0119,-12.6417 8.7173,-19.0878 -6.3292,0.7014 -12.9757,0.6513 -19.5888,-0.05 -1.7034,4.6926 -3.6072,9.1515 -5.01,14.8461 z"
                 style="fill:#fe9b1f;fill-opacity:1;fill-rule:nonzero;stroke:none"
                 id="path16758" />
              <path
                 d="m 9544.1165,8788.7187 c 1.7033,-4.7094 3.2063,-9.6525 3.8242,-16.3157 3.841,-0.2338 7.6485,-0.7014 11.406,-1.4028 -1.3026,7.2477 -3.173,12.8922 -5.3273,18.2696 -3.2731,-0.017 -6.5964,-0.2004 -9.9029,-0.5511 z"
                 style="fill:#feae21;fill-opacity:1;fill-rule:nonzero;stroke:none"
                 id="path16760" />
              <path
                 d="m 9554.0194,8789.2698 c 2.1543,-5.3774 4.0247,-11.0219 5.3273,-18.2696 3.7574,-0.7181 7.4481,-1.67 11.0552,-2.889 -1.6032,7.5316 -3.9745,14.2282 -6.6966,20.6576 -3.1562,0.3507 -6.4127,0.5177 -9.6859,0.501 z"
                 style="fill:#feb226;fill-opacity:1;fill-rule:nonzero;stroke:none"
                 id="path16762" />
              <path
                 d="m 9554.988,8807.8566 c 6.6966,1.2859 13.627,1.9539 20.7078,1.9539 3.7741,-7.9992 6.9972,-15.6978 9.9196,-23.8807 -7.3479,2.0541 -14.6958,2.171 -21.9101,2.839 -2.7054,6.4461 -5.7614,12.625 -8.7173,19.0878 z"
                 style="fill:#fe9824;fill-opacity:1;fill-rule:nonzero;stroke:none"
                 id="path16764" />
              <path
                 d="m 9563.7053,8788.7688 c 7.2143,-0.668 14.5622,-0.7849 21.9101,-2.839 2.9392,-8.1996 5.5944,-16.9002 8.2664,-26.8866 -7.6151,4.1081 -15.7813,6.4461 -23.4799,9.068 -1.6032,7.5316 -3.9745,14.2282 -6.6966,20.6576 z"
                 style="fill:#feb429;fill-opacity:1;fill-rule:nonzero;stroke:none"
                 id="path16766" />
              <path
                 d="m 9575.6958,8809.8105 c 0.8516,0 1.7033,-0.017 2.555,-0.033 3.8577,-8.2163 7.064,-16.132 9.9865,-24.5654 -0.8684,0.2839 -1.7368,0.4676 -2.6219,0.7181 -2.9224,8.1829 -6.1455,15.8815 -9.9196,23.8807 z"
                 style="fill:#fe9921;fill-opacity:1;fill-rule:nonzero;stroke:none"
                 id="path16768" />
              <path
                 d="m 9585.6154,8785.9298 c 0.8851,-0.2505 1.7535,-0.4342 2.6219,-0.7181 2.9391,-8.4334 5.5944,-17.4011 8.3666,-27.7383 -0.9018,0.5511 -1.8036,1.0688 -2.7221,1.5698 -2.672,9.9864 -5.3272,18.687 -8.2664,26.8866 z"
                 style="fill:#feb226;fill-opacity:1;fill-rule:nonzero;stroke:none"
                 id="path16770" />
              <path
                 d="m 9578.2508,8809.7771 c 7.7487,-0.1837 15.2803,-1.1523 22.528,-2.8557 4.2418,-9.9697 7.1308,-19.6222 9.8028,-30.0763 -6.6799,4.0247 -14.4119,5.8116 -22.3443,8.3666 -2.9225,8.4334 -6.1288,16.3491 -9.9865,24.5654 z"
                 style="fill:#fe9a21;fill-opacity:1;fill-rule:nonzero;stroke:none"
                 id="path16772" />
              <path
                 d="m 9588.2373,8785.2117 c 7.9324,-2.555 15.6644,-4.3419 22.3443,-8.3666 2.6887,-10.4373 5.1435,-21.6763 8.567,-34.7856 -6.1288,6.3459 -14.4119,10.4708 -22.5447,15.4139 -2.7722,10.3372 -5.4275,19.3049 -8.3666,27.7383 z"
                 style="fill:#feb126;fill-opacity:1;fill-rule:nonzero;stroke:none"
                 id="path16774" />
              <path
                 d="m 9600.7788,8806.9214 c 7.565,-1.7701 14.8294,-4.3252 21.693,-7.565 4.0915,-11.9403 6.0955,-23.5633 7.9324,-36.2385 -5.1268,5.3606 -12.2409,8.901 -19.8226,13.7272 -2.672,10.4541 -5.561,20.1066 -9.8028,30.0763 z"
                 style="fill:#fe9f1a;fill-opacity:1;fill-rule:nonzero;stroke:none"
                 id="path16776" />
              <path
                 d="m 9610.5816,8776.8451 c 7.5817,-4.8262 14.6958,-8.3666 19.8226,-13.7272 1.8537,-12.6751 3.5738,-26.419 7.0974,-42.5677 -3.4067,7.4982 -10.7546,13.6103 -18.353,21.5093 -3.4235,13.1093 -5.8783,24.3483 -8.567,34.7856 z"
                 style="fill:#feac1f;fill-opacity:1;fill-rule:nonzero;stroke:none"
                 id="path16778" />
              <path
                 d="m 9622.4718,8799.3564 c 0.5845,-0.2672 1.169,-0.5511 1.7368,-0.8349 4.2418,-11.8068 6.3125,-23.3129 8.2497,-35.8879 -0.6847,0.1837 -1.3527,0.3006 -2.0541,0.4843 -1.8369,12.6752 -3.8409,24.2982 -7.9324,36.2385 z"
                 style="fill:#fea514;fill-opacity:1;fill-rule:nonzero;stroke:none"
                 id="path16780" />
              <path
                 d="m 9630.4042,8763.1179 c 0.7014,-0.1837 1.3694,-0.3006 2.0541,-0.4843 1.9539,-12.5749 3.7575,-26.2353 7.4481,-42.3506 -0.7849,0.084 -1.5865,0.1837 -2.4048,0.2672 -3.5236,16.1487 -5.2437,29.8926 -7.0974,42.5677 z"
                 style="fill:#fea619;fill-opacity:1;fill-rule:nonzero;stroke:none"
                 id="path16782" />
              <path
                 d="m 9624.2086,8798.5215 c 5.4107,-2.672 10.571,-5.7782 15.4306,-9.2684 5.9284,-9.7193 11.2056,-20.7078 15.7479,-32.6481 -6.9972,1.9539 -14.9463,4.1082 -22.9288,6.0286 -1.9372,12.575 -4.0079,24.0811 -8.2497,35.8879 z"
                 style="fill:#fea513;fill-opacity:1;fill-rule:nonzero;stroke:none"
                 id="path16784" />
              <path
                 d="m 9632.4583,8762.6336 c 7.9825,-1.9204 15.9316,-4.0747 22.9288,-6.0286 4.5256,-11.957 8.2998,-24.866 11.2055,-38.4429 -7.2644,0.084 -16.1486,0.9519 -26.6862,2.1209 -3.6906,16.1153 -5.4942,29.7757 -7.4481,42.3506 z"
                 style="fill:#fea619;fill-opacity:1;fill-rule:nonzero;stroke:none"
                 id="path16786" />
              <path
                 d="m 9639.6392,8789.2531 c 4.8596,-3.4903 9.4187,-7.3646 13.6437,-11.5897 7.6151,-7.6151 14.1113,-16.3491 19.2382,-25.918 -4.1082,1.1356 -10.1368,2.9057 -17.134,4.8596 -4.5423,11.9403 -9.8195,22.9288 -15.7479,32.6481 z"
                 style="fill:#fea90f;fill-opacity:1;fill-rule:nonzero;stroke:none"
                 id="path16788" />
              <path
                 d="m 9655.3871,8756.605 c 6.9972,-1.9539 13.0258,-3.724 17.134,-4.8596 5.1268,-9.5857 8.8676,-20.0231 10.955,-31.0282 -4.0079,-1.9372 -9.6357,-2.6219 -16.8835,-2.5551 -2.9057,13.5769 -6.6799,26.4859 -11.2055,38.4429 z"
                 style="fill:#fea015;fill-opacity:1;fill-rule:nonzero;stroke:none"
                 id="path16790" />
              <path
                 d="m 9481.0748,8755.6865 c 3.2398,1.8704 6.6131,3.6406 10.1034,5.2437 -1.2859,-2.6385 -2.4215,-5.2604 -3.4235,-7.8822 -3.8242,-1.5197 -7.4815,-3.2231 -10.8548,-5.1603 1.2858,2.6553 2.6719,5.2605 4.1749,7.7988 z"
                 style="fill:#ffe556;fill-opacity:1;fill-rule:nonzero;stroke:none"
                 id="path16792" />
              <path
                 d="m 9476.8999,8747.8877 c 3.3733,1.9372 7.0306,3.6406 10.8548,5.1603 -0.9853,-2.6386 -1.8537,-5.2772 -2.6218,-7.9825 -4.1249,-1.503 -8.0827,-3.2899 -11.7901,-5.344 1.0688,2.7889 2.2545,5.511 3.5571,8.1662 z"
                 style="fill:#ffe556;fill-opacity:1;fill-rule:nonzero;stroke:none"
                 id="path16794" />
              <path
                 d="m 9491.1782,8760.9302 c 3.4902,1.6199 7.0974,3.1062 10.7713,4.4255 -0.8684,-2.8891 -1.6198,-5.6612 -2.2711,-8.3833 -4.0915,-1.1189 -8.0827,-2.4215 -11.9237,-3.9244 1.002,2.6218 2.1376,5.2437 3.4235,7.8822 z"
                 style="fill:#fed33d;fill-opacity:1;fill-rule:nonzero;stroke:none"
                 id="path16796" />
              <path
                 d="m 9487.7547,8753.048 c 3.841,1.5029 7.8322,2.8055 11.9237,3.9244 -0.668,-2.7388 -1.2358,-5.4274 -1.7535,-8.1495 -4.3587,-0.9853 -8.6672,-2.2378 -12.792,-3.7574 0.7681,2.7053 1.6365,5.3439 2.6218,7.9825 z"
                 style="fill:#fed844;fill-opacity:1;fill-rule:nonzero;stroke:none"
                 id="path16798" />
              <path
                 d="m 9473.3428,8739.7215 c 7.398,4.1082 15.8481,7.1141 24.5821,9.1014 -0.501,-2.7221 -0.9519,-5.4608 -1.3861,-8.2998 -9.1515,-1.8203 -18.0525,-4.9431 -26.0851,-9.2851 0.8517,2.8891 1.8203,5.7114 2.8891,8.4835 z"
                 style="fill:#ffe556;fill-opacity:1;fill-rule:nonzero;stroke:none"
                 id="path16800" />
              <path
                 d="m 9470.4537,8731.238 c 8.0326,4.342 16.9336,7.4648 26.0851,9.2851 -0.4175,-2.8556 -0.8016,-5.7948 -1.1857,-8.901 -9.5189,-1.6532 -18.7872,-4.7093 -27.1037,-9.1681 0.6179,2.9725 1.3527,5.9117 2.2043,8.784 z"
                 style="fill:#ffe556;fill-opacity:1;fill-rule:nonzero;stroke:none"
                 id="path16802" />
              <path
                 d="m 9501.9495,8765.3557 c 3.674,1.3193 7.4314,2.4716 11.239,3.4568 -0.2171,-1.553 -0.4175,-3.0894 -0.6012,-4.5924 -3.9913,-0.8684 -7.9658,-1.9038 -11.8569,-3.1062 0.3841,1.3861 0.7849,2.8056 1.2191,4.2418 z"
                 style="fill:#fec62c;fill-opacity:1;fill-rule:nonzero;stroke:none"
                 id="path16804" />
              <path
                 d="m 9500.7304,8761.1139 c 3.8911,1.2024 7.8656,2.2378 11.8569,3.1062 -0.2004,-1.503 -0.3674,-2.9893 -0.5344,-4.4588 -4.1415,-0.7515 -8.2998,-1.67 -12.3745,-2.7889 0.3173,1.3694 0.668,2.7388 1.052,4.1415 z"
                 style="fill:#feca30;fill-opacity:1;fill-rule:nonzero;stroke:none"
                 id="path16806" />
              <path
                 d="m 9499.6784,8756.9724 c 4.0747,1.1189 8.233,2.0374 12.3745,2.7889 -0.334,-2.9392 -0.6346,-5.8116 -0.9018,-8.7173 -4.4087,-0.4843 -8.8509,-1.2191 -13.2262,-2.2211 0.5177,2.7221 1.0855,5.4107 1.7535,8.1495 z"
                 style="fill:#fed038;fill-opacity:1;fill-rule:nonzero;stroke:none"
                 id="path16808" />
              <path
                 d="m 9513.1885,8768.8125 c 3.8075,0.9853 7.6819,1.7869 11.5562,2.4048 -0.1169,-1.6199 -0.2004,-3.223 -0.2672,-4.8429 -3.9244,-0.5511 -7.9157,-1.2692 -11.8902,-2.1543 0.1837,1.503 0.3841,3.0394 0.6012,4.5924 z"
                 style="fill:#febe22;fill-opacity:1;fill-rule:nonzero;stroke:none"
                 id="path16810" />
              <path
                 d="m 9512.5873,8764.2201 c 3.9745,0.8851 7.9658,1.6032 11.8902,2.1543 -0.084,-1.6199 -0.1169,-3.2398 -0.1503,-4.8597 -4.0246,-0.4175 -8.1495,-1.0019 -12.2743,-1.7534 0.167,1.4695 0.334,2.9558 0.5344,4.4588 z"
                 style="fill:#fec527;fill-opacity:1;fill-rule:nonzero;stroke:none"
                 id="path16812" />
              <path
                 d="m 9512.0529,8759.7613 c 4.1248,0.7515 8.2497,1.3359 12.2743,1.7534 -0.067,-3.2397 -0.083,-6.4795 -0.083,-9.7359 -4.2751,0 -8.6671,-0.2338 -13.0926,-0.7348 0.2672,2.9057 0.5678,5.7781 0.9018,8.7173 z"
                 style="fill:#fecd31;fill-opacity:1;fill-rule:nonzero;stroke:none"
                 id="path16814" />
              <path
                 d="m 9497.9249,8748.8229 c 8.734,1.9873 17.7685,2.9559 26.3188,2.9559 0.017,-3.2398 0.017,-6.4962 0,-9.7527 -9.1013,0.835 -18.5367,0.3173 -27.7049,-1.503 0.4342,2.839 0.8851,5.5777 1.3861,8.2998 z"
                 style="fill:#fee04d;fill-opacity:1;fill-rule:nonzero;stroke:none"
                 id="path16816" />
              <path
                 d="m 9496.5388,8740.5231 c 9.1682,1.8203 18.6036,2.338 27.7049,1.503 -0.017,-1.6199 -0.033,-3.2398 -0.067,-4.8596 -9.285,1.1021 -18.8874,0.7515 -28.2393,-1.002 0.2004,1.4863 0.4008,2.9224 0.6012,4.3586 z"
                 style="fill:#feee61;fill-opacity:1;fill-rule:nonzero;stroke:none"
                 id="path16818" />
              <path
                 d="m 9495.9376,8736.1645 c 9.3519,1.7535 18.9543,2.1041 28.2393,1.002 -0.05,-1.6199 -0.1002,-3.2398 -0.1837,-4.8597 -9.3351,1.2191 -19.1212,0.9686 -28.6401,-0.6847 0.2004,1.5531 0.3841,3.0728 0.5845,4.5424 z"
                 style="fill:#fef268;fill-opacity:1;fill-rule:nonzero;stroke:none"
                 id="path16820" />
              <path
                 d="m 9524.7447,8771.2173 c -0.1169,-1.6366 -0.2004,-3.2731 -0.2839,-4.9264 4.008,0.4676 8.0493,0.7348 12.0907,0.8016 -0.1169,1.8035 -0.2171,3.6071 -0.2004,5.3439 -3.8744,-0.2004 -7.7487,-0.6179 -11.6064,-1.2191 z"
                 style="fill:#febc1f;fill-opacity:1;fill-rule:nonzero;stroke:none"
                 id="path16822" />
              <path
                 d="m 9536.3511,8772.4364 c -0.017,-1.7368 0.084,-3.5404 0.2004,-5.3439 4.0413,0.05 8.0827,-0.1002 12.0572,-0.4843 -0.2338,1.9538 -0.4843,3.8576 -0.668,5.7948 -3.8409,0.2338 -7.7153,0.2338 -11.5896,0.033 z"
                 style="fill:#febe22;fill-opacity:1;fill-rule:nonzero;stroke:none"
                 id="path16824" />
              <path
                 d="m 9524.4608,8766.2909 c -0.067,-1.6366 -0.1169,-3.2732 -0.1503,-4.9265 4.1583,0.3173 8.3332,0.4008 12.4748,0.2839 0,1.7869 -0.1169,3.6239 -0.2338,5.4442 -4.0414,-0.067 -8.0827,-0.334 -12.0907,-0.8016 z"
                 style="fill:#fec325;fill-opacity:1;fill-rule:nonzero;stroke:none"
                 id="path16826" />
              <path
                 d="m 9536.5515,8767.0925 c 0.1169,-1.8203 0.2338,-3.6573 0.2338,-5.4442 4.1582,-0.1336 8.2664,-0.501 12.3244,-1.1021 -0.067,2.1041 -0.2672,4.0914 -0.501,6.062 -3.9745,0.3841 -8.0159,0.5344 -12.0572,0.4843 z"
                 style="fill:#fec528;fill-opacity:1;fill-rule:nonzero;stroke:none"
                 id="path16828" />
              <path
                 d="m 9547.9407,8772.403 c 0.3507,-3.8577 1.0354,-7.6485 1.169,-11.8568 4.0581,-0.6179 8.0493,-1.4696 11.9403,-2.5885 -0.2671,4.8429 -0.9351,8.7841 -1.7033,13.0425 -3.7575,0.7014 -7.565,1.169 -11.406,1.4028 z"
                 style="fill:#fec42a;fill-opacity:1;fill-rule:nonzero;stroke:none"
                 id="path16830" />
              <path
                 d="m 9559.3467,8771.0002 c 0.7682,-4.2584 1.4362,-8.1996 1.7033,-13.0425 3.8911,-1.1022 7.6819,-2.4883 11.3225,-4.1416 -0.334,5.1269 -1.0187,9.8529 -1.9706,14.2951 -3.6071,1.219 -7.2978,2.1709 -11.0552,2.889 z"
                 style="fill:#fec931;fill-opacity:1;fill-rule:nonzero;stroke:none"
                 id="path16832" />
              <path
                 d="m 9524.3105,8761.3644 c 8.3165,0.6179 16.6998,0.3841 24.7992,-0.8182 0.2171,-6.4796 0.8684,-12.3913 1.3694,-18.1026 -8.4835,2.6052 -17.4179,4.1248 -26.2187,4.392 0,4.843 -0.033,9.7026 0.05,14.5288 z"
                 style="fill:#fecc2f;fill-opacity:1;fill-rule:nonzero;stroke:none"
                 id="path16834" />
              <path
                 d="m 9524.2604,8746.8356 c 8.8008,-0.2672 17.7352,-1.7868 26.2187,-4.392 0.2505,-2.8724 0.4843,-5.6779 0.6012,-8.4835 -8.5837,2.9392 -17.7352,4.7427 -26.87,5.5944 0.033,2.4215 0.05,4.843 0.05,7.2811 z"
                 style="fill:#feea5a;fill-opacity:1;fill-rule:nonzero;stroke:none"
                 id="path16836" />
              <path
                 d="m 9524.2103,8739.5545 c 9.1348,-0.8517 18.2863,-2.6552 26.87,-5.5944 0.1169,-2.8223 0.1169,-5.6278 -0.033,-8.4835 -8.567,3.4402 -17.7686,5.6946 -27.0537,6.8302 0.1169,2.4048 0.1837,4.8263 0.2171,7.2477 z"
                 style="fill:#fef46b;fill-opacity:1;fill-rule:nonzero;stroke:none"
                 id="path16838" />
              <path
                 d="m 9549.1097,8760.5462 c 8.1161,-1.2191 15.9817,-3.4235 23.2628,-6.7301 0.5177,-8.116 1.1857,-15.3972 1.6032,-22.2942 -6.9805,4.6092 -15.0131,8.2998 -23.4966,10.9217 -0.501,5.7113 -1.1523,11.623 -1.3694,18.1026 z"
                 style="fill:#fed238;fill-opacity:1;fill-rule:nonzero;stroke:none"
                 id="path16840" />
              <path
                 d="m 9550.4791,8742.4436 c 8.4835,-2.6219 16.5161,-6.3125 23.4966,-10.9217 0.2004,-3.4568 0.3507,-6.8135 0.4008,-10.1367 -6.7634,5.5109 -14.7292,9.619 -23.2962,12.5749 -0.1169,2.8056 -0.3507,5.6111 -0.6012,8.4835 z"
                 style="fill:#fee857;fill-opacity:1;fill-rule:nonzero;stroke:none"
                 id="path16842" />
              <path
                 d="m 9551.0803,8733.9601 c 8.567,-2.9559 16.5328,-7.064 23.2962,-12.5749 0.033,-3.3066 -0.017,-6.5964 -0.2171,-9.8863 -6.6632,5.9117 -14.5622,10.5376 -23.1125,13.9777 0.1503,2.8557 0.1503,5.6612 0.033,8.4835 z"
                 style="fill:#fef165;fill-opacity:1;fill-rule:nonzero;stroke:none"
                 id="path16844" />
              <path
                 d="m 9570.4019,8768.1112 c 8.6338,-2.9392 17.8354,-5.5277 26.202,-10.6378 1.8871,-6.0954 3.3733,-12.4246 4.3753,-19.0211 -8.3833,6.7802 -19.021,11.0052 -28.6067,15.3638 -0.334,5.1269 -1.0187,9.8529 -1.9706,14.2951 z"
                 style="fill:#fecc35;fill-opacity:1;fill-rule:nonzero;stroke:none"
                 id="path16846" />
              <path
                 d="m 9596.6039,8757.4734 c 0.2338,-0.1503 0.4676,-0.2839 0.7181,-0.4342 1.8369,-6.062 3.3065,-12.3411 4.2584,-18.9041 -0.2004,0.1001 -0.4008,0.217 -0.6012,0.3172 -1.002,6.5965 -2.4882,12.9257 -4.3753,19.0211 z"
                 style="fill:#fec633;fill-opacity:1;fill-rule:nonzero;stroke:none"
                 id="path16848" />
              <path
                 d="m 9597.322,8757.0392 c 6.396,-3.8576 12.8588,-7.2477 18.2361,-11.6898 1.9706,-7.4147 3.4402,-14.9964 4.3086,-22.7618 -4.8764,5.7948 -11.907,10.4373 -18.2863,15.5475 -0.9519,6.563 -2.4215,12.8421 -4.2584,18.9041 z"
                 style="fill:#fec633;fill-opacity:1;fill-rule:nonzero;stroke:none"
                 id="path16850" />
              <path
                 d="m 9615.5581,8745.3494 c 1.2692,-1.0354 2.4549,-2.1209 3.5905,-3.2899 1.9372,-7.7153 3.39,-15.5976 4.1749,-23.6469 -1.0521,1.4362 -2.3212,2.8056 -3.4568,4.175 -0.8684,7.7654 -2.338,15.3471 -4.3086,22.7618 z"
                 style="fill:#febc30;fill-opacity:1;fill-rule:nonzero;stroke:none"
                 id="path16852" />
              <path
                 d="m 9619.1486,8742.0595 c 0.2839,-0.3006 0.5845,-0.6012 0.8684,-0.9018 1.9204,-7.7654 3.3232,-15.7145 4.0747,-23.7972 -0.2338,0.3507 -0.501,0.7014 -0.7682,1.0521 -0.7849,8.0493 -2.2377,15.9316 -4.1749,23.6469 z"
                 style="fill:#feba2f;fill-opacity:1;fill-rule:nonzero;stroke:none"
                 id="path16854" />
              <path
                 d="m 9620.017,8741.1577 c 6.0453,-6.1956 11.8401,-11.3224 15.5141,-17.0171 1.3025,-8.9677 2.0039,-18.0524 1.9371,-27.2039 -2.4214,6.6632 -8.1829,12.9757 -13.3765,20.4238 -0.7515,8.0827 -2.1543,16.0318 -4.0747,23.7972 z"
                 style="fill:#feb92e;fill-opacity:1;fill-rule:nonzero;stroke:none"
                 id="path16856" />
              <path
                 d="m 9635.5311,8724.1406 c 0.7515,-1.1689 1.4194,-2.3546 1.9705,-3.5904 1.8203,-8.7006 3.006,-17.5181 3.3901,-26.3523 -1.0354,0.9018 -2.2211,1.8704 -3.4235,2.7388 0.067,9.1515 -0.6346,18.2362 -1.9371,27.2039 z"
                 style="fill:#feae2b;fill-opacity:1;fill-rule:nonzero;stroke:none"
                 id="path16858" />
              <path
                 d="m 9637.5016,8720.5502 c 0.8183,-0.083 1.6199,-0.1837 2.4048,-0.2672 2.004,-8.6672 3.3567,-17.4179 3.8911,-26.202 -0.9519,0.033 -1.9539,0.084 -2.9058,0.1169 -0.3841,8.8342 -1.5698,17.6517 -3.3901,26.3523 z"
                 style="fill:#feac2a;fill-opacity:1;fill-rule:nonzero;stroke:none"
                 id="path16860" />
              <path
                 d="m 9572.3725,8753.8161 c 9.5857,-4.3586 20.2234,-8.5836 28.6067,-15.3638 2.9726,-20.1566 3.9746,-38.1422 -0.4509,-55.5768 -5.2771,11.456 -17.0337,20.3069 -26.3689,28.6234 0.8183,13.1761 -0.7348,26.1018 -1.7869,42.3172 z"
                 style="fill:#fed840;fill-opacity:1;fill-rule:nonzero;stroke:none"
                 id="path16862" />
              <path
                 d="m 9600.9792,8738.4523 c 0.2004,-0.1002 0.4008,-0.2171 0.6012,-0.3172 2.839,-20.0398 3.6573,-37.9252 -1.0521,-55.2596 0,0 0,0 0,0 4.4255,17.4346 3.4235,35.4202 0.4509,55.5768 z"
                 style="fill:#fed13e;fill-opacity:1;fill-rule:nonzero;stroke:none"
                 id="path16864" />
              <path
                 d="m 9601.5804,8738.1351 c 6.3793,-5.1102 13.4099,-9.7527 18.2863,-15.5475 2.5383,-23.3129 1.169,-45.3065 -8.0326,-66.1312 -0.9686,9.6525 -7.3312,17.8187 -11.3058,26.4191 4.7094,17.3344 3.8911,35.2198 1.0521,55.2596 z"
                 style="fill:#fed13e;fill-opacity:1;fill-rule:nonzero;stroke:none"
                 id="path16866" />
              <path
                 d="m 9619.8667,8722.5876 c 1.1356,-1.3694 2.4047,-2.7388 3.4568,-4.175 1.169,-12.0071 1.2692,-23.7471 -0.2505,-35.1864 -0.6847,1.8203 -2.1375,3.5403 -2.8222,5.3606 1.1856,11.0219 0.8851,22.3443 -0.3841,34.0008 z"
                 style="fill:#fec63c;fill-opacity:1;fill-rule:nonzero;stroke:none"
                 id="path16868" />
              <path
                 d="m 9620.2508,8688.5868 c 0.6847,-1.8203 2.1375,-3.5403 2.8222,-5.3606 -1.503,-11.4394 -4.5924,-22.5781 -9.786,-33.3996 -0.3173,2.2044 -1.2191,4.3253 -1.4529,6.6298 4.6091,10.404 7.2477,21.1253 8.4167,32.1304 z"
                 style="fill:#fed951;fill-opacity:1;fill-rule:nonzero;stroke:none"
                 id="path16870" />
              <path
                 d="m 9623.3235,8718.4126 c 0.2672,-0.3507 0.5344,-0.7014 0.7682,-1.0521 1.1189,-12.0739 1.1189,-23.8807 -0.4843,-35.3868 -0.1336,0.4175 -0.3674,0.835 -0.5344,1.2525 1.5197,11.4393 1.4195,23.1793 0.2505,35.1864 z"
                 style="fill:#fec33b;fill-opacity:1;fill-rule:nonzero;stroke:none"
                 id="path16872" />
              <path
                 d="m 9623.073,8683.2262 c 0.167,-0.4175 0.4008,-0.835 0.5344,-1.2525 -1.6199,-11.5229 -4.8596,-22.7284 -10.2202,-33.6167 0,0.501 -0.033,0.9853 -0.1002,1.4696 5.1936,10.8215 8.283,21.9602 9.786,33.3996 z"
                 style="fill:#fed750;fill-opacity:1;fill-rule:nonzero;stroke:none"
                 id="path16874" />
              <path
                 d="m 9624.0917,8717.3605 c 5.1936,-7.4481 10.9551,-13.7606 13.3765,-20.4238 -0.1002,-13.46 -1.8202,-26.8866 -5.7113,-40.0628 0.6513,8.0326 -5.4942,15.8648 -8.1495,25.0998 1.6032,11.5061 1.6032,23.3129 0.4843,35.3868 z"
                 style="fill:#fec33b;fill-opacity:1;fill-rule:nonzero;stroke:none"
                 id="path16876" />
              <path
                 d="m 9623.6074,8681.9737 c 2.6553,-9.235 8.8008,-17.0672 8.1495,-25.0998 -3.891,-13.1594 -9.9531,-26.0516 -18.7371,-38.4596 3.7073,9.3853 0.5177,18.9543 0.3674,29.9427 5.3606,10.8883 8.6003,22.0938 10.2202,33.6167 z"
                 style="fill:#fed750;fill-opacity:1;fill-rule:nonzero;stroke:none"
                 id="path16878" />
              <path
                 d="m 9637.4682,8696.9367 c 1.2024,-0.8684 2.3881,-1.837 3.4235,-2.7388 0.5511,-12.9924 -0.5845,-26.0015 -4.0247,-38.7435 -1.4862,0.3841 -3.5236,1.002 -5.1101,1.4195 3.8911,13.1762 5.6111,26.6028 5.7113,40.0628 z"
                 style="fill:#feb738;fill-opacity:1;fill-rule:nonzero;stroke:none"
                 id="path16880" />
              <path
                 d="m 9631.7569,8656.8739 c 1.5865,-0.4175 3.6239,-1.0354 5.1101,-1.4195 -3.4401,-12.7419 -9.1681,-25.2333 -17.7518,-37.1904 -1.9205,-0.1169 -4.1249,0.1837 -6.0954,0.1503 8.784,12.408 14.8461,25.3002 18.7371,38.4596 z"
                 style="fill:#fed04e;fill-opacity:1;fill-rule:nonzero;stroke:none"
                 id="path16882" />
              <path
                 d="m 9640.8917,8694.1979 c 0.9519,-0.033 1.9539,-0.083 2.9058,-0.1169 0.7848,-12.8922 -0.2004,-25.8178 -3.5237,-38.4763 -1.0187,-0.084 -2.3714,-0.084 -3.4068,-0.1503 3.4402,12.742 4.5758,25.7511 4.0247,38.7435 z"
                 style="fill:#feb537;fill-opacity:1;fill-rule:nonzero;stroke:none"
                 id="path16884" />
              <path
                 d="m 9636.867,8655.4544 c 1.0354,0.067 2.3881,0.067 3.4068,0.1503 -3.3233,-12.6751 -9.0012,-25.083 -17.5849,-36.9399 -1.1022,-0.1837 -2.4548,-0.2505 -3.5737,-0.4008 8.5837,11.9571 14.3117,24.4485 17.7518,37.1904 z"
                 style="fill:#fecf4e;fill-opacity:1;fill-rule:nonzero;stroke:none"
                 id="path16886" />
              <path
                 d="m 9639.9064,8720.283 c 1.9372,-8.4 3.2732,-16.8835 3.841,-25.3837 10.1701,-0.5678 18.4198,-0.7849 25.2166,-0.1002 -0.2839,7.7821 -0.7682,15.8314 -2.3714,23.363 -7.2644,0.084 -16.1486,0.9519 -26.6862,2.1209 z"
                 style="fill:#feab2a;fill-opacity:1;fill-rule:nonzero;stroke:none"
                 id="path16888" />
              <path
                 d="m 9666.5926,8718.1621 c 1.6032,-7.5316 2.0875,-15.5809 2.3714,-23.363 6.7968,0.6847 12.1408,2.2712 16.466,5.2772 0,7.0473 -0.668,13.961 -1.9539,20.6409 -4.0079,-1.9372 -9.6357,-2.6219 -16.8835,-2.5551 z"
                 style="fill:#fe9f26;fill-opacity:1;fill-rule:nonzero;stroke:none"
                 id="path16890" />
              <path
                 d="m 9643.7474,8694.8993 c 10.1701,-0.5678 18.4198,-0.7849 25.2166,-0.1002 0.4342,-11.9904 -1.2024,-24.0811 -4.7427,-35.7375 -6.1121,-1.7869 -13.4433,-2.5217 -23.8473,-3.0561 3.3066,12.8088 4.2417,25.868 3.3734,38.8938 z"
                 style="fill:#feb337;fill-opacity:1;fill-rule:nonzero;stroke:none"
                 id="path16892" />
              <path
                 d="m 9640.374,8656.0055 c 10.404,0.5344 17.7352,1.2692 23.8473,3.0561 -3.5404,-11.6564 -8.9511,-22.8954 -16.0652,-33.1825 -6.9471,-3.4067 -14.8294,-5.561 -25.4672,-7.2143 8.6839,11.9905 14.3785,24.532 17.6851,37.3407 z"
                 style="fill:#fece4e;fill-opacity:1;fill-rule:nonzero;stroke:none"
                 id="path16894" />
              <path
                 d="m 9668.964,8694.7991 c 6.7968,0.6847 12.1408,2.2712 16.466,5.2772 0,-5.4776 -0.4175,-10.8549 -1.1857,-16.132 -4.7093,-3.5738 -9.7527,-5.8283 -16.1654,-7.1308 0.8016,5.9785 1.1022,11.9904 0.8851,17.9856 z"
                 style="fill:#fea833;fill-opacity:1;fill-rule:nonzero;stroke:none"
                 id="path16896" />
              <path
                 d="m 9668.0789,8676.8135 c 6.4127,1.3025 11.4561,3.557 16.1654,7.1308 -0.7682,-5.2605 -1.9205,-10.3873 -3.4234,-15.3805 -5.5778,-4.843 -10.4875,-7.7153 -16.5996,-9.5022 1.7702,5.8282 3.056,11.7733 3.8576,17.7519 z"
                 style="fill:#feb63f;fill-opacity:1;fill-rule:nonzero;stroke:none"
                 id="path16898" />
              <path
                 d="m 9664.2213,8659.0616 c 6.1121,1.7869 11.0218,4.6592 16.5996,9.5022 -2.9893,-9.9865 -7.3479,-19.3718 -12.8923,-27.9388 -6.8302,-6.6632 -12.8254,-11.3224 -19.7725,-14.7459 7.1141,10.2871 12.5248,21.5261 16.0652,33.1825 z"
                 style="fill:#fec74c;fill-opacity:1;fill-rule:nonzero;stroke:none"
                 id="path16900" />
              <path
                 d="m 9468.2494,8722.454 c 6.2457,3.3399 13.0091,5.895 20.023,7.6652 -0.1336,-0.8517 -0.2839,-1.7201 -0.4342,-2.5718 -7.0473,-1.7535 -13.8441,-4.3086 -20.0898,-7.6485 0.1503,0.8684 0.3173,1.7201 0.501,2.5551 z"
                 style="fill:#ffe556;fill-opacity:1;fill-rule:nonzero;stroke:none"
                 id="path16902" />
              <path
                 d="m 9467.7484,8719.8989 c 6.2457,3.3399 13.0425,5.895 20.0898,7.6485 -0.1503,-0.8684 -0.3006,-1.7201 -0.4509,-2.5718 -7.064,-1.7535 -13.8274,-4.3252 -20.0731,-7.6485 0.1336,0.8684 0.2839,1.7201 0.4342,2.5718 z"
                 style="fill:#ffe556;fill-opacity:1;fill-rule:nonzero;stroke:none"
                 id="path16904" />
              <path
                 d="m 9467.3142,8717.3271 c 6.2457,3.3233 13.0091,5.895 20.0731,7.6485 -0.3173,-1.7201 -0.6179,-3.4401 -0.835,-5.1936 -7.0139,-1.7535 -13.6938,-4.3419 -19.9395,-7.6485 0.2004,1.7368 0.4175,3.4735 0.7014,5.1936 z"
                 style="fill:#ffe556;fill-opacity:1;fill-rule:nonzero;stroke:none"
                 id="path16906" />
              <path
                 d="m 9488.2724,8730.1192 c 7.0139,1.7701 14.2616,2.7554 21.4592,2.9224 -0.083,-0.8851 -0.1837,-1.7535 -0.2672,-2.6385 -7.2644,-0.1503 -14.5789,-1.1022 -21.6262,-2.8557 0.1503,0.8517 0.3006,1.7201 0.4342,2.5718 z"
                 style="fill:#fff167;fill-opacity:1;fill-rule:nonzero;stroke:none"
                 id="path16908" />
              <path
                 d="m 9487.8382,8727.5474 c 7.0473,1.7535 14.3618,2.7054 21.6262,2.8557 -0.1002,-0.8851 -0.2004,-1.7535 -0.3006,-2.6386 -7.3813,-0.083 -14.7292,-1.0354 -21.7765,-2.7889 0.1503,0.8517 0.3006,1.7034 0.4509,2.5718 z"
                 style="fill:#feee63;fill-opacity:1;fill-rule:nonzero;stroke:none"
                 id="path16910" />
              <path
                 d="m 9487.3873,8724.9756 c 7.0473,1.7535 14.3952,2.7054 21.7765,2.7889 -0.2171,-1.7702 -0.4509,-3.5237 -0.7014,-5.2771 -7.5483,0 -14.8962,-0.9352 -21.9101,-2.7054 0.2171,1.7535 0.5177,3.4735 0.835,5.1936 z"
                 style="fill:#fee95c;fill-opacity:1;fill-rule:nonzero;stroke:none"
                 id="path16912" />
              <path
                 d="m 9509.7316,8733.0416 c 4.8096,0.1169 9.5857,-0.1336 14.2616,-0.7348 -0.033,-0.9185 -0.084,-1.8369 -0.1503,-2.7554 -4.6926,0.6346 -9.5522,0.9519 -14.3785,0.8517 0.083,0.885 0.1837,1.7534 0.2672,2.6385 z"
                 style="fill:#fff770;fill-opacity:1;fill-rule:nonzero;stroke:none"
                 id="path16914" />
              <path
                 d="m 9509.4644,8730.4031 c 4.8263,0.1002 9.6859,-0.2171 14.3785,-0.8517 -0.05,-0.9185 -0.1336,-1.837 -0.2004,-2.7555 -4.7093,0.6847 -9.6023,1.0187 -14.4787,0.9686 0.1002,0.8851 0.2004,1.7535 0.3006,2.6386 z"
                 style="fill:#fef56d;fill-opacity:1;fill-rule:nonzero;stroke:none"
                 id="path16916" />
              <path
                 d="m 9509.1638,8727.7645 c 4.8764,0.05 9.7694,-0.2839 14.4787,-0.9686 -0.084,-0.9185 -0.167,-1.837 -0.2672,-2.7555 -4.726,0.7515 -9.6023,1.1022 -14.5455,1.0855 0.1169,0.8684 0.2171,1.7535 0.334,2.6386 z"
                 style="fill:#feee63;fill-opacity:1;fill-rule:nonzero;stroke:none"
                 id="path16918" />
              <path
                 d="m 9508.8298,8725.1259 c 4.9432,0.017 9.8195,-0.334 14.5455,-1.0855 -0.1002,-0.9185 -0.2004,-1.8202 -0.3339,-2.7387 -4.7428,0.7849 -9.6024,1.1857 -14.579,1.1857 0.1336,0.8683 0.2505,1.7534 0.3674,2.6385 z"
                 style="fill:#fee455;fill-opacity:1;fill-rule:nonzero;stroke:none"
                 id="path16920" />
              <path
                 d="m 9523.9932,8732.3068 c 9.2851,-1.1356 18.4867,-3.39 27.0537,-6.8302 -0.067,-1.0855 -0.1336,-2.171 -0.2004,-3.2397 -8.5002,3.6572 -17.6851,6.1121 -27.0036,7.3145 0.067,0.9185 0.1169,1.8369 0.1503,2.7554 z"
                 style="fill:#fff972;fill-opacity:1;fill-rule:nonzero;stroke:none"
                 id="path16922" />
              <path
                 d="m 9523.8429,8729.5514 c 9.3185,-1.2024 18.5034,-3.6573 27.0036,-7.3145 -0.067,-1.0855 -0.1336,-2.1543 -0.2171,-3.2398 -8.4501,3.8243 -17.6016,6.4461 -26.9869,7.7988 0.067,0.9185 0.1503,1.837 0.2004,2.7555 z"
                 style="fill:#fef66f;fill-opacity:1;fill-rule:nonzero;stroke:none"
                 id="path16924" />
              <path
                 d="m 9523.6425,8726.7959 c 4.6927,-0.6847 9.3185,-1.67 13.8442,-2.9726 -0.067,-0.9852 -0.1503,-1.9872 -0.2505,-2.9892 -4.4923,1.4028 -9.1348,2.4715 -13.8609,3.2063 0.1002,0.9185 0.1837,1.837 0.2672,2.7555 z"
                 style="fill:#fef066;fill-opacity:1;fill-rule:nonzero;stroke:none"
                 id="path16926" />
              <path
                 d="m 9523.3753,8724.0404 c 4.7261,-0.7348 9.3686,-1.8035 13.8609,-3.2063 -0.1002,-0.9853 -0.2171,-1.9706 -0.3674,-2.9559 -4.4589,1.503 -9.068,2.6386 -13.8274,3.4235 0.1335,0.9185 0.2337,1.8202 0.3339,2.7387 z"
                 style="fill:#fee557;fill-opacity:1;fill-rule:nonzero;stroke:none"
                 id="path16928" />
              <path
                 d="m 9537.4867,8723.8233 c 4.5089,-1.3025 8.9176,-2.9057 13.1427,-4.8262 -0.1002,-1.0855 -0.2171,-2.171 -0.3507,-3.2565 -4.175,2.004 -8.5336,3.7074 -13.0425,5.0935 0.1002,1.002 0.1837,2.004 0.2505,2.9892 z"
                 style="fill:#fef167;fill-opacity:1;fill-rule:nonzero;stroke:none"
                 id="path16930" />
              <path
                 d="m 9537.2362,8720.8341 c 4.5089,-1.3861 8.8675,-3.0895 13.0425,-5.0935 -0.1336,-1.1021 -0.3006,-2.2043 -0.5177,-3.3232 -4.1081,2.1376 -8.4167,3.9745 -12.8922,5.4608 0.1503,0.9853 0.2672,1.9706 0.3674,2.9559 z"
                 style="fill:#fee85b;fill-opacity:1;fill-rule:nonzero;stroke:none"
                 id="path16932" />
              <path
                 d="m 9551.0469,8725.4766 c 8.5503,-3.4401 16.4493,-8.066 23.1125,-13.9777 -0.167,-2.5217 -0.4175,-5.0433 -0.7682,-7.5984 -6.5797,6.2123 -14.3284,11.2557 -22.7618,15.0966 0.1837,2.1543 0.2839,4.3085 0.4175,6.4795 z"
                 style="fill:#fef66e;fill-opacity:1;fill-rule:nonzero;stroke:none"
                 id="path16934" />
              <path
                 d="m 9550.6294,8718.9971 c -0.2004,-2.1543 -0.4509,-4.3419 -0.8684,-6.5797 4.1248,-2.1376 8.0493,-4.5924 11.7733,-7.3312 0.5344,2.5217 0.9018,4.9097 1.169,7.2477 -3.8075,2.5217 -7.8656,4.7427 -12.0739,6.6632 z"
                 style="fill:#fef56b;fill-opacity:1;fill-rule:nonzero;stroke:none"
                 id="path16936" />
              <path
                 d="m 9562.7033,8712.3339 c -0.2672,-2.338 -0.6346,-4.726 -1.169,-7.2477 3.7074,-2.7221 7.1976,-5.7447 10.4541,-9.0012 0.5845,2.6553 1.0521,5.2437 1.4028,7.8155 -3.2899,3.1062 -6.8636,5.9117 -10.6879,8.4334 z"
                 style="fill:#fef86f;fill-opacity:1;fill-rule:nonzero;stroke:none"
                 id="path16938" />
              <path
                 d="m 9574.1594,8711.4989 c 9.3352,-8.3165 21.0918,-17.1674 26.3689,-28.6234 -1.5531,-7.0306 -3.9077,-13.961 -7.2644,-20.9248 -4.4588,12.9924 -11.8067,24.6154 -21.2755,34.1343 1.169,5.3105 1.837,10.3873 2.171,15.4139 z"
                 style="fill:#fef369;fill-opacity:1;fill-rule:nonzero;stroke:none"
                 id="path16940" />
              <path
                 d="m 9600.5283,8682.8755 c 3.7742,-8.1662 9.6859,-15.9316 11.1054,-24.9495 -3.3066,-8.5169 -7.7487,-16.8668 -13.5435,-25.0664 0,10.1869 -1.6867,19.973 -4.8263,29.0911 3.3567,6.9638 5.7113,13.8942 7.2644,20.9248 z"
                 style="fill:#fef168;fill-opacity:1;fill-rule:nonzero;stroke:none"
                 id="path16942" />
              <path
                 d="m 9611.6337,8657.926 c 0.083,-0.4843 0.1503,-0.9853 0.2004,-1.4696 -3.3734,-8.6004 -7.8823,-17.017 -13.7606,-25.2667 0.017,0.5511 0.017,1.1022 0.017,1.6699 5.7948,8.1996 10.2369,16.5495 13.5435,25.0664 z"
                 style="fill:#feef68;fill-opacity:1;fill-rule:nonzero;stroke:none"
                 id="path16944" />
              <path
                 d="m 9611.8341,8656.4564 c 0.2839,-2.8055 1.5698,-5.3272 1.5531,-8.0994 -3.9913,-8.9343 -9.2183,-17.685 -15.9316,-26.2186 0.3674,2.9725 0.5678,5.9952 0.6179,9.0513 5.8783,8.2497 10.3872,16.6663 13.7606,25.2667 z"
                 style="fill:#feef68;fill-opacity:1;fill-rule:nonzero;stroke:none"
                 id="path16946" />
              <path
                 d="m 9613.3872,8648.357 c 0.1503,-10.9884 3.3399,-20.5574 -0.3674,-29.9427 -6.6967,-9.3685 -14.9964,-18.4365 -25.1332,-27.1371 4.9431,9.4354 8.2664,19.8393 9.569,30.8612 6.7133,8.5336 11.9403,17.2843 15.9316,26.2186 z"
                 style="fill:#feef68;fill-opacity:1;fill-rule:nonzero;stroke:none"
                 id="path16948" />
              <path
                 d="m 9613.0198,8618.4143 c 0.1002,0 0.2004,0 0.3006,0 -6.847,-9.452 -15.2803,-18.6369 -25.5841,-27.4043 0.05,0.084 0.1002,0.1837 0.1503,0.2672 10.1368,8.7006 18.4365,17.7686 25.1332,27.1371 z"
                 style="fill:#feed67;fill-opacity:1;fill-rule:nonzero;stroke:none"
                 id="path16950" />
              <path
                 d="m 9613.3204,8618.4143 c 1.9037,0 3.9745,-0.2672 5.7948,-0.1503 -6.6632,-9.1514 -14.9964,-17.9856 -25.2334,-26.419 -2.0374,-0.334 -4.0747,-0.6179 -6.1455,-0.835 10.3038,8.7674 18.7371,17.9523 25.5841,27.4043 z"
                 style="fill:#feed67;fill-opacity:1;fill-rule:nonzero;stroke:none"
                 id="path16952" />
              <path
                 d="m 9619.1152,8618.264 c 1.1189,0.1503 2.4715,0.2171 3.5737,0.4008 -6.5797,-9.0679 -14.8461,-17.8186 -25.083,-26.1351 -1.2358,-0.2505 -2.4883,-0.4676 -3.7241,-0.6847 10.237,8.4334 18.5702,17.2676 25.2334,26.419 z"
                 style="fill:#feec67;fill-opacity:1;fill-rule:nonzero;stroke:none"
                 id="path16954" />
              <path
                 d="m 9622.6889,8618.6648 c 21.2755,3.3066 31.5626,8.6338 45.2397,21.9602 -4.1749,-6.4628 -9.0178,-12.4747 -14.4119,-17.9021 -14.9797,-15.0632 -34.2846,-25.8012 -55.9108,-30.1932 10.2369,8.3165 18.5033,17.0672 25.083,26.1351 z"
                 style="fill:#feec67;fill-opacity:1;fill-rule:nonzero;stroke:none"
                 id="path16956" />
            </g>
          </g>
        </g>
      </g>
    </g>
  </g>
</svg>
