<?xml version="1.0" encoding="UTF-8" standalone="no"?>
<!-- Created with Inkscape (http://www.inkscape.org/) -->

<svg
   version="1.1"
   id="svg2"
   width="583.20001"
   height="249.57397"
   viewBox="0 0 583.20001 249.57397"
   xmlns="http://www.w3.org/2000/svg"
   xmlns:svg="http://www.w3.org/2000/svg">
  <defs
     id="defs6">
    <clipPath
       clipPathUnits="userSpaceOnUse"
       id="clipPath20342">
      <path
         d="m 4617.31,8751.4 c -129.57,-139.1 -305.1,-237.6 -504.53,-271.7 -35.86,-6.1 -72.49,-10.2 -109.77,-12 -244.58,-12.1 -470.58,73.7 -638.27,222 -167.68,148.4 -277.05,359.4 -288.35,597.9 -6.69,141 21.67,275.8 77.57,396.4 38.64,83.3 90.43,159.8 152.91,226.9 152.87,164.2 369.71,271.7 614.29,283.8 37.28,1.8 74.12,1.4 110.4,-1.2 201.72,-14.4 385.74,-95.1 527.87,-220.9 68.53,-60.6 127.32,-131.7 173.66,-210.9 67.04,-114.5 108.02,-245.9 114.7,-386.9 11.3,-238.4 -77.6,-459.2 -230.48,-623.4 z"
         id="path20340" />
    </clipPath>
    <clipPath
       clipPathUnits="userSpaceOnUse"
       id="clipPath20348">
      <path
         d="m 4617.31,8751.4 c -129.57,-139.1 -305.1,-237.6 -504.53,-271.7 -35.86,-6.1 -72.49,-10.2 -109.77,-12 -244.58,-12.1 -470.58,73.7 -638.27,222 -167.68,148.4 -277.05,359.4 -288.35,597.9 -6.69,141 21.67,275.8 77.57,396.4 38.64,83.3 90.43,159.8 152.91,226.9 152.87,164.2 369.71,271.7 614.29,283.8 37.28,1.8 74.12,1.4 110.4,-1.2 201.72,-14.4 385.74,-95.1 527.87,-220.9 68.53,-60.6 127.32,-131.7 173.66,-210.9 67.04,-114.5 108.02,-245.9 114.7,-386.9 11.3,-238.4 -77.6,-459.2 -230.48,-623.4"
         id="path20346" />
    </clipPath>
    <clipPath
       clipPathUnits="userSpaceOnUse"
       id="clipPath20388">
      <path
         d="m 5594.54,8638.9 c -84.03,-90.2 -198,-154 -327.47,-175.7 -22.57,-3.8 -45.61,-6.3 -69.04,-7.5 -157.86,-7.8 -303.74,47.6 -411.97,143.4 -108.24,95.7 -178.83,231.9 -186.12,385.8 -3.42,72.1 7.35,141.7 29.91,206.2 25.61,73.2 66.4,139.8 118.85,196.2 98.67,105.9 238.64,175.4 396.5,183.1 23.43,1.2 46.6,0.9 69.42,-0.6 130.92,-8.9 250.39,-61.1 342.56,-142.7 57.54,-50.9 104.44,-113.2 136.84,-183.6 28.56,-62 45.86,-130.2 49.28,-202.3 7.29,-153.9 -50.09,-296.4 -148.76,-402.3 z"
         id="path20386" />
    </clipPath>
    <clipPath
       clipPathUnits="userSpaceOnUse"
       id="clipPath20394">
      <path
         d="m 5594.54,8638.9 c -84.03,-90.2 -198,-154 -327.47,-175.7 -22.57,-3.8 -45.61,-6.3 -69.04,-7.5 -157.86,-7.8 -303.74,47.6 -411.97,143.4 -108.24,95.7 -178.83,231.9 -186.12,385.8 -3.42,72.1 7.35,141.7 29.91,206.2 25.61,73.2 66.4,139.8 118.85,196.2 98.67,105.9 238.64,175.4 396.5,183.1 23.43,1.2 46.6,0.9 69.42,-0.6 130.92,-8.9 250.39,-61.1 342.56,-142.7 57.54,-50.9 104.44,-113.2 136.84,-183.6 28.56,-62 45.86,-130.2 49.28,-202.3 7.29,-153.9 -50.09,-296.4 -148.76,-402.3"
         id="path20392" />
    </clipPath>
    <clipPath
       clipPathUnits="userSpaceOnUse"
       id="clipPath20438">
      <path
         d="m 5181.2,8407 c -101.98,-109.5 -264.18,19.5 -424.57,2.6 -12.29,-1.3 -37.07,-23.6 -49.58,-24.2 -175.65,-8.6 -287.61,-98.9 -408.04,7.6 -120.43,106.6 -213.18,-140.1 -221.3,31.1 -4.39,92.7 12.28,181.6 45.88,262.4 28.52,68.5 69.24,131.2 119.65,185.3 109.79,117.9 265.52,195.2 441.17,203.8 12.51,0.6 24.95,0.9 37.3,0.8 161.25,-1.1 309.24,-61.3 421.1,-160.2 55.29,-49 101.75,-107.4 136.62,-172.8 41.09,-77.1 66.08,-164 70.47,-256.6 8.12,-171.2 -58.91,38.1 -168.7,-79.8 z"
         id="path20436" />
    </clipPath>
    <clipPath
       clipPathUnits="userSpaceOnUse"
       id="clipPath20444">
      <path
         d="m 5181.2,8407 c -101.98,-109.5 -264.18,19.5 -424.57,2.6 -12.29,-1.3 -37.07,-23.6 -49.58,-24.2 -175.65,-8.6 -287.61,-98.9 -408.04,7.6 -120.43,106.6 -213.18,-140.1 -221.3,31.1 -4.39,92.7 12.28,181.6 45.88,262.4 28.52,68.5 69.24,131.2 119.65,185.3 109.79,117.9 265.52,195.2 441.17,203.8 12.51,0.6 24.95,0.9 37.3,0.8 161.25,-1.1 309.24,-61.3 421.1,-160.2 55.29,-49 101.75,-107.4 136.62,-172.8 41.09,-77.1 66.08,-164 70.47,-256.6 8.12,-171.2 -58.91,38.1 -168.7,-79.8"
         id="path20442" />
    </clipPath>
    <clipPath
       clipPathUnits="userSpaceOnUse"
       id="clipPath20490">
      <path
         d="M 3192.68,8853.7 C 3082.89,8735.8 2927.15,8658.6 2751.5,8650 c -22.4,-1.2 -44.58,-1.1 -66.48,0 -149.88,7.7 -286.84,66.5 -391.92,159.4 -120.43,106.6 -198.97,258.1 -207.09,429.4 -3.99,84.3 9.45,165.5 37.25,240.4 28.65,77.1 72.54,147.4 128.28,207.3 95.79,102.8 226.56,174.7 375.02,197.2 21.69,3.2 43.76,5.5 66.15,6.6 175.65,8.6 337.97,-53 458.4,-159.5 61.13,-54.1 111.47,-119.8 147.29,-193.8 34.73,-71.7 55.8,-151.2 59.8,-235.6 8.12,-171.2 -55.73,-329.8 -165.52,-447.7 z"
         id="path20488" />
    </clipPath>
    <clipPath
       clipPathUnits="userSpaceOnUse"
       id="clipPath20496">
      <path
         d="M 3192.68,8853.7 C 3082.89,8735.8 2927.15,8658.6 2751.5,8650 c -22.4,-1.2 -44.58,-1.1 -66.48,0 -149.88,7.7 -286.84,66.5 -391.92,159.4 -120.43,106.6 -198.97,258.1 -207.09,429.4 -3.99,84.3 9.45,165.5 37.25,240.4 28.65,77.1 72.54,147.4 128.28,207.3 95.79,102.8 226.56,174.7 375.02,197.2 21.69,3.2 43.76,5.5 66.15,6.6 175.65,8.6 337.97,-53 458.4,-159.5 61.13,-54.1 111.47,-119.8 147.29,-193.8 34.73,-71.7 55.8,-151.2 59.8,-235.6 8.12,-171.2 -55.73,-329.8 -165.52,-447.7"
         id="path20494" />
    </clipPath>
    <clipPath
       clipPathUnits="userSpaceOnUse"
       id="clipPath20546">
      <path
         d="m 5999.56,8425 c -84.48,-16.7 -250.29,-9 -335.33,-26.5 -20.59,-4.2 -54.59,-15.8 -76.27,-16.9 -111.17,-5.5 -193.26,-38.6 -269.48,28.8 -76.22,67.4 -119.4,23.3 -124.54,131.7 -2.78,58.6 7.75,114.8 28.99,165.9 18.06,43.4 43.85,83.1 75.77,117.4 69.49,74.6 168.06,123.5 279.23,129 21.68,1.1 43.04,0.5 63.94,-1.7 86.29,-9.1 164.82,-44.9 226.18,-99.2 35.02,-31 64.45,-68 86.53,-109.5 25.97,-48.7 41.77,-103.7 44.54,-162.3 5.14,-108.4 7.69,-142.3 0.44,-156.7 z"
         id="path20544" />
    </clipPath>
    <clipPath
       clipPathUnits="userSpaceOnUse"
       id="clipPath20552">
      <path
         d="m 5999.56,8425 c -84.48,-16.7 -250.29,-9 -335.33,-26.5 -20.59,-4.2 -54.59,-15.8 -76.27,-16.9 -111.17,-5.5 -193.26,-38.6 -269.48,28.8 -76.22,67.4 -119.4,23.3 -124.54,131.7 -2.78,58.6 7.75,114.8 28.99,165.9 18.06,43.4 43.85,83.1 75.77,117.4 69.49,74.6 168.06,123.5 279.23,129 21.68,1.1 43.04,0.5 63.94,-1.7 86.29,-9.1 164.82,-44.9 226.18,-99.2 35.02,-31 64.45,-68 86.53,-109.5 25.97,-48.7 41.77,-103.7 44.54,-162.3 5.14,-108.4 7.69,-142.3 0.44,-156.7"
         id="path20550" />
    </clipPath>
    <clipPath
       clipPathUnits="userSpaceOnUse"
       id="clipPath20604">
      <path
         d="m 2346.51,8425 c -69.49,-74.7 -139.25,-10 -250.42,-15.4 -25.07,-1.3 -92.95,1.9 -116.95,5 -82.45,10.7 -218.5,-41.9 -277.53,10.4 -27.12,17.6 -66.04,100.7 -71.18,209.1 -1.83,38.6 2.12,76.2 11.11,112 16.25,64.6 48.93,123.3 93.66,171.3 53.81,57.8 125.08,100.2 206.13,118.9 23.6,5.4 48.03,8.9 73.09,10.1 111.18,5.5 213.91,-33.5 290.13,-100.9 49.06,-43.4 87.14,-98.7 109.41,-161.4 12.34,-34.7 19.83,-71.8 21.66,-110.4 5.13,-108.4 -19.62,-174.1 -89.11,-248.7 z"
         id="path20602" />
    </clipPath>
    <clipPath
       clipPathUnits="userSpaceOnUse"
       id="clipPath20610">
      <path
         d="m 2346.51,8425 c -69.49,-74.7 -139.25,-10 -250.42,-15.4 -25.07,-1.3 -92.95,1.9 -116.95,5 -82.45,10.7 -218.5,-41.9 -277.53,10.4 -27.12,17.6 -66.04,100.7 -71.18,209.1 -1.83,38.6 2.12,76.2 11.11,112 16.25,64.6 48.93,123.3 93.66,171.3 53.81,57.8 125.08,100.2 206.13,118.9 23.6,5.4 48.03,8.9 73.09,10.1 111.18,5.5 213.91,-33.5 290.13,-100.9 49.06,-43.4 87.14,-98.7 109.41,-161.4 12.34,-34.7 19.83,-71.8 21.66,-110.4 5.13,-108.4 -19.62,-174.1 -89.11,-248.7"
         id="path20608" />
    </clipPath>
    <clipPath
       clipPathUnits="userSpaceOnUse"
       id="clipPath20672">
      <path
         d="m 3252.6,8337.4 c -163.74,22.9 -265.06,50.7 -422.92,42.9 -157.86,-7.8 -183,-71.6 -291.23,24.2 -108.23,95.7 -252.02,-147.6 -259.31,6.3 -3.34,70.5 -14.26,62.3 7.29,125.6 25.49,74.9 66.85,143 120.33,200.5 98.67,105.9 238.64,175.3 396.5,183.1 157.87,7.8 303.75,-47.5 411.98,-143.3 58.67,-51.9 106.27,-115.7 138.73,-187.7 27.43,-60.9 44.05,-127.7 47.39,-198.2 7.29,-153.9 -50.09,52.5 -148.76,-53.4 z"
         id="path20670" />
    </clipPath>
    <clipPath
       clipPathUnits="userSpaceOnUse"
       id="clipPath20678">
      <path
         d="m 3252.6,8337.4 c -163.74,22.9 -265.06,50.7 -422.92,42.9 -157.86,-7.8 -183,-71.6 -291.23,24.2 -108.23,95.7 -252.02,-147.6 -259.31,6.3 -3.34,70.5 -14.26,62.3 7.29,125.6 25.49,74.9 66.85,143 120.33,200.5 98.67,105.9 238.64,175.3 396.5,183.1 157.87,7.8 303.75,-47.5 411.98,-143.3 58.67,-51.9 106.27,-115.7 138.73,-187.7 27.43,-60.9 44.05,-127.7 47.39,-198.2 7.29,-153.9 -50.09,52.5 -148.76,-53.4"
         id="path20676" />
    </clipPath>
    <clipPath
       clipPathUnits="userSpaceOnUse"
       id="clipPath20730">
      <path
         d="M 5999.56,8424.9 C 5984.58,8389.2 5037.44,8324 3850.59,8324 c -1186.84,0 -2148.99,45.2 -2148.99,100.9 0,23.1 463.13,110.7 572.21,62.8 73.97,64.8 977.41,78.4 1115.15,-4 115.57,31.3 533.97,34.2 693.61,12 85.09,24 698.63,74.6 1117.27,3 703.37,11.3 804.95,-61.3 799.72,-73.8 z"
         id="path20728" />
    </clipPath>
    <linearGradient
       x1="0"
       y1="0"
       x2="1"
       y2="0"
       gradientUnits="userSpaceOnUse"
       gradientTransform="matrix(0,216.954,216.954,0,3850.67,8324)"
       spreadMethod="pad"
       id="linearGradient20738">
      <stop
         style="stop-opacity:1;stop-color:#e3e3e3"
         offset="0"
         id="stop20732" />
      <stop
         style="stop-opacity:1;stop-color:#e3e3e3"
         offset="0.00518135"
         id="stop20734" />
      <stop
         style="stop-opacity:1;stop-color:#d4d4d4"
         offset="1"
         id="stop20736" />
    </linearGradient>
  </defs>
  <g
     id="g8"
     transform="matrix(1.3333333,0,0,-1.3333333,-220.65852,1339.4833)">
    <g
       id="g6"
       transform="matrix(0.1,0,0,0.1,2.4946543,-14.967926)">
      <path
         d="m 3102.06,8745.9 c 22.6,-476.9 438.31,-387.1 927.46,-363 489.16,24.1 866.54,-26.7 843.94,450.3 -22.6,476.9 -437.47,843.9 -926.62,819.8 -489.16,-24.1 -867.38,-430.2 -844.78,-907.1"
         style="fill:#d4d4d4;fill-opacity:1;fill-rule:nonzero;stroke:none"
         id="path20334" />
      <g
         id="g20336">
        <g
           id="g20338"
           clip-path="url(#clipPath20342)">
          <g
             id="g20344"
             clip-path="url(#clipPath20348)">
            <g
               id="g20350"
               transform="matrix(10,0,0,-10,-64410,91910)">
              <path
                 d="m 6902.7078,8315.8477 c -6.4596,6.9472 -14.0893,12.8949 -22.5964,17.5263 3.7051,-9.8966 6.8008,-22.377 8.824,-35.7838 11.9442,-2.6082 23.0108,-5.8258 31.1767,-9.3603 -3.9976,10.2623 -9.9453,19.5982 -17.4043,27.6178 z"
                 style="fill:#d4d4d4;fill-opacity:1;fill-rule:nonzero;stroke:none"
                 id="path20352" />
              <path
                 d="m 6920.1121,8288.2299 c -8.1659,3.5345 -19.2325,6.7521 -31.1767,9.3603 2.0476,-13.431 3.0226,-27.8128 2.4864,-41.5364 12.6998,-0.39 24.5952,-0.7312 34.4186,-0.8044 0.2925,11.6029 -1.755,22.7427 -5.7283,32.9805 z"
                 style="fill:#e9e9e9;fill-opacity:1;fill-rule:nonzero;stroke:none"
                 id="path20354" />
              <path
                 d="m 6880.1114,8333.374 c -8.5072,4.6314 -17.8675,7.9465 -27.8372,9.6528 -0.073,-11.7979 0.2925,-25.3265 0.4631,-39.8789 11.5054,-0.9994 24.2783,-2.9494 36.1981,-5.5577 -2.0232,13.4068 -5.1189,25.8872 -8.824,35.7838 z"
                 style="fill:#d4d4d4;fill-opacity:1;fill-rule:nonzero;stroke:none"
                 id="path20356" />
              <path
                 d="m 6888.9354,8297.5902 c -11.9198,2.6083 -24.6927,4.5583 -36.1981,5.5577 0.1706,-14.5523 0.1706,-30.1285 -0.585,-46.0215 13.0654,-0.2438 26.5697,-0.6826 39.2695,-1.0726 0.5362,13.7236 -0.4388,28.1054 -2.4864,41.5364 z"
                 style="fill:#e5e5e5;fill-opacity:1;fill-rule:nonzero;stroke:none"
                 id="path20358" />
              <path
                 d="m 6925.8404,8255.2494 c -19.6469,0.1463 -47.5816,1.3651 -73.6881,1.877 -0.024,-0.7557 -0.073,-1.487 -0.097,-2.2426 26.0578,-0.4875 54.09,-1.5357 73.7125,-1.3651 0.024,0.5851 0.049,1.1701 0.073,1.7307 z"
                 style="fill:#f7f7f7;fill-opacity:1;fill-rule:nonzero;stroke:none"
                 id="path20360" />
              <path
                 d="m 6925.7673,8253.5187 c -19.6225,-0.1706 -47.6547,0.8776 -73.7125,1.3651 -0.9507,-17.9894 -2.7545,-35.4425 -4.5339,-51.4086 22.8158,0.4144 50.1167,3.7295 66.7654,11.3347 6.7033,11.4567 10.8229,24.5952 11.481,38.7088 z"
                 style="fill:#f8f8f8;fill-opacity:1;fill-rule:nonzero;stroke:none"
                 id="path20362" />
              <path
                 d="m 6852.2742,8343.0268 c -3.5833,0.6094 -7.264,1.0238 -10.9935,1.1944 -2.3401,-23.6445 -2.5595,-54.1387 -4.1195,-86.0223 4.8508,-0.3413 10.2622,-0.7313 14.9911,-1.0725 1.5113,31.7617 0,62.3046 0.1219,85.9004 z"
                 style="fill:#d4d4d4;fill-opacity:1;fill-rule:nonzero;stroke:none"
                 id="path20364" />
              <path
                 d="m 6841.2807,8344.2212 c -24.449,1.1944 -47.0454,-7.3615 -63.8159,-22.2064 -16.3806,-14.4792 -27.1791,-34.9305 -28.7391,-58.0876 23.3276,-1.8525 56.6738,-3.5345 88.4355,-5.7283 1.56,31.8836 1.7794,62.3778 4.1195,86.0223 z"
                 style="fill:#d4d4d4;fill-opacity:1;fill-rule:nonzero;stroke:none"
                 id="path20366" />
              <path
                 d="m 6852.1523,8257.1264 c -4.7289,0.3412 -10.1403,0.7312 -14.9911,1.0725 -0.049,-0.7556 -0.097,-1.4869 -0.1219,-2.2426 4.8508,-0.3169 10.2622,-0.7069 15.0155,-1.0238 0.024,0.7313 0.073,1.4626 0.097,2.1939 z"
                 style="fill:#ededed;fill-opacity:1;fill-rule:nonzero;stroke:none"
                 id="path20368" />
              <path
                 d="m 6837.1612,8258.1989 c -31.7617,2.1938 -65.1079,3.8758 -88.4355,5.7283 -0.049,-0.5606 -0.073,-1.1213 -0.098,-1.6819 23.279,-2.2426 56.6739,-4.0951 88.4112,-6.289 0.024,0.7557 0.073,1.487 0.1219,2.2426 z"
                 style="fill:#ececec;fill-opacity:1;fill-rule:nonzero;stroke:none"
                 id="path20370" />
              <path
                 d="m 6852.0548,8254.9325 c -4.7533,0.3169 -10.1647,0.7069 -15.0155,1.0238 -0.9263,-18.2575 -2.1695,-35.9787 -2.9739,-52.213 4.217,-0.2194 9.3603,-0.3656 13.4555,-0.2681 1.7794,15.9905 3.6076,33.468 4.5339,51.4573 z"
                 style="fill:#ededed;fill-opacity:1;fill-rule:nonzero;stroke:none"
                 id="path20372" />
              <path
                 d="m 6837.0393,8255.9563 c -31.7373,2.1939 -65.1322,4.0464 -88.4112,6.289 -0.6581,-14.1136 2.1695,-27.5934 7.7516,-39.6595 18.6962,-10.8716 50.0679,-17.4775 77.6857,-18.8425 0.8044,16.2343 2.0476,33.9555 2.9739,52.213 z"
                 style="fill:#ececec;fill-opacity:1;fill-rule:nonzero;stroke:none"
                 id="path20374" />
              <path
                 d="m 6914.2863,8214.8099 c -16.6487,-7.6052 -43.9496,-10.9203 -66.7654,-11.3347 -1.2676,-11.5054 -2.5107,-22.2308 -3.3883,-31.8349 20.1832,1.4382 38.587,9.5066 52.7981,22.0845 6.8496,6.0696 12.7242,13.163 17.3556,21.0851 z"
                 style="fill:#fefefe;fill-opacity:1;fill-rule:nonzero;stroke:none"
                 id="path20376" />
              <path
                 d="m 6847.5209,8203.4752 c -4.0952,-0.098 -9.2385,0.049 -13.4555,0.2681 -0.6337,-11.6273 -1.0238,-22.4745 -0.9506,-32.2248 3.7051,-0.1707 7.4102,-0.1463 11.0178,0.1218 0.8776,9.6041 2.1207,20.3295 3.3883,31.8349 z"
                 style="fill:#f9f9f9;fill-opacity:1;fill-rule:nonzero;stroke:none"
                 id="path20378" />
              <path
                 d="m 6834.0654,8203.7433 c -27.6178,1.365 -58.9895,7.9709 -77.6857,18.8425 3.8757,-8.3365 9.0434,-15.9905 15.2836,-22.6939 15.308,-16.4049 36.9781,-27.1547 61.4515,-28.3734 -0.073,9.7503 0.3169,20.5975 0.9506,32.2248 z"
                 style="fill:#f7f7f7;fill-opacity:1;fill-rule:nonzero;stroke:none"
                 id="path20380" />
            </g>
          </g>
        </g>
      </g>
      <g
         id="g20382">
        <g
           id="g20384"
           clip-path="url(#clipPath20388)">
          <g
             id="g20390"
             clip-path="url(#clipPath20394)">
            <g
               id="g20396"
               transform="matrix(10,0,0,-10,-64410,91910)">
              <path
                 d="m 7000.4396,8327.1079 c -4.191,4.4998 -9.154,8.3599 -14.6684,11.3598 2.4263,-7.4114 4.3674,-15.9258 5.6247,-24.7048 7.8305,-1.1249 15.1317,-2.6469 20.4476,-4.985 -2.5587,6.8158 -6.4629,13.0361 -11.4039,18.33 z"
                 style="fill:#d4d4d4;fill-opacity:1;fill-rule:nonzero;stroke:none"
                 id="path20398" />
              <path
                 d="m 7011.8435,8308.7779 c -5.3159,2.3381 -12.6171,3.8601 -20.4476,4.985 1.2353,-8.801 1.7646,-17.8889 1.4117,-26.4473 8.2938,-0.1765 16.0581,-0.3088 22.499,-0.4412 0.375,7.6982 -0.8823,15.1096 -3.4631,21.9035 z"
                 style="fill:#d4d4d4;fill-opacity:1;fill-rule:nonzero;stroke:none"
                 id="path20400" />
              <path
                 d="m 6985.7712,8338.4677 c 4.8748,-14.8229 7.7643,-34.0132 7.0364,-51.1521 -8.2937,0.1544 -17.0948,0.3309 -25.6753,0.5514 0.7279,18.9036 0.4412,37.763 0.5515,56.799 6.485,-1.0809 12.5729,-3.2205 18.0874,-6.1983 z"
                 style="fill:#d4d4d4;fill-opacity:1;fill-rule:nonzero;stroke:none"
                 id="path20402" />
              <path
                 d="m 7015.3066,8286.8744 c -0.3309,-7.2129 -2.0514,-14.0287 -4.9189,-20.227 -2.8896,-0.8382 -6.1762,-1.5882 -9.7275,-2.2278 2.5587,6.5953 3.7498,15.1978 4.0807,22.6534 3.794,-0.066 7.3453,-0.1324 10.5657,-0.1986 z"
                 style="fill:#d4d4d4;fill-opacity:1;fill-rule:nonzero;stroke:none"
                 id="path20404" />
              <path
                 d="m 7004.7409,8287.073 c -0.3309,-7.4556 -1.522,-16.0581 -4.0807,-22.6534 -3.5513,-0.6618 -7.3452,-1.2132 -11.2715,-1.6764 1.8749,7.5217 3.0881,16.5654 3.4189,24.5724 4.1469,-0.088 8.1614,-0.1544 11.9333,-0.2426 z"
                 style="fill:#e0e0e0;fill-opacity:1;fill-rule:nonzero;stroke:none"
                 id="path20406" />
              <path
                 d="m 6992.8076,8287.3156 c -0.3308,-8.007 -1.544,-17.0507 -3.4189,-24.5724 -3.9484,-0.4632 -7.985,-0.7941 -12.0436,-1.0368 1.2132,8.4482 2.4043,17.3154 2.7352,25.8739 4.3012,-0.1103 8.5804,-0.1985 12.7273,-0.2647 z"
                 style="fill:#e8e8e8;fill-opacity:1;fill-rule:nonzero;stroke:none"
                 id="path20408" />
              <path
                 d="m 6980.0803,8287.5803 c -0.3309,-8.5585 -1.522,-17.4257 -2.7352,-25.8739 -4.0587,-0.2205 -8.0952,-0.3308 -12.0215,-0.3088 0.9264,8.8452 1.4778,17.6463 1.8087,26.4694 4.2792,-0.1103 8.6246,-0.1985 12.948,-0.2867 z"
                 style="fill:#ededed;fill-opacity:1;fill-rule:nonzero;stroke:none"
                 id="path20410" />
              <path
                 d="m 6967.6838,8344.666 c -2.2499,0.397 -4.544,0.6396 -6.9042,0.7499 -1.4117,-18.6168 -1.9852,-37.6527 -2.5807,-56.9312 2.9998,-0.1986 5.9777,-0.3971 8.9334,-0.5956 0.7279,18.9036 0.4412,37.763 0.5515,56.7769 z"
                 style="fill:#d4d4d4;fill-opacity:1;fill-rule:nonzero;stroke:none"
                 id="path20412" />
              <path
                 d="m 6960.7796,8345.4159 c -15.7713,0.772 -30.3736,-4.7424 -41.1819,-14.3376 -10.8304,-9.5731 -17.8889,-23.1828 -18.6168,-38.5791 17.3815,-1.9632 37.2998,-2.7352 57.218,-4.0145 0.5955,19.2785 1.169,38.3144 2.5807,56.9312 z"
                 style="fill:#d4d4d4;fill-opacity:1;fill-rule:nonzero;stroke:none"
                 id="path20414" />
              <path
                 d="m 6967.1323,8287.8891 c -2.9557,0.1985 -5.9336,0.397 -8.9334,0.5956 -0.2868,-8.9996 -0.5735,-17.9772 -1.0147,-26.9106 2.7352,-0.1103 5.4483,-0.1544 8.1394,-0.1765 0.9264,8.8452 1.4778,17.6684 1.8087,26.4915 z"
                 style="fill:#efefef;fill-opacity:1;fill-rule:nonzero;stroke:none"
                 id="path20416" />
              <path
                 d="m 6958.1989,8288.4847 c -19.9182,1.2793 -39.8365,2.0513 -57.218,4.0145 -0.3309,-7.2129 0.7279,-14.1611 2.9998,-20.6241 16.5875,-6.5732 35.1823,-9.551 53.2035,-10.301 0.4412,8.9334 0.7279,17.911 1.0147,26.9106 z"
                 style="fill:#efefef;fill-opacity:1;fill-rule:nonzero;stroke:none"
                 id="path20418" />
              <path
                 d="m 7010.3877,8266.6474 c -3.2425,-7.0364 -7.9187,-13.2788 -13.6758,-18.3742 -2.3161,-2.0293 -4.7866,-3.8822 -7.4115,-5.5365 4.963,5.5586 8.4702,14.1611 11.3598,21.6829 3.5513,0.6396 6.8379,1.3896 9.7275,2.2278 z"
                 style="fill:#d4d4d4;fill-opacity:1;fill-rule:nonzero;stroke:none"
                 id="path20420" />
              <path
                 d="m 7000.6602,8264.4196 c -2.8896,-7.5218 -6.3968,-16.1243 -11.3598,-21.6829 -2.6249,-1.6543 -5.3821,-3.0881 -8.2717,-4.3233 3.2425,6.5953 6.1983,15.7934 8.36,24.3298 3.9263,0.4632 7.7202,1.0146 11.2715,1.6764 z"
                 style="fill:#e4e4e4;fill-opacity:1;fill-rule:nonzero;stroke:none"
                 id="path20422" />
              <path
                 d="m 6989.3887,8262.7432 c -2.1617,-8.5364 -5.1175,-17.7345 -8.36,-24.3298 -2.8895,-1.2132 -5.8894,-2.2058 -8.9996,-2.9337 1.5,7.5879 3.9263,16.6757 5.316,26.2267 4.0586,0.2427 8.0952,0.5736 12.0436,1.0368 z"
                 style="fill:#efefef;fill-opacity:1;fill-rule:nonzero;stroke:none"
                 id="path20424" />
              <path
                 d="m 6977.3451,8261.7064 c -1.3897,-9.551 -3.816,-18.6388 -5.316,-26.2267 -3.1101,-0.75 -6.3085,-1.2353 -9.5731,-1.4558 0.7059,8.0511 1.8308,17.3595 2.8676,27.3737 3.9263,-0.022 7.9628,0.088 12.0215,0.3088 z"
                 style="fill:#f6f6f6;fill-opacity:1;fill-rule:nonzero;stroke:none"
                 id="path20426" />
              <path
                 d="m 6965.3236,8261.3976 c -2.6911,0.022 -5.4042,0.066 -8.1394,0.1765 -0.8161,-10.0804 -1.4999,-19.455 -1.6764,-27.6164 2.3382,-0.1324 4.6542,-0.1103 6.9482,0.066 0.7059,8.0511 1.8308,17.3595 2.8676,27.3737 z"
                 style="fill:#f9f9f9;fill-opacity:1;fill-rule:nonzero;stroke:none"
                 id="path20428" />
              <path
                 d="m 6957.1842,8261.5741 c -18.0212,0.75 -36.616,3.7278 -53.2035,10.301 2.5587,-7.3011 6.6394,-13.9847 11.8671,-19.6094 9.882,-10.5878 23.8666,-17.536 39.66,-18.308 0.1765,8.1614 0.8603,17.536 1.6764,27.6164 z"
                 style="fill:#f8f8f8;fill-opacity:1;fill-rule:nonzero;stroke:none"
                 id="path20430" />
            </g>
          </g>
        </g>
      </g>
      <g
         id="g20432">
        <g
           id="g20434"
           clip-path="url(#clipPath20438)">
          <g
             id="g20440"
             clip-path="url(#clipPath20444)">
            <g
               id="g20446"
               transform="matrix(10,0,0,-10,-64410,91910)">
              <path
                 d="m 6959.1009,8350.2859 c 10.9757,-11.7826 17.6856,9.1541 16.8785,-7.978 -3.8968,-0.8301 -8.2778,-2.0291 -12.9586,-3.4126 0.7148,15.2183 -3.4587,2.3519 -12.5897,15.7256 3.2051,-0.3459 6.1334,-1.591 8.6698,-4.335 z"
                 style="fill:#d4d4d4;fill-opacity:1;fill-rule:nonzero;stroke:none"
                 id="path20448" />
              <path
                 d="m 6950.4311,8354.6209 c 9.131,-13.3737 13.3045,-0.5073 12.5897,-15.7256 -4.6808,-1.3835 -9.6844,-2.9284 -14.8725,-4.4502 0.5304,11.0217 -2.9975,2.3519 -8.0703,19.1843 3.6663,0.807 7.148,1.3604 10.3531,0.9915 z"
                 style="fill:#e6e6e6;fill-opacity:1;fill-rule:nonzero;stroke:none"
                 id="path20450" />
              <path
                 d="m 6940.078,8353.6294 c 5.0728,-16.8324 8.6007,-8.1626 8.0703,-19.1843 -5.165,-1.5219 -10.5144,-3.0206 -15.8639,-4.3119 0.2998,6.8252 -2.6517,0.4381 -3.6662,20.7523 3.9429,0.807 7.7936,1.9138 11.4598,2.7439 z"
                 style="fill:#f4f4f4;fill-opacity:1;fill-rule:nonzero;stroke:none"
                 id="path20452" />
              <path
                 d="m 6928.6182,8350.8855 c 1.0145,-20.3142 3.966,-13.9271 3.6662,-20.7523 -5.3495,-1.2912 -10.722,-2.3519 -15.9792,-2.9975 0.2305,4.9113 -0.4843,1.0145 0.3458,22.8966 4.0121,-0.4381 8.0242,0.069 11.9672,0.8532 z"
                 style="fill:#fcfcfc;fill-opacity:1;fill-rule:nonzero;stroke:none"
                 id="path20454" />
              <path
                 d="m 6975.9794,8342.3079 c -0.4381,-9.2694 -2.9514,-17.9623 -7.0557,-25.6637 -6.733,-2.6055 -15.5642,-4.4963 -25.018,-5.6722 2.4902,9.2001 3.989,17.6394 4.2426,23.4731 10.3531,3.0436 20.0375,6.2026 27.8311,7.8628 z"
                 style="fill:#dcdcdc;fill-opacity:1;fill-rule:nonzero;stroke:none"
                 id="path20456" />
              <path
                 d="m 6948.1483,8334.4451 c -0.2536,-5.8337 -1.7524,-14.273 -4.2426,-23.4731 -9.4538,-1.176 -19.5302,-1.6602 -28.8687,-1.4758 0.8531,10.699 1.1759,15.2414 1.2682,17.6395 10.4914,1.2912 21.5131,4.2657 31.8431,7.3094 z"
                 style="fill:#f1f1f1;fill-opacity:1;fill-rule:nonzero;stroke:none"
                 id="path20458" />
              <path
                 d="m 6916.651,8350.0323 c -1.222,0.1153 -3.7123,2.3519 -4.9574,2.4211 -2.0753,-21.9282 -2.3981,-15.9101 -2.7209,-23.427 2.3289,-0.5534 5.0267,-1.7524 7.3325,-2.2597 0.2536,5.4878 -0.5073,0.8301 0.3458,23.2656 z"
                 style="fill:#ffffff;fill-opacity:1;fill-rule:nonzero;stroke:none"
                 id="path20460" />
              <path
                 d="m 6911.6936,8352.4534 c -2.0753,-21.9282 -2.3981,-15.9101 -2.7209,-23.427 -10.7681,2.3058 -21.2595,5.6954 -31.3128,9.2232 0.5764,12.3361 4.4963,1.8447 11.552,18.1237 6.5024,-1.0146 13.6965,-3.5048 22.4817,-3.9199 z"
                 style="fill:#fefefe;fill-opacity:1;fill-rule:nonzero;stroke:none"
                 id="path20462" />
              <path
                 d="m 6889.2119,8356.3733 c -6.5023,1.0376 -12.313,0.6456 -18.3311,-4.7039 -6.0182,-5.3264 -11.3446,-1.8216 -15.2645,0.8762 7.5861,1.1529 16.2099,-2.4672 25.387,-6.7099 1.9368,0.9454 4.6808,2.3981 8.2086,10.5376 z"
                 style="fill:#f1f1f1;fill-opacity:1;fill-rule:nonzero;stroke:none"
                 id="path20464" />
              <path
                 d="m 6881.0033,8345.8357 c -9.1771,4.2427 -17.8009,7.8628 -25.387,6.7099 -3.9198,2.6978 -6.4562,4.5886 -6.8482,-3.9659 9.131,-3.0437 18.8154,-6.7791 28.8918,-10.3301 0.2766,6.1796 1.4065,6.6408 3.3434,7.5861 z"
                 style="fill:#efefef;fill-opacity:1;fill-rule:nonzero;stroke:none"
                 id="path20466" />
              <path
                 d="m 6916.3052,8326.7667 c -2.3058,0.5073 -5.0036,1.7063 -7.3325,2.2597 -0.1614,-3.574 -0.2998,-8.9926 -0.6456,-19.2765 2.2597,-0.1153 4.4963,-0.1845 6.7099,-0.2537 0.807,10.1686 1.1298,14.7572 1.2682,17.2705 z"
                 style="fill:#f9f9f9;fill-opacity:1;fill-rule:nonzero;stroke:none"
                 id="path20468" />
              <path
                 d="m 6908.9727,8329.0264 c -0.1614,-3.574 -0.2998,-8.9926 -0.6456,-19.2765 -9.3155,0.4842 -18.9538,1.5449 -28.2923,3.5509 -1.5218,9.1771 -2.6747,18.5387 -2.3749,24.9488 10.0533,-3.5278 20.5447,-6.9174 31.3128,-9.2232 z"
                 style="fill:#f9f9f9;fill-opacity:1;fill-rule:nonzero;stroke:none"
                 id="path20470" />
              <path
                 d="m 6877.6599,8338.2496 c -0.2998,-6.4101 0.8531,-15.7717 2.3749,-24.9488 -9.3615,1.983 -18.4464,4.9114 -26.7012,9.0388 -3.3434,8.0703 -5.0036,16.9707 -4.5655,26.2401 9.131,-3.0437 18.8154,-6.7791 28.8918,-10.3301 z"
                 style="fill:#eeeeee;fill-opacity:1;fill-rule:nonzero;stroke:none"
                 id="path20472" />
              <path
                 d="m 6968.9237,8316.6442 c -3.4818,-6.5484 -8.1165,-12.3821 -13.6504,-17.2704 -5.6031,-4.9575 -12.1055,-8.9235 -19.2074,-11.6905 2.9976,6.3871 5.7415,15.2875 7.8398,23.2887 9.4538,1.1759 18.285,3.0667 25.018,5.6722 z"
                 style="fill:#e7e7e7;fill-opacity:1;fill-rule:nonzero;stroke:none"
                 id="path20474" />
              <path
                 d="m 6943.9057,8310.972 c -2.0983,-8.0012 -4.8422,-16.9016 -7.8398,-23.2887 -7.1249,-2.7439 -14.8494,-4.2888 -22.9197,-4.3349 0.4612,7.8859 1.176,16.694 1.8908,26.1478 9.3385,-0.1844 19.4149,0.2998 28.8687,1.4758 z"
                 style="fill:#f4f4f4;fill-opacity:1;fill-rule:nonzero;stroke:none"
                 id="path20476" />
              <path
                 d="m 6915.037,8309.4962 c -1.3835,0.046 -2.7901,0.092 -4.1966,0.1384 -0.6456,-9.4769 -1.176,-18.3081 -1.4065,-26.217 1.2451,-0.069 2.4902,-0.092 3.7123,-0.069 0.4612,7.8859 1.176,16.694 1.8908,26.1478 z"
                 style="fill:#f9f9f9;fill-opacity:1;fill-rule:nonzero;stroke:none"
                 id="path20478" />
              <path
                 d="m 6910.8404,8309.6346 c -0.6456,-9.4769 -1.176,-18.3081 -1.4065,-26.217 -8.7852,0.4381 -17.063,2.5825 -24.5338,6.0873 -2.3981,6.6638 -2.5133,15.3567 -3.6201,23.5192 9.7996,-1.983 19.876,-2.9975 29.5604,-3.3895 z"
                 style="fill:#f8f8f8;fill-opacity:1;fill-rule:nonzero;stroke:none"
                 id="path20480" />
              <path
                 d="m 6881.28,8313.0241 c 1.1068,-8.1625 1.222,-16.8554 3.6201,-23.5192 -7.4708,3.5279 -14.1115,8.3931 -19.5994,14.296 -5.0266,5.4186 -9.1079,11.6904 -11.9671,18.5387 8.6237,-4.3349 18.1467,-7.3094 27.9464,-9.3155 z"
                 style="fill:#f2f2f2;fill-opacity:1;fill-rule:nonzero;stroke:none"
                 id="path20482" />
            </g>
          </g>
        </g>
      </g>
      <g
         id="g20484">
        <g
           id="g20486"
           clip-path="url(#clipPath20490)">
          <g
             id="g20492"
             clip-path="url(#clipPath20496)">
            <g
               id="g20498"
               transform="matrix(10,0,0,-10,-64410,91910)">
              <path
                 d="m 6760.2526,8305.6239 c -10.9773,11.7705 -26.5605,19.4982 -44.114,20.3682 -0.1279,-17.1185 -2.1494,-38.8429 -3.3264,-61.821 22.3128,-0.7165 44.7281,-2.2006 64.0471,-2.0215 0.435,16.6067 -5.9108,31.9852 -16.6067,43.4743 z"
                 style="fill:#d4d4d4;fill-opacity:1;fill-rule:nonzero;stroke:none"
                 id="path20500" />
              <path
                 d="m 6716.1386,8325.9921 c -2.2517,0.1023 -4.4523,0.1023 -6.6529,0 -1.305,-16.9906 -4.222,-38.6637 -5.2967,-61.5652 2.8402,-0.077 5.7061,-0.1535 8.6232,-0.2558 1.177,22.9781 3.1985,44.7025 3.3264,61.821 z"
                 style="fill:#d4d4d4;fill-opacity:1;fill-rule:nonzero;stroke:none"
                 id="path20502" />
              <path
                 d="m 6776.8593,8262.1496 c -19.319,-0.1791 -41.7343,1.305 -64.0471,2.0215 -0.051,-0.5374 -0.077,-1.1003 -0.1024,-1.6633 22.3129,-0.742 44.7281,-2.0982 64.0983,-1.6632 0.026,0.435 0.026,0.87 0.051,1.305 z"
                 style="fill:#e6e6e6;fill-opacity:1;fill-rule:nonzero;stroke:none"
                 id="path20504" />
              <path
                 d="m 6712.8122,8264.1711 c -2.9171,0.1023 -5.783,0.1791 -8.6232,0.2558 -0.026,-0.5629 -0.051,-1.1002 -0.077,-1.6632 2.8403,-0.077 5.7061,-0.1535 8.5976,-0.2559 0.026,0.563 0.051,1.1259 0.1024,1.6633 z"
                 style="fill:#eeeeee;fill-opacity:1;fill-rule:nonzero;stroke:none"
                 id="path20506" />
              <path
                 d="m 6776.8081,8260.8446 c -19.3702,-0.435 -41.7854,0.9212 -64.0983,1.6632 -0.5373,-10.8238 -0.9468,-21.3917 -1.4073,-31.2943 19.8308,-1.1514 40.8131,0.1024 59.518,6.0644 3.48,7.1903 5.5782,15.1482 5.9876,23.5667 z"
                 style="fill:#e6e6e6;fill-opacity:1;fill-rule:nonzero;stroke:none"
                 id="path20508" />
              <path
                 d="m 6712.7098,8262.5078 c -2.8915,0.1024 -5.7573,0.1792 -8.5976,0.2559 -0.4606,-10.6958 -0.5374,-21.1358 -0.4862,-30.9617 2.5332,-0.2302 5.0921,-0.435 7.6765,-0.5885 0.4605,9.9026 0.87,20.4705 1.4073,31.2943 z"
                 style="fill:#efefef;fill-opacity:1;fill-rule:nonzero;stroke:none"
                 id="path20510" />
              <path
                 d="m 6709.4857,8325.9921 c -1.305,-16.9906 -4.222,-38.6637 -5.2967,-61.5652 -9.698,0.7421 -19.7029,1.4586 -29.0938,2.1495 1.1003,19.754 6.5762,40.941 13.1267,54.6307 6.6018,2.7379 13.7665,4.4011 21.2638,4.785 z"
                 style="fill:#d4d4d4;fill-opacity:1;fill-rule:nonzero;stroke:none"
                 id="path20512" />
              <path
                 d="m 6688.2219,8321.2071 c -6.5505,-13.6897 -12.0264,-34.8767 -13.1267,-54.6307 -9.3908,0.6652 -18.1676,1.2794 -25.4346,1.7911 1.1259,16.6067 8.8791,31.2943 20.624,41.6831 5.2712,4.6571 11.31,8.4441 17.9373,11.1565 z"
                 style="fill:#d4d4d4;fill-opacity:1;fill-rule:nonzero;stroke:none"
                 id="path20514" />
              <path
                 d="m 6704.189,8264.4269 c -0.026,-0.5373 -0.051,-1.0747 -0.077,-1.612 -9.6979,0.7421 -19.7029,1.5097 -29.0937,2.2518 0.025,0.4605 0.051,1.0235 0.077,1.5097 9.3909,-0.6909 19.3958,-1.4074 29.0938,-2.1495 z"
                 style="fill:#eeeeee;fill-opacity:1;fill-rule:nonzero;stroke:none"
                 id="path20516" />
              <path
                 d="m 6675.0952,8266.5764 c -0.026,-0.4862 -0.051,-1.0492 -0.077,-1.5097 -9.3909,0.7164 -18.1676,1.4329 -25.4347,2.047 0.026,0.4094 0.051,0.8444 0.077,1.2538 7.267,-0.5117 16.0438,-1.1259 25.4346,-1.7911 z"
                 style="fill:#e8e8e8;fill-opacity:1;fill-rule:nonzero;stroke:none"
                 id="path20518" />
              <path
                 d="m 6704.1122,8262.8149 c -0.4606,-10.7214 -0.5374,-21.187 -0.4862,-31.0129 -4.4267,0.4095 -8.9814,0.9724 -13.5361,1.6889 -0.4606,9.442 -1.1003,20.0867 -0.6397,30.4499 4.8873,-0.3838 9.8258,-0.7677 14.662,-1.1259 z"
                 style="fill:#efefef;fill-opacity:1;fill-rule:nonzero;stroke:none"
                 id="path20520" />
              <path
                 d="m 6689.4502,8263.9408 c -0.4606,-10.3632 0.1791,-21.0079 0.6397,-30.4499 -4.5803,0.6908 -9.135,1.5608 -13.5362,2.5076 -1.3817,8.6744 -1.9702,19.4726 -1.5352,29.0682 4.7082,-0.3839 9.5443,-0.7421 14.4317,-1.1259 z"
                 style="fill:#ededed;fill-opacity:1;fill-rule:nonzero;stroke:none"
                 id="path20522" />
              <path
                 d="m 6675.0185,8265.0667 c -0.435,-9.5956 0.1535,-20.3938 1.5352,-29.0682 -4.3755,0.9724 -8.6232,2.0726 -12.5637,3.2497 -2.3286,7.8556 -2.8915,18.0908 -2.4821,26.8932 4.2732,-0.3583 8.8279,-0.7165 13.5106,-1.0747 z"
                 style="fill:#e8e8e8;fill-opacity:1;fill-rule:nonzero;stroke:none"
                 id="path20524" />
              <path
                 d="m 6661.5079,8266.1414 c -0.4094,-8.8024 0.1535,-19.0376 2.4821,-26.8932 -3.915,1.2026 -7.523,2.4821 -10.6703,3.8382 -2.7891,7.4718 -4.1197,15.6088 -3.7359,24.0273 3.6335,-0.3071 7.6509,-0.6397 11.9241,-0.9723 z"
                 style="fill:#e0e0e0;fill-opacity:1;fill-rule:nonzero;stroke:none"
                 id="path20526" />
              <path
                 d="m 6770.8205,8237.2779 c -18.7049,-5.962 -39.6616,-7.2158 -59.518,-6.0644 -0.1792,-10.6702 -0.4094,-20.5729 -1.0492,-29.2472 17.5791,-0.87 33.802,5.2967 45.854,15.9414 6.1156,5.4247 11.1309,11.9752 14.7132,19.3702 z"
                 style="fill:#f0f0f0;fill-opacity:1;fill-rule:nonzero;stroke:none"
                 id="path20528" />
              <path
                 d="m 6711.3025,8231.2135 c -2.5844,0.1535 -5.1433,0.3583 -7.6765,0.5885 0.026,-10.6446 0.1535,-20.5217 0.026,-29.1705 2.1494,-0.3326 4.3756,-0.5629 6.6017,-0.6652 0.6398,8.6743 0.87,18.577 1.0492,29.2472 z"
                 style="fill:#f8f8f8;fill-opacity:1;fill-rule:nonzero;stroke:none"
                 id="path20530" />
              <path
                 d="m 6703.626,8231.802 c 0.026,-10.6446 0.1535,-20.5217 0.026,-29.1705 -3.7103,0.563 -7.3182,1.433 -10.7982,2.5844 -0.7421,8.2138 -2.3029,18.0909 -2.7635,28.275 4.5547,-0.7165 9.1094,-1.2794 13.5361,-1.6889 z"
                 style="fill:#f9f9f9;fill-opacity:1;fill-rule:nonzero;stroke:none"
                 id="path20532" />
              <path
                 d="m 6690.0899,8233.4909 c 0.4606,-10.1841 2.0214,-20.0612 2.7635,-28.275 -3.4544,1.1515 -6.7809,2.5589 -9.9282,4.2477 -2.7124,7.3182 -4.9129,17.3743 -6.3715,26.5349 4.4012,-0.9468 8.9559,-1.8168 13.5362,-2.5076 z"
                 style="fill:#f6f6f6;fill-opacity:1;fill-rule:nonzero;stroke:none"
                 id="path20534" />
              <path
                 d="m 6676.5537,8235.9985 c 1.4586,-9.1606 3.6591,-19.2167 6.3715,-26.5349 -3.1729,1.6888 -6.1668,3.6079 -8.9815,5.7829 -4.6826,6.397 -7.5229,15.8391 -9.9537,24.0017 3.9405,-1.1771 8.1882,-2.2773 12.5637,-3.2497 z"
                 style="fill:#efefef;fill-opacity:1;fill-rule:nonzero;stroke:none"
                 id="path20536" />
              <path
                 d="m 6663.99,8239.2482 c 2.4308,-8.1626 5.2711,-17.6047 9.9537,-24.0017 -2.7891,2.1494 -5.3991,4.5291 -7.8043,7.0879 -5.5783,5.9877 -9.9538,13.0244 -12.8197,20.752 3.1473,-1.3561 6.7553,-2.6356 10.6703,-3.8382 z"
                 style="fill:#e4e4e4;fill-opacity:1;fill-rule:nonzero;stroke:none"
                 id="path20538" />
            </g>
          </g>
        </g>
      </g>
      <g
         id="g20540">
        <g
           id="g20542"
           clip-path="url(#clipPath20546)">
          <g
             id="g20548"
             clip-path="url(#clipPath20552)">
            <g
               id="g20554"
               transform="matrix(10,0,0,-10,-64410,91910)">
              <path
                 d="m 7040.9505,8348.4955 c 0.7246,-1.4491 0.4688,-4.8375 -0.043,-15.6845 -4.1555,-0.2344 -9.8881,-0.618 -15.7697,-0.8524 0.1491,7.6504 -0.4689,12.1469 -0.9377,17.8155 6.2653,-0.2344 12.5305,-0.4475 16.75,-1.2786 z"
                 style="fill:#d4d4d4;fill-opacity:1;fill-rule:nonzero;stroke:none"
                 id="path20556" />
              <path
                 d="m 7024.2005,8349.7741 c 0.4688,-5.6686 1.0868,-10.1651 0.9377,-17.8155 -5.8817,-0.2344 -11.9339,-0.2984 -16.7074,0.1065 -0.2557,4.4752 -0.8098,9.1635 -1.0229,19.0729 4.2621,-0.8738 10.5273,-1.1295 16.7926,-1.3639 z"
                 style="fill:#d4d4d4;fill-opacity:1;fill-rule:nonzero;stroke:none"
                 id="path20558" />
              <path
                 d="m 7040.9079,8332.811 c -4.1555,-0.2344 -9.8881,-0.618 -15.7697,-0.8524 0,-2.6638 -0.085,-5.3916 -0.4262,-8.3963 5.5833,-0.1492 10.9109,-0.064 14.832,0.7671 0.7672,2.7065 1.2147,5.5621 1.3639,8.4816 z"
                 style="fill:#d4d4d4;fill-opacity:1;fill-rule:nonzero;stroke:none"
                 id="path20560" />
              <path
                 d="m 7039.544,8324.3294 c -0.7458,-2.7064 -1.79,-5.3063 -3.09,-7.757 -1.854,-0.7032 -3.985,-1.3212 -6.2866,-1.8753 1.1934,2.8982 2.0245,5.8817 2.5786,8.8865 2.5146,0.1065 4.8375,0.3196 6.798,0.7458 z"
                 style="fill:#d4d4d4;fill-opacity:1;fill-rule:nonzero;stroke:none"
                 id="path20562" />
              <path
                 d="m 7032.746,8323.5836 c -0.5541,-3.0048 -1.3852,-5.9883 -2.5786,-8.8865 -2.3015,-0.5327 -4.7735,-0.9803 -7.3521,-1.3639 0.9803,3.8785 1.5557,7.203 1.8967,10.2291 2.7916,-0.085 5.5194,-0.1066 8.034,0.021 z"
                 style="fill:#e2e2e2;fill-opacity:1;fill-rule:nonzero;stroke:none"
                 id="path20564" />
              <path
                 d="m 7025.1382,8331.9586 c 0,-2.6638 -0.085,-5.3916 -0.4262,-8.3963 -2.7917,0.064 -5.626,0.2131 -8.3964,0.3409 0.1705,2.9835 0.1492,5.3916 0.064,7.8849 2.8343,-0.021 5.8177,0.064 8.7586,0.1705 z"
                 style="fill:#e5e5e5;fill-opacity:1;fill-rule:nonzero;stroke:none"
                 id="path20566" />
              <path
                 d="m 7016.3796,8331.7881 c 0.085,-2.4933 0.1065,-4.9014 -0.064,-7.8849 -2.749,0.1279 -5.4341,0.2558 -7.8848,0.341 0.1705,3.0687 0.1278,5.4128 0,7.8209 2.3867,-0.1918 5.0932,-0.277 7.9488,-0.277 z"
                 style="fill:#ececec;fill-opacity:1;fill-rule:nonzero;stroke:none"
                 id="path20568" />
              <path
                 d="m 7024.712,8323.5623 c -0.341,-3.0261 -0.9164,-6.3506 -1.8967,-10.2291 -2.5572,-0.3622 -5.1997,-0.6606 -7.8209,-0.8737 0.7672,4.8588 1.1508,8.4603 1.3212,11.4437 2.7704,-0.1278 5.6047,-0.277 8.3964,-0.3409 z"
                 style="fill:#ececec;fill-opacity:1;fill-rule:nonzero;stroke:none"
                 id="path20570" />
              <path
                 d="m 7016.3156,8323.9032 c -0.1704,-2.9834 -0.554,-6.5849 -1.3212,-11.4437 -2.6212,-0.2131 -5.2424,-0.3623 -7.7357,-0.4262 0.6606,5.3276 1.0229,9.1209 1.1721,12.2109 2.4507,-0.085 5.1358,-0.2131 7.8848,-0.341 z"
                 style="fill:#f4f4f4;fill-opacity:1;fill-rule:nonzero;stroke:none"
                 id="path20572" />
              <path
                 d="m 7007.4079,8351.138 c -2.0458,0.4262 -5.4555,1.5769 -7.6292,1.6835 -0.6393,-6.0735 -1.0016,-9.8667 -1.1933,-13.1272 2.7277,-0.2558 6.8619,-2.0245 9.4831,-2.4294 -0.2344,3.367 -0.5114,7.5439 -0.6606,13.8731 z"
                 style="fill:#d4d4d4;fill-opacity:1;fill-rule:nonzero;stroke:none"
                 id="path20574" />
              <path
                 d="m 7008.0685,8337.2649 c -2.6212,0.4049 -6.7554,2.1736 -9.4831,2.4294 -0.1918,-3.2605 -0.2345,-5.967 -0.2345,-9.8455 3.2818,-0.4049 7.0112,-1.1294 10.1864,-1.5343 0,3.0261 -0.2131,5.5833 -0.4688,8.9504 z"
                 style="fill:#e7e7e7;fill-opacity:1;fill-rule:nonzero;stroke:none"
                 id="path20576" />
              <path
                 d="m 6999.7787,8352.8215 c -11.1027,0.5541 -19.3072,3.8572 -26.9364,-2.8769 -3.8145,-3.3671 -6.798,-3.9638 -8.8864,-5.0506 9.4831,2.5573 22.2268,-4.1342 34.6295,-5.1997 0.1917,3.2605 0.554,7.0537 1.1933,13.1272 z"
                 style="fill:#d4d4d4;fill-opacity:1;fill-rule:nonzero;stroke:none"
                 id="path20578" />
              <path
                 d="m 6998.5854,8339.6943 c -12.4027,1.0655 -25.1464,7.757 -34.6295,5.1997 -2.1098,-1.0868 -3.3031,-2.7064 -3.5802,-8.1193 11.3585,-1.6196 24.2726,-5.3489 37.9752,-6.9259 0,3.8785 0.043,6.585 0.2345,9.8455 z"
                 style="fill:#e6e6e6;fill-opacity:1;fill-rule:nonzero;stroke:none"
                 id="path20580" />
              <path
                 d="m 7008.5373,8328.3145 c -3.1752,0.4049 -6.9046,1.1294 -10.1864,1.5343 0,-4.6883 0.021,-9.9306 -0.277,-17.7089 3.1113,-0.1492 6.2013,-0.1705 9.1848,-0.1066 0.9803,7.9275 1.2999,12.4879 1.2786,16.2812 z"
                 style="fill:#f3f3f3;fill-opacity:1;fill-rule:nonzero;stroke:none"
                 id="path20582" />
              <path
                 d="m 6998.3509,8329.8488 c -13.7026,1.577 -26.6167,5.3063 -37.9752,6.9259 -0.2557,-5.8603 0.7885,-11.4863 2.9196,-16.5795 10.3355,-5.1997 22.8234,-7.5013 34.7786,-8.0553 0.2983,7.7783 0.277,13.0206 0.277,17.7089 z"
                 style="fill:#f2f2f2;fill-opacity:1;fill-rule:nonzero;stroke:none"
                 id="path20584" />
              <path
                 d="m 7036.454,8316.5724 c -2.2163,-4.1342 -5.1571,-7.8422 -8.652,-10.9322 -1.5344,-1.3639 -3.1753,-2.5999 -4.9227,-3.708 3.0474,3.367 5.3063,8.3537 7.2881,12.7649 2.3016,0.5541 4.4326,1.1721 6.2866,1.8753 z"
                 style="fill:#d4d4d4;fill-opacity:1;fill-rule:nonzero;stroke:none"
                 id="path20586" />
              <path
                 d="m 7030.1674,8314.6971 c -1.9818,-4.4112 -4.2407,-9.3979 -7.2881,-12.7649 -1.7262,-1.1295 -3.5589,-2.1098 -5.4555,-2.9409 2.0245,3.9638 3.9211,9.2914 5.3915,14.3419 2.5786,0.3836 5.0506,0.8312 7.3521,1.3639 z"
                 style="fill:#e4e4e4;fill-opacity:1;fill-rule:nonzero;stroke:none"
                 id="path20588" />
              <path
                 d="m 7022.8153,8313.3332 c -1.4704,-5.0505 -3.367,-10.3781 -5.3915,-14.3419 -1.8966,-0.8524 -3.8785,-1.5556 -5.9243,-2.1097 1.0229,4.5604 2.5146,9.9093 3.4949,15.5779 2.6212,0.2131 5.2637,0.5115 7.8209,0.8737 z"
                 style="fill:#efefef;fill-opacity:1;fill-rule:nonzero;stroke:none"
                 id="path20590" />
              <path
                 d="m 7014.9944,8312.4595 c -0.9803,-5.6686 -2.472,-11.0175 -3.4949,-15.5779 -2.0458,-0.5328 -4.1556,-0.9377 -6.3292,-1.1508 0.5754,4.8162 1.3425,10.3569 2.0884,16.3025 2.4933,0.064 5.1145,0.2131 7.7357,0.4262 z"
                 style="fill:#f6f6f6;fill-opacity:1;fill-rule:nonzero;stroke:none"
                 id="path20592" />
              <path
                 d="m 7007.2587,8312.0333 c -2.3868,-0.043 -4.8375,-0.043 -7.3095,0.021 -0.5541,-5.9882 -1.0016,-11.5929 -1.1721,-16.5156 2.1737,-0.1065 4.3048,-0.043 6.3932,0.1918 0.5754,4.8162 1.3425,10.3569 2.0884,16.3025 z"
                 style="fill:#f9f9f9;fill-opacity:1;fill-rule:nonzero;stroke:none"
                 id="path20594" />
              <path
                 d="m 6999.9492,8312.0546 c -12.5092,0.4049 -25.7856,2.6638 -36.6539,8.1406 1.79,-4.3473 4.3686,-8.3324 7.5652,-11.742 6.9472,-7.48 16.8139,-12.3601 27.9166,-12.9142 0.1705,4.9227 0.618,10.5274 1.1721,16.5156 z"
                 style="fill:#f8f8f8;fill-opacity:1;fill-rule:nonzero;stroke:none"
                 id="path20596" />
            </g>
          </g>
        </g>
      </g>
      <g
         id="g20598">
        <g
           id="g20600"
           clip-path="url(#clipPath20604)">
          <g
             id="g20606"
             clip-path="url(#clipPath20610)">
            <g
               id="g20612"
               transform="matrix(10,0,0,-10,-64410,91910)">
              <path
                 d="m 6675.6352,8348.4777 c -3.4687,3.7355 -6.9641,3.9756 -10.9664,3.3619 1.8144,-4.7761 2.6149,-9.3388 2.8817,-13.9548 5.5499,1.0139 10.7262,1.5476 15.3423,-0.5603 -1.4142,3.9223 -3.7889,7.4443 -7.2576,11.1532 z"
                 style="fill:#d4d4d4;fill-opacity:1;fill-rule:nonzero;stroke:none"
                 id="path20614" />
              <path
                 d="m 6682.8928,8337.3245 c -4.6161,2.1079 -9.7924,1.5742 -15.3423,0.5603 0.2668,-4.616 -0.027,-9.3121 -0.4269,-14.4084 5.9234,0.3736 11.6868,0.6671 17.4235,0.1334 0.2668,5.4165 -0.2402,9.7657 -1.6543,13.7147 z"
                 style="fill:#cfcfcf;fill-opacity:1;fill-rule:nonzero;stroke:none"
                 id="path20616" />
              <path
                 d="m 6664.6688,8351.8396 c -4.0023,-0.6137 -8.5116,-2.0812 -14.0615,-1.8144 0.1334,-5.8434 -0.053,-10.2459 -0.4269,-14.355 5.9768,-0.2668 11.8469,1.2007 17.3701,2.2146 -0.2668,4.616 -1.0673,9.1787 -2.8817,13.9548 z"
                 style="fill:#d4d4d4;fill-opacity:1;fill-rule:nonzero;stroke:none"
                 id="path20618" />
              <path
                 d="m 6667.5505,8337.8848 c -5.5232,-1.0139 -11.3933,-2.4814 -17.3701,-2.2146 -0.3469,-4.1091 -0.8806,-7.9513 -1.4142,-12.6741 6.377,-0.2935 12.4339,0.1334 18.3574,0.4803 0.4002,5.0963 0.6937,9.7924 0.4269,14.4084 z"
                 style="fill:#dbdbdb;fill-opacity:1;fill-rule:nonzero;stroke:none"
                 id="path20620" />
              <path
                 d="m 6650.6073,8350.0252 c -2.5082,0.1334 -9.3121,-0.1867 -11.7135,-0.5069 -0.8805,-6.3504 -1.7877,-10.753 -2.5615,-14.6219 3.3619,0.027 10.4327,0.9072 13.8481,0.7738 0.3735,4.1091 0.5603,8.5116 0.4269,14.355 z"
                 style="fill:#d4d4d4;fill-opacity:1;fill-rule:nonzero;stroke:none"
                 id="path20622" />
              <path
                 d="m 6650.1804,8335.6702 c -3.4154,0.1334 -10.4862,-0.7471 -13.8481,-0.7738 -0.7738,-3.8422 -1.4409,-7.1508 -1.8411,-11.3133 4.3225,-0.2668 9.8991,-0.4269 14.275,-0.587 0.5336,4.7228 1.0673,8.565 1.4142,12.6741 z"
                 style="fill:#e6e6e6;fill-opacity:1;fill-rule:nonzero;stroke:none"
                 id="path20624" />
              <path
                 d="m 6684.5471,8323.6098 c -0.1868,-3.8689 -0.9339,-7.5777 -2.1613,-11.0464 -5.79,-0.8805 -11.6068,-1.5209 -17.4235,-1.8678 0.8272,4.1891 1.8678,9.0186 2.1613,12.7808 5.9234,0.3736 11.6868,0.6671 17.4235,0.1334 z"
                 style="fill:#cccccc;fill-opacity:1;fill-rule:nonzero;stroke:none"
                 id="path20626" />
              <path
                 d="m 6667.1236,8323.4764 c -0.2935,-3.7622 -1.3341,-8.5917 -2.1613,-12.7808 -5.8434,-0.3735 -11.6868,-0.4803 -17.5035,-0.3468 0.4002,4.9095 0.8538,8.9385 1.3074,12.6473 6.377,-0.2935 12.4339,0.1334 18.3574,0.4803 z"
                 style="fill:#e3e3e3;fill-opacity:1;fill-rule:nonzero;stroke:none"
                 id="path20628" />
              <path
                 d="m 6648.7662,8322.9961 c -4.3759,0.1601 -9.9525,0.3202 -14.275,0.587 -0.3202,-3.3619 -0.4803,-7.2575 -0.3736,-12.4606 4.456,-0.4002 8.8852,-0.6403 13.3412,-0.7737 0.4002,4.9095 0.8538,8.9385 1.3074,12.6473 z"
                 style="fill:#f2f2f2;fill-opacity:1;fill-rule:nonzero;stroke:none"
                 id="path20630" />
              <path
                 d="m 6638.8938,8349.5183 c -4.1091,-0.5337 -9.579,0.5069 -14.7553,1.0406 -1.094,-3.442 -2.348,-7.1509 -3.442,-11.1532 5.4165,-1.8944 11.1265,-4.0824 15.7692,-3.8422 0.7471,3.7088 1.6009,7.978 2.4281,13.9548 z"
                 style="fill:#d4d4d4;fill-opacity:1;fill-rule:nonzero;stroke:none"
                 id="path20632" />
              <path
                 d="m 6636.4657,8335.5635 c -0.7471,-3.7089 -1.3875,-6.8574 -1.8144,-10.6196 -2.5882,0.027 -5.3098,0.2402 -8.058,0.5337 0.4002,4.029 1.2807,7.471 2.2946,11.2065 2.6683,-0.7471 5.2564,-1.2274 7.5778,-1.1206 z"
                 style="fill:#e8e8e8;fill-opacity:1;fill-rule:nonzero;stroke:none"
                 id="path20634" />
              <path
                 d="m 6628.8879,8336.6841 c -1.0139,-3.7355 -1.8944,-7.1775 -2.2946,-11.2065 -2.7216,0.2935 -5.4966,0.667 -8.1915,1.0406 0.3469,4.5893 1.2274,8.8852 2.2947,12.8875 2.7216,-0.9606 5.4965,-1.9745 8.1914,-2.7216 z"
                 style="fill:#e6e6e6;fill-opacity:1;fill-rule:nonzero;stroke:none"
                 id="path20636" />
              <path
                 d="m 6624.1385,8350.5589 c -5.1497,0.5336 -10.0325,0.5336 -12.9943,-2.0812 -1.3607,-0.8805 -3.015,-3.3887 -4.3758,-7.0441 3.4153,1.4408 8.5383,-0.1335 13.9281,-2.0279 1.094,4.0023 2.348,7.7112 3.442,11.1532 z"
                 style="fill:#d4d4d4;fill-opacity:1;fill-rule:nonzero;stroke:none"
                 id="path20638" />
              <path
                 d="m 6620.6965,8339.4057 c -5.3898,1.8944 -10.5128,3.4687 -13.9281,2.0279 -1.3875,-3.6555 -2.4815,-8.4316 -2.7483,-13.8481 3.9223,0.2668 8.9919,-0.3469 14.3817,-1.0673 0.3469,4.5893 1.2274,8.8852 2.2947,12.8875 z"
                 style="fill:#e0e0e0;fill-opacity:1;fill-rule:nonzero;stroke:none"
                 id="path20640" />
              <path
                 d="m 6634.6513,8324.9439 c -0.4269,-3.6554 -0.6404,-7.8979 -0.5337,-13.8214 -2.5614,0.2402 -5.203,0.5604 -7.7912,0.9339 -0.2401,5.5499 -0.1067,9.739 0.2669,13.4212 2.7482,-0.2935 5.4698,-0.507 8.058,-0.5337 z"
                 style="fill:#f5f5f5;fill-opacity:1;fill-rule:nonzero;stroke:none"
                 id="path20642" />
              <path
                 d="m 6626.5933,8325.4776 c -0.3736,-3.6822 -0.507,-7.8713 -0.2669,-13.4212 -2.5881,0.4003 -5.1763,0.8272 -7.6578,1.3074 -0.5069,4.7495 -0.587,9.3922 -0.2668,13.1544 2.6949,-0.3736 5.4699,-0.7471 8.1915,-1.0406 z"
                 style="fill:#f2f2f2;fill-opacity:1;fill-rule:nonzero;stroke:none"
                 id="path20644" />
              <path
                 d="m 6618.4018,8326.5182 c -0.3202,-3.7622 -0.2401,-8.4049 0.2668,-13.1544 -2.5081,0.4803 -4.9095,0.9873 -7.1775,1.4943 -0.8004,3.9489 -1.0673,8.725 -0.8271,12.5673 2.4281,-0.2135 5.0429,-0.5603 7.7378,-0.9072 z"
                 style="fill:#ebebeb;fill-opacity:1;fill-rule:nonzero;stroke:none"
                 id="path20646" />
              <path
                 d="m 6610.664,8327.4254 c -0.2402,-3.8423 0.027,-8.6184 0.8271,-12.5673 -2.2947,0.5069 -4.4292,1.0139 -6.3504,1.5208 -0.9071,3.5755 -1.2807,7.3377 -1.1206,11.2066 1.9478,0.1334 4.2158,0.053 6.6439,-0.1601 z"
                 style="fill:#e0e0e0;fill-opacity:1;fill-rule:nonzero;stroke:none"
                 id="path20648" />
              <path
                 d="m 6682.3858,8312.5634 c -6.5105,-0.9873 -13.0209,-1.6543 -19.5848,-2.0012 -0.587,-3.7889 -1.0406,-7.8712 -1.7076,-11.6868 5.9501,1.0406 11.6601,2.7216 16.8098,4.9095 1.8677,2.6949 3.362,5.6567 4.4826,8.7785 z"
                 style="fill:#cccccc;fill-opacity:1;fill-rule:nonzero;stroke:none"
                 id="path20650" />
              <path
                 d="m 6677.9032,8303.7849 c -5.1497,-2.1879 -10.8597,-3.8689 -16.8098,-4.9095 -0.6404,-3.8422 -1.4942,-7.4177 -2.855,-10.2193 4.9095,1.7343 9.3921,4.4026 13.2077,7.7912 2.4548,2.1613 4.616,4.616 6.4571,7.3376 z"
                 style="fill:#cecece;fill-opacity:1;fill-rule:nonzero;stroke:none"
                 id="path20652" />
              <path
                 d="m 6662.801,8310.5622 c -1.174,-7.6044 -1.841,-16.2761 -4.5626,-21.9061 -4.9095,-1.761 -10.246,-2.5882 -15.8226,-2.3214 0.507,6.9107 0.6137,15.2623 0.7204,24.1742 6.5639,-0.2936 13.1277,-0.2936 19.6648,0.053 z"
                 style="fill:#e9e9e9;fill-opacity:1;fill-rule:nonzero;stroke:none"
                 id="path20654" />
              <path
                 d="m 6643.1362,8310.5089 c -3.015,0.1334 -6.0035,0.3468 -9.0186,0.6136 0.1601,-8.7784 0.7205,-17.0232 1.014,-23.7738 2.348,-0.5337 4.8028,-0.8805 7.2842,-1.014 0.507,6.9107 0.6137,15.2623 0.7204,24.1742 z"
                 style="fill:#f7f7f7;fill-opacity:1;fill-rule:nonzero;stroke:none"
                 id="path20656" />
              <path
                 d="m 6634.1176,8311.1225 c 0.1601,-8.7784 0.7205,-17.0232 1.014,-23.7738 -2.0279,0.4803 -4.0024,1.0939 -5.8968,1.841 -0.9339,6.4305 -2.5081,14.4351 -2.9084,22.8667 2.5882,-0.3735 5.2298,-0.6937 7.7912,-0.9339 z"
                 style="fill:#f9f9f9;fill-opacity:1;fill-rule:nonzero;stroke:none"
                 id="path20658" />
              <path
                 d="m 6626.3264,8312.0564 c 0.4003,-8.4316 1.9745,-16.4362 2.9084,-22.8667 -1.8944,0.7472 -3.7088,1.6277 -5.4432,2.6416 -2.3747,5.79 -4.2424,13.9014 -5.123,21.5325 2.4815,-0.4802 5.0697,-0.9071 7.6578,-1.3074 z"
                 style="fill:#f6f6f6;fill-opacity:1;fill-rule:nonzero;stroke:none"
                 id="path20660" />
              <path
                 d="m 6618.6686,8313.3638 c 0.8806,-7.6311 2.7483,-15.7425 5.123,-21.5325 -1.7343,1.0139 -3.3886,2.1346 -4.9362,3.3886 -3.8155,5.0963 -5.9768,12.8075 -7.3643,19.6382 2.268,-0.507 4.6694,-1.014 7.1775,-1.4943 z"
                 style="fill:#efefef;fill-opacity:1;fill-rule:nonzero;stroke:none"
                 id="path20662" />
              <path
                 d="m 6611.4911,8314.8581 c 1.3875,-6.8307 3.5488,-14.5419 7.3643,-19.6382 -1.5476,1.2274 -3.0151,2.5882 -4.3492,4.029 -4.4826,4.8029 -7.7378,10.6729 -9.3655,17.13 1.9212,-0.5069 4.0557,-1.0139 6.3504,-1.5208 z"
                 style="fill:#e4e4e4;fill-opacity:1;fill-rule:nonzero;stroke:none"
                 id="path20664" />
            </g>
          </g>
        </g>
      </g>
      <g
         id="g20666">
        <g
           id="g20668"
           clip-path="url(#clipPath20672)">
          <g
             id="g20674"
             clip-path="url(#clipPath20678)">
            <g
               id="g20680"
               transform="matrix(10,0,0,-10,-64410,91910)">
              <path
                 d="m 6766.2519,8357.2346 c -8.185,-1.1361 -14.8208,-2.4013 -21.3791,-3.2792 2.2464,-7.5911 4.5185,-7.746 6.171,-7.1263 9.2436,3.5115 18.2807,7.5136 26.6206,9.5534 -2.5821,-1.9107 -6.4809,-4.4411 -11.4125,0.8521 z"
                 style="fill:#d4d4d4;fill-opacity:1;fill-rule:nonzero;stroke:none"
                 id="path20682" />
              <path
                 d="m 6777.6644,8356.3825 c -8.3399,-2.0398 -17.377,-6.0419 -26.6206,-9.5534 1.6525,0.5938 2.7111,1.9623 2.4788,-2.6337 9.7858,2.1173 19.1327,4.7767 27.6016,7.6944 0.3615,7.6944 -0.8778,6.4034 -3.4598,4.4927 z"
                 style="fill:#d4d4d4;fill-opacity:1;fill-rule:nonzero;stroke:none"
                 id="path20684" />
              <path
                 d="m 6744.8728,8353.9554 c -6.5325,-0.9037 -13.0133,-1.3943 -20.9142,-1.007 -0.4648,-9.8891 -0.5939,-12.4711 -0.6456,-12.9617 9.0887,0.2324 18.4872,3.305 27.7308,6.8424 -1.6525,-0.6197 -3.9246,-0.4648 -6.171,7.1263 z"
                 style="fill:#d4d4d4;fill-opacity:1;fill-rule:nonzero;stroke:none"
                 id="path20686" />
              <path
                 d="m 6751.0438,8346.8291 c 1.6525,0.5938 2.7111,1.9623 2.4788,-2.6337 -4.88,-1.0844 -9.8891,-2.014 -14.9499,-2.7886 0.1291,2.4788 -0.5938,0.7746 -1.4459,0.7488 4.6476,1.2394 9.2952,2.8919 13.917,4.6735 z"
                 style="fill:#e1e1e1;fill-opacity:1;fill-rule:nonzero;stroke:none"
                 id="path20688" />
              <path
                 d="m 6737.1268,8342.1556 c 0.8521,0.026 1.575,1.73 1.4459,-0.7488 -5.0607,-0.7746 -10.1989,-1.3684 -15.3113,-1.7816 0.077,1.4976 0.026,-0.1032 0.052,0.3615 4.5444,0.1291 9.1662,0.9554 13.8138,2.1689 z"
                 style="fill:#e7e7e7;fill-opacity:1;fill-rule:nonzero;stroke:none"
                 id="path20690" />
              <path
                 d="m 6781.1242,8351.8898 c -0.3356,-7.0489 -1.9881,-13.7105 -4.7509,-19.804 -3.4082,-0.9295 -7.307,-1.7558 -11.4899,-2.4529 2.3755,6.3775 2.6337,11.9805 2.9435,18.0999 4.6218,1.3168 9.0628,2.7111 13.2973,4.157 z"
                 style="fill:#d4d4d4;fill-opacity:1;fill-rule:nonzero;stroke:none"
                 id="path20692" />
              <path
                 d="m 6767.8269,8347.7328 c -0.3098,-6.1194 -0.568,-11.7224 -2.9435,-18.0999 -4.2087,-0.723 -8.7272,-1.291 -13.4006,-1.73 1.5492,7.0231 1.8332,12.1613 2.0398,16.2925 4.9058,1.0586 9.6825,2.2464 14.3043,3.5374 z"
                 style="fill:#e1e1e1;fill-opacity:1;fill-rule:nonzero;stroke:none"
                 id="path20694" />
              <path
                 d="m 6753.5226,8344.1954 c -0.2066,-4.1312 -0.4906,-9.2694 -2.0398,-16.2925 -4.6735,-0.4131 -9.5276,-0.6971 -14.3818,-0.8262 0.7488,7.6685 1.3684,12.2129 1.4717,14.3301 5.0608,0.7746 10.0699,1.7042 14.9499,2.7886 z"
                 style="fill:#ececec;fill-opacity:1;fill-rule:nonzero;stroke:none"
                 id="path20696" />
              <path
                 d="m 6738.5727,8341.4068 c -0.1033,-2.1172 -0.7229,-6.6616 -1.4717,-14.3301 -4.8542,-0.1033 -9.7084,-0.077 -14.4593,0.1549 0.3873,7.9526 0.5422,11.1801 0.6197,12.3936 5.1124,0.4132 10.2506,1.007 15.3113,1.7816 z"
                 style="fill:#f3f3f3;fill-opacity:1;fill-rule:nonzero;stroke:none"
                 id="path20698" />
              <path
                 d="m 6723.9586,8352.9484 c -7.901,0.3873 -12.4712,2.1947 -16.4216,2.6853 -2.9693,-7.9009 -6.2227,-8.1075 -8.8047,-7.746 7.4362,-3.305 15.5437,-7.2038 24.5807,-7.9784 0.026,0.077 0.1291,2.0398 0.6456,13.0391 z"
                 style="fill:#d4d4d4;fill-opacity:1;fill-rule:nonzero;stroke:none"
                 id="path20700" />
              <path
                 d="m 6723.313,8339.9093 c -9.037,0.7746 -17.1445,4.6734 -24.5807,7.9784 -2.582,0.3615 -4.4927,1.291 -4.7509,-4.3378 9.1662,-2.2205 19.0294,-4.312 29.2025,-5.4739 0.1808,3.5374 0.1033,1.7558 0.1291,1.8333 z"
                 style="fill:#ebebeb;fill-opacity:1;fill-rule:nonzero;stroke:none"
                 id="path20702" />
              <path
                 d="m 6707.537,8355.6337 c -3.9505,0.4906 -7.2813,-0.3098 -12.7035,-5.0866 -5.4222,-4.8025 -11.7223,-1.1102 -16.7573,1.8591 6.4292,1.5234 13.2199,-1.2136 20.6561,-4.5185 2.582,-0.3615 5.8354,-0.1549 8.8047,7.746 z"
                 style="fill:#d4d4d4;fill-opacity:1;fill-rule:nonzero;stroke:none"
                 id="path20704" />
              <path
                 d="m 6698.7323,8347.8877 c -7.4362,3.3049 -14.2269,6.0419 -20.6561,4.5185 -5.0349,2.9435 -8.8046,5.1898 -9.1661,-2.5046 7.4104,-1.7557 15.8794,-4.1054 25.0713,-6.3517 0.2582,5.6288 2.1689,4.6993 4.7509,4.3378 z"
                 style="fill:#e6e6e6;fill-opacity:1;fill-rule:nonzero;stroke:none"
                 id="path20706" />
              <path
                 d="m 6723.1839,8338.076 c -0.1032,-1.8332 -0.2582,-5.1123 -0.5422,-10.8444 -9.4501,0.4648 -19.3909,1.7299 -28.6086,3.5115 -0.9554,6.0161 -0.2841,8.3657 -0.052,12.8068 9.1662,-2.2205 19.0294,-4.312 29.2025,-5.4739 z"
                 style="fill:#f7f7f7;fill-opacity:1;fill-rule:nonzero;stroke:none"
                 id="path20708" />
              <path
                 d="m 6693.9814,8343.5499 c -0.2324,-4.4411 -0.9037,-6.7907 0.052,-12.8068 -9.2436,1.7816 -17.7643,4.0796 -24.4,6.61 -2.1431,6.3259 -1.0587,5.4997 -0.723,12.5485 7.4104,-1.7557 15.8794,-4.1054 25.0713,-6.3517 z"
                 style="fill:#f1f1f1;fill-opacity:1;fill-rule:nonzero;stroke:none"
                 id="path20710" />
              <path
                 d="m 6776.3733,8332.0858 c -3.2275,-7.2038 -8.0042,-13.5814 -13.8653,-18.7712 -2.7112,-2.4013 -5.6546,-4.5444 -8.7789,-6.3776 5.0091,5.6804 8.3399,15.0015 11.1543,22.6959 4.1829,0.6971 8.0817,1.5234 11.4899,2.4529 z"
                 style="fill:#d4d4d4;fill-opacity:1;fill-rule:nonzero;stroke:none"
                 id="path20712" />
              <path
                 d="m 6764.8834,8329.6329 c -2.8144,-7.6944 -6.1452,-17.0155 -11.1543,-22.6959 -3.1242,-1.859 -6.4808,-3.4341 -9.9665,-4.6734 3.15,6.8165 5.8611,16.8863 7.7202,25.6393 4.6734,0.439 9.1919,1.007 13.4006,1.73 z"
                 style="fill:#e4e4e4;fill-opacity:1;fill-rule:nonzero;stroke:none"
                 id="path20714" />
              <path
                 d="m 6751.4828,8327.9029 c -1.8591,-8.753 -4.5702,-18.8228 -7.7202,-25.6393 -3.4857,-1.2394 -7.1264,-2.1689 -10.8703,-2.7111 1.2394,7.9009 3.305,17.7125 4.2087,27.5242 4.8542,0.1291 9.7083,0.4131 14.3818,0.8262 z"
                 style="fill:#efefef;fill-opacity:1;fill-rule:nonzero;stroke:none"
                 id="path20716" />
              <path
                 d="m 6737.101,8327.0767 c -0.9037,-9.8117 -2.9693,-19.6233 -4.2087,-27.5242 -3.7697,-0.5681 -7.6427,-0.7746 -11.5674,-0.5681 0.3873,8.4174 0.8521,17.9708 1.3168,28.2472 4.7509,-0.2324 9.6051,-0.2582 14.4593,-0.1549 z"
                 style="fill:#f6f6f6;fill-opacity:1;fill-rule:nonzero;stroke:none"
                 id="path20718" />
              <path
                 d="m 6722.6417,8327.2316 c -0.4647,-10.2764 -0.9295,-19.8298 -1.3168,-28.2472 -7.9009,0.3873 -15.3371,2.3238 -22.0504,5.4739 -2.4787,7.0747 -4.2086,17.4027 -5.2414,26.2848 9.2177,-1.7816 19.1585,-3.0467 28.6086,-3.5115 z"
                 style="fill:#f9f9f9;fill-opacity:1;fill-rule:nonzero;stroke:none"
                 id="path20720" />
              <path
                 d="m 6694.0331,8330.7431 c 1.0328,-8.8821 2.7627,-19.2101 5.2414,-26.2848 -6.7132,3.15 -12.6776,7.5394 -17.6093,12.8326 -5.3447,5.7578 -9.4759,12.5743 -12.0321,20.0622 6.6357,-2.5304 15.1564,-4.8284 24.4,-6.61 z"
                 style="fill:#f3f3f3;fill-opacity:1;fill-rule:nonzero;stroke:none"
                 id="path20722" />
            </g>
          </g>
        </g>
      </g>
      <g
         id="g20724">
        <g
           id="g20726"
           clip-path="url(#clipPath20730)">
          <path
             d="M 5999.56,8424.9 C 5984.58,8389.2 5037.44,8324 3850.59,8324 c -1186.84,0 -2148.99,45.2 -2148.99,100.9 0,23.1 463.13,110.7 572.21,62.8 73.97,64.8 977.41,78.4 1115.15,-4 115.57,31.3 533.97,34.2 693.61,12 85.09,24 698.63,74.6 1117.27,3 703.37,11.3 804.95,-61.3 799.72,-73.8"
             style="fill:url(#linearGradient20738);fill-opacity:1;fill-rule:nonzero;stroke:none"
             id="path20740" />
        </g>
      </g>
    </g>
  </g>
</svg>
