<?xml version="1.0" encoding="UTF-8" standalone="no"?>
<!-- Created with Inkscape (http://www.inkscape.org/) -->

<svg
   version="1.1"
   id="svg2"
   width="298.75903"
   height="298.78662"
   viewBox="0 0 298.75903 298.78662"
   xmlns="http://www.w3.org/2000/svg"
   xmlns:svg="http://www.w3.org/2000/svg">
  <defs
     id="defs6">
    <clipPath
       clipPathUnits="userSpaceOnUse"
       id="clipPath34444">
      <path
         d="m 30558,13272.9 c 202.8,-202.7 482.9,-328.1 792.3,-328.1 103.9,0 204.5,14.1 300,40.6 188.8,52.3 357.6,152.9 492.3,287.5 67.7,67.8 126.8,144.1 175.5,227.3 97,165.9 152.7,359 152.7,565 0,129.5 -22,253.7 -62.3,369.4 -56.2,160.8 -148,305 -265.9,422.9 -134.7,134.7 -303.5,235.3 -492.3,287.6 -95.5,26.5 -196.1,40.6 -300,40.6 -309.4,0 -589.5,-125.4 -792.3,-328.2 -118,-117.9 -209.8,-262.1 -265.9,-422.9 -40.4,-115.7 -62.3,-239.9 -62.3,-369.4 0,-206 55.6,-399.1 152.7,-565 48.7,-83.2 107.8,-159.5 175.5,-227.3 z"
         id="path34442" />
    </clipPath>
    <clipPath
       clipPathUnits="userSpaceOnUse"
       id="clipPath34450">
      <path
         d="m 30558,13272.9 c 202.8,-202.7 482.9,-328.1 792.3,-328.1 103.9,0 204.5,14.1 300,40.6 188.8,52.3 357.6,152.9 492.3,287.5 67.7,67.8 126.8,144.1 175.5,227.3 97,165.9 152.7,359 152.7,565 0,129.5 -22,253.7 -62.3,369.4 -56.2,160.8 -148,305 -265.9,422.9 -134.7,134.7 -303.5,235.3 -492.3,287.6 -95.5,26.5 -196.1,40.6 -300,40.6 -309.4,0 -589.5,-125.4 -792.3,-328.2 -118,-117.9 -209.8,-262.1 -265.9,-422.9 -40.4,-115.7 -62.3,-239.9 -62.3,-369.4 0,-206 55.6,-399.1 152.7,-565 48.7,-83.2 107.8,-159.5 175.5,-227.3"
         id="path34448" />
    </clipPath>
  </defs>
  <g
     id="g8"
     transform="matrix(1.3333333,0,0,-1.3333333,-4033.9661,2004.8027)">
    <g
       id="g5"
       transform="matrix(0.1,0,0,0.1,2.4946543,-14.967926)">
      <g
         id="g34438">
        <g
           id="g34440"
           clip-path="url(#clipPath34444)">
          <g
             id="g34446"
             clip-path="url(#clipPath34450)">
            <g
               id="g34452"
               transform="matrix(10,0,0,-10,-64410,91910)">
              <path
                 d="m 9496.7724,7863.7068 c 10.1498,10.119 22.2372,18.3311 35.6164,23.9904 -1.6301,-4.7058 -3.0141,-10.0883 -4.2752,-15.5937 -15.4707,-4.1522 -29.7111,-10.4881 -40.8143,-19.1923 2.9219,3.7831 6.0899,7.3816 9.4731,10.7956 z"
                 style="fill:#feac0a;fill-opacity:1;fill-rule:nonzero;stroke:none"
                 id="path34454" />
              <path
                 d="m 9487.2993,7852.9112 c 11.1032,8.7042 25.3436,15.0401 40.8143,19.1923 -1.2918,-5.4748 -2.4298,-11.1033 -3.6293,-16.3319 -17.1315,-2.8297 -33.1866,-7.5047 -45.2433,-14.7941 2.4298,4.1522 5.1364,8.1506 8.0583,11.9337 z"
                 style="fill:#feac0a;fill-opacity:1;fill-rule:nonzero;stroke:none"
                 id="path34456" />
              <path
                 d="m 9532.3888,7887.6972 c 13.41,5.69 28.1426,8.8272 43.6132,8.8272 0.092,-6.0591 0.1846,-12.149 0.2769,-18.3003 -16.0244,0 -32.7253,-1.9685 -48.1653,-6.1206 1.2611,5.5054 2.6451,10.8879 4.2752,15.5937 z"
                 style="fill:#feac0a;fill-opacity:1;fill-rule:nonzero;stroke:none"
                 id="path34458" />
              <path
                 d="m 9528.1136,7872.1035 c 15.44,4.1521 32.1409,6.1206 48.1653,6.1206 0.092,-6.1822 0.1537,-12.395 0.2153,-18.6387 -16.578,0.031 -34.8476,-0.9534 -52.0099,-3.8138 1.1995,5.2286 2.3375,10.8571 3.6293,16.3319 z"
                 style="fill:#fea412;fill-opacity:1;fill-rule:nonzero;stroke:none"
                 id="path34460" />
              <path
                 d="m 9576.002,7896.5244 c 10.3959,0 20.4534,-1.4148 30.0187,-4.0907 1.138,-6.0898 2.2145,-12.1797 3.168,-18.3003 -9.9652,2.3375 -22.1449,4.0599 -32.9098,4.0907 -0.092,6.1513 -0.1846,12.2412 -0.2769,18.3003 z"
                 style="fill:#feac0a;fill-opacity:1;fill-rule:nonzero;stroke:none"
                 id="path34462" />
              <path
                 d="m 9576.2789,7878.2241 c 10.7649,-0.031 22.9446,-1.7532 32.9098,-4.0907 0.9842,-6.1206 1.8762,-12.2412 2.6758,-18.3618 -10.4265,2.0299 -24.2056,3.7831 -35.3703,3.8138 -0.062,6.2437 -0.1231,12.4565 -0.2153,18.6387 z"
                 style="fill:#fe9e16;fill-opacity:1;fill-rule:nonzero;stroke:none"
                 id="path34464" />
              <path
                 d="m 9606.0207,7892.4337 c 9.4424,-2.6143 18.3926,-6.4282 26.6355,-11.2877 2.276,-4.7366 4.3982,-9.7807 6.3359,-14.9171 -9.6269,3.291 -19.9305,5.6593 -29.8034,7.9045 -0.9535,6.1206 -2.03,12.2105 -3.168,18.3003 z"
                 style="fill:#feac0a;fill-opacity:1;fill-rule:nonzero;stroke:none"
                 id="path34466" />
              <path
                 d="m 9609.1887,7874.1334 c 9.8729,-2.2452 20.1765,-4.6135 29.8034,-7.9045 1.9684,-5.1672 3.7523,-10.3958 5.3824,-15.563 -10.7956,2.03 -22.2372,3.2603 -32.51,5.1057 -0.7996,6.1206 -1.6916,12.2412 -2.6758,18.3618 z"
                 style="fill:#fe9d17;fill-opacity:1;fill-rule:nonzero;stroke:none"
                 id="path34468" />
              <path
                 d="m 9632.6562,7881.146 c 8.2736,-4.8289 15.8705,-10.7342 22.5755,-17.4392 3.414,-3.414 6.582,-7.0125 9.5039,-10.7956 -7.1356,5.813 -16.0859,10.0267 -25.7435,13.3177 -1.9377,5.1364 -4.0599,10.1805 -6.3359,14.9171 z"
                 style="fill:#feac0a;fill-opacity:1;fill-rule:nonzero;stroke:none"
                 id="path34470" />
              <path
                 d="m 9638.9921,7866.2289 c 9.6576,-3.291 18.6079,-7.5047 25.7435,-13.3177 2.9219,-3.7831 5.6285,-7.7815 8.0582,-11.9337 -7.5354,4.9211 -17.6544,7.6892 -28.4193,9.6884 -1.6301,5.1672 -3.414,10.3958 -5.3824,15.563 z"
                 style="fill:#fea214;fill-opacity:1;fill-rule:nonzero;stroke:none"
                 id="path34472" />
              <path
                 d="m 9479.241,7840.9775 c 12.0567,7.2894 28.1118,11.9644 45.2433,14.7941 -1.1995,-5.1672 -2.1837,-10.8264 -2.9526,-16.7625 -18.5157,-1.6609 -35.9548,-4.8596 -48.7804,-10.9802 1.8762,4.4597 4.0599,8.7964 6.4897,12.9486 z"
                 style="fill:#feac0a;fill-opacity:1;fill-rule:nonzero;stroke:none"
                 id="path34474" />
              <path
                 d="m 9472.7513,7828.0289 c 12.8256,6.1206 30.2647,9.3193 48.7804,10.9802 -0.7997,-5.9053 -1.3841,-12.1182 -1.8147,-18.3926 -19.0692,-0.9842 -37.308,-2.8604 -51.7638,-6.3974 1.3226,4.7365 2.9219,9.35 4.7981,13.8098 z"
                 style="fill:#feae0d;fill-opacity:1;fill-rule:nonzero;stroke:none"
                 id="path34476" />
              <path
                 d="m 9467.9532,7814.2191 c 14.4558,3.537 32.6946,5.4132 51.7638,6.3974 -0.8919,-12.5488 -1.138,-25.4359 -1.1072,-37.1235 -19.1923,0.3383 -37.831,0.7074 -54.6549,0.9842 0,10.3035 1.4148,20.2688 3.9983,29.7419 z"
                 style="fill:#feb114;fill-opacity:1;fill-rule:nonzero;stroke:none"
                 id="path34478" />
              <path
                 d="m 9524.4843,7855.7716 c 17.1623,2.8604 35.4319,3.8446 52.0099,3.8138 0,-6.2436 0,-12.518 0,-18.8539 -16.9471,0.061 -36.4777,-0.061 -54.9625,-1.7224 0.7689,5.9361 1.7531,11.5953 2.9526,16.7625 z"
                 style="fill:#fea01a;fill-opacity:1;fill-rule:nonzero;stroke:none"
                 id="path34480" />
              <path
                 d="m 9521.5317,7839.0091 c 18.4848,1.6609 38.0154,1.7839 54.9625,1.7224 0,-6.3052 0,-12.6719 0,-19.0693 -17.8083,0.031 -37.7079,-0.061 -56.7772,-1.0457 0.4306,6.2744 1.015,12.4873 1.8147,18.3926 z"
                 style="fill:#fea420;fill-opacity:1;fill-rule:nonzero;stroke:none"
                 id="path34482" />
              <path
                 d="m 9519.717,7820.6165 c 19.0693,0.9842 38.9689,1.0765 56.7772,1.0457 0,-12.8256 0.031,-25.7742 0.092,-38.8151 -19.0385,0.031 -38.7844,0.3076 -57.9766,0.6459 -0.031,11.6876 0.2153,24.5747 1.1072,37.1235 z"
                 style="fill:#feaf2c;fill-opacity:1;fill-rule:nonzero;stroke:none"
                 id="path34484" />
              <path
                 d="m 9576.4942,7859.5854 c 11.1647,-0.031 24.9438,-1.7839 35.3703,-3.8138 0.7997,-6.0899 1.5071,-12.2105 2.1223,-18.3311 -10.7957,1.7531 -26.0203,3.2602 -37.4926,3.291 0,6.3359 0,12.6103 0,18.8539 z"
                 style="fill:#fe9922;fill-opacity:1;fill-rule:nonzero;stroke:none"
                 id="path34486" />
              <path
                 d="m 9576.4942,7840.7315 c 11.4723,-0.031 26.6969,-1.5379 37.4926,-3.291 0.6151,-6.1206 1.138,-12.2412 1.5378,-18.3619 -11.6261,1.1073 -26.8507,2.5529 -39.0304,2.5836 0,6.3974 0,12.7641 0,19.0693 z"
                 style="fill:#fe9f2f;fill-opacity:1;fill-rule:nonzero;stroke:none"
                 id="path34488" />
              <path
                 d="m 9576.4942,7821.6622 c 12.1797,-0.031 27.4043,-1.4763 39.0304,-2.5836 0.8304,-12.2412 1.261,-24.5439 1.2303,-36.8159 -12.7949,0.1845 -26.9738,0.5536 -40.1685,0.5844 -0.061,13.0409 -0.092,25.9895 -0.092,38.8151 z"
                 style="fill:#feaf3e;fill-opacity:1;fill-rule:nonzero;stroke:none"
                 id="path34490" />
              <path
                 d="m 9463.9549,7784.4772 c 16.8239,-0.2768 35.4626,-0.6459 54.6549,-0.9842 0.031,-7.3509 0.5844,-15.5015 1.4148,-23.5598 -18.9155,1.1688 -37.4619,2.9834 -54.4396,5.5363 -1.0765,6.1821 -1.6301,12.518 -1.6301,19.0077 z"
                 style="fill:#febd2a;fill-opacity:1;fill-rule:nonzero;stroke:none"
                 id="path34492" />
              <path
                 d="m 9465.585,7765.4695 c 16.9777,-2.5529 35.5241,-4.3675 54.4396,-5.5363 0.7997,-8.0583 1.8762,-15.9935 2.8911,-22.9138 -17.8697,2.1837 -35.5241,5.6285 -52.7172,10.5188 -2.03,5.7823 -3.5678,11.7799 -4.6135,17.9313 z"
                 style="fill:#fec639;fill-opacity:1;fill-rule:nonzero;stroke:none"
                 id="path34494" />
              <path
                 d="m 9518.6098,7783.493 c 19.1922,-0.3383 38.9381,-0.6152 57.9766,-0.6459 0.031,-8.2121 0.092,-16.4242 0.1231,-24.5747 -18.5157,-0.031 -37.8002,0.4921 -56.6849,1.6608 -0.8304,8.0583 -1.3841,16.2089 -1.4148,23.5598 z"
                 style="fill:#fece48;fill-opacity:1;fill-rule:nonzero;stroke:none"
                 id="path34496" />
              <path
                 d="m 9520.0246,7759.9332 c 18.8847,-1.1687 38.1692,-1.6916 56.6849,-1.6608 0.061,-8.1506 0.092,-16.2704 0.092,-24.3287 -17.962,-0.092 -36.047,0.8612 -53.886,3.0757 -1.0149,6.9203 -2.0914,14.8555 -2.8911,22.9138 z"
                 style="fill:#fee059;fill-opacity:1;fill-rule:nonzero;stroke:none"
                 id="path34498" />
              <path
                 d="m 9576.5864,7782.8471 c 13.1947,-0.031 27.3736,-0.3999 40.1685,-0.5844 0,-7.7507 -0.1846,-15.5322 -0.5537,-23.2829 -12.641,-0.4306 -26.5739,-0.6767 -39.4917,-0.7074 -0.031,8.1505 -0.092,16.3626 -0.1231,24.5747 z"
                 style="fill:#fed95e;fill-opacity:1;fill-rule:nonzero;stroke:none"
                 id="path34500" />
              <path
                 d="m 9576.7095,7758.2724 c 12.9178,0.031 26.8507,0.2768 39.4917,0.7074 -0.2153,-3.8754 -0.4305,-7.7508 -0.7074,-11.6569 -12.518,-0.8612 -25.9895,-1.1687 -38.7228,-1.2303 0,4.0292 -0.031,8.1199 -0.061,12.1798 z"
                 style="fill:#fef16e;fill-opacity:1;fill-rule:nonzero;stroke:none"
                 id="path34502" />
              <path
                 d="m 9576.771,7746.0926 c 12.7333,0.062 26.2048,0.3691 38.7228,1.2303 -0.2768,-3.8753 -0.6151,-7.7507 -1.0149,-11.6568 -12.4566,-1.0458 -25.0361,-1.6301 -37.6772,-1.7224 0,4.0291 0,8.089 -0.031,12.1489 z"
                 style="fill:#fef873;fill-opacity:1;fill-rule:nonzero;stroke:none"
                 id="path34504" />
              <path
                 d="m 9611.8645,7855.7716 c 5.1364,-0.9227 10.5804,-1.6917 16.0551,-2.4913 1.0457,-5.7823 2.0607,-11.5954 2.9834,-17.4392 -5.9053,0.3691 -11.6261,0.8305 -16.9162,1.5994 -0.6152,6.1206 -1.3226,12.2412 -2.1223,18.3311 z"
                 style="fill:#fe9824;fill-opacity:1;fill-rule:nonzero;stroke:none"
                 id="path34506" />
              <path
                 d="m 9613.9868,7837.4405 c 5.2901,-0.7689 11.0109,-1.2303 16.9162,-1.5994 0.892,-5.8438 1.7224,-11.6876 2.4298,-17.5621 -6.1514,0.123 -12.1797,0.3383 -17.8082,0.7996 -0.3998,6.1207 -0.9227,12.2413 -1.5378,18.3619 z"
                 style="fill:#fe9e32;fill-opacity:1;fill-rule:nonzero;stroke:none"
                 id="path34508" />
              <path
                 d="m 9627.9196,7853.2803 c 5.5055,-0.7997 11.0725,-1.5994 16.4549,-2.6144 1.5994,-5.1056 3.0449,-10.4573 4.2752,-15.9628 -5.8438,0.4614 -11.8721,0.7689 -17.7467,1.138 -0.9227,5.8438 -1.9377,11.6569 -2.9834,17.4392 z"
                 style="fill:#fe9922;fill-opacity:1;fill-rule:nonzero;stroke:none"
                 id="path34510" />
              <path
                 d="m 9630.903,7835.8411 c 5.8746,-0.3691 11.9029,-0.6766 17.7467,-1.138 1.2611,-5.4747 2.3068,-11.1032 3.168,-16.824 -6.0899,0.1846 -12.3643,0.2461 -18.4849,0.3999 -0.7074,5.8745 -1.5378,11.7183 -2.4298,17.5621 z"
                 style="fill:#fe9f2f;fill-opacity:1;fill-rule:nonzero;stroke:none"
                 id="path34512" />
              <path
                 d="m 9615.5246,7819.0786 c 0.8304,-12.2412 1.261,-24.5439 1.2303,-36.8159 6.1206,0 12.4257,0.1538 18.7924,0.3998 0,11.9952 -0.8612,23.8366 -2.2145,35.6165 -6.1514,0.123 -12.1797,0.3383 -17.8082,0.7996 z"
                 style="fill:#feaf43;fill-opacity:1;fill-rule:nonzero;stroke:none"
                 id="path34514" />
              <path
                 d="m 9633.3328,7818.279 c 1.3533,-11.7799 2.2145,-23.6213 2.2145,-35.6165 6.3359,0.2461 12.7026,0.5844 18.8847,0.8612 0.031,11.3186 -0.8919,22.9754 -2.6143,34.3554 -6.0899,0.1846 -12.3643,0.2461 -18.4849,0.3999 z"
                 style="fill:#feae3e;fill-opacity:1;fill-rule:nonzero;stroke:none"
                 id="path34516" />
              <path
                 d="m 9644.3745,7850.6659 c 10.7649,-1.9992 20.8839,-4.7673 28.4193,-9.6884 2.4298,-4.1522 4.5828,-8.4889 6.4897,-12.9486 -7.8737,4.2137 -18.9154,5.7823 -30.6338,6.6742 -1.2303,5.5055 -2.6758,10.8572 -4.2752,15.9628 z"
                 style="fill:#fe9d1d;fill-opacity:1;fill-rule:nonzero;stroke:none"
                 id="path34518" />
              <path
                 d="m 9648.6497,7834.7031 c 11.7184,-0.8919 22.7601,-2.4605 30.6338,-6.6742 1.8762,-4.4598 3.4756,-9.0733 4.7981,-13.8098 -8.5504,2.5835 -20.0535,3.3217 -32.2639,3.66 -0.8612,5.7208 -1.9069,11.3493 -3.168,16.824 z"
                 style="fill:#fea226;fill-opacity:1;fill-rule:nonzero;stroke:none"
                 id="path34520" />
              <path
                 d="m 9651.8177,7817.8791 c 1.7224,-11.38 2.6451,-23.0368 2.6143,-34.3554 6.2129,0.3076 12.2412,0.6152 17.9005,0.7997 0,10.6111 -0.9535,21.8066 -3.0142,32.5715 -5.4747,0.5536 -11.38,0.8304 -17.5006,0.9842 z"
                 style="fill:#feae32;fill-opacity:1;fill-rule:nonzero;stroke:none"
                 id="path34522" />
              <path
                 d="m 9669.3183,7816.8949 c 2.0607,-10.7649 3.0142,-21.9604 3.0142,-32.5715 5.6593,0.1846 10.9802,0.2461 15.7167,0.1538 0,10.3035 -1.384,20.2688 -3.9676,29.7419 -4.2752,1.2918 -9.2886,2.1222 -14.7633,2.6758 z"
                 style="fill:#fead20;fill-opacity:1;fill-rule:nonzero;stroke:none"
                 id="path34524" />
              <path
                 d="m 9616.7549,7782.2627 c 0,-7.7507 -0.1846,-15.5322 -0.5537,-23.2829 5.9669,0.246 12.1798,0.6459 18.4542,1.1072 0.5536,7.5047 0.8611,15.0401 0.8919,22.5755 -6.3667,-0.246 -12.6718,-0.3998 -18.7924,-0.3998 z"
                 style="fill:#fedc64;fill-opacity:1;fill-rule:nonzero;stroke:none"
                 id="path34526" />
              <path
                 d="m 9635.5473,7782.6625 c -0.031,-7.5354 -0.3383,-15.0708 -0.8919,-22.5755 6.2744,0.4921 12.5795,1.0457 18.7001,1.6609 0.7074,7.2894 1.0765,14.671 1.0765,21.7758 -6.1821,-0.2768 -12.5488,-0.6151 -18.8847,-0.8612 z"
                 style="fill:#fed95e;fill-opacity:1;fill-rule:nonzero;stroke:none"
                 id="path34528" />
              <path
                 d="m 9616.2012,7758.9798 c 5.9669,0.246 12.1798,0.6459 18.4542,1.1072 -0.2769,-3.7523 -0.6152,-7.5047 -0.9843,-11.2262 -6.1821,-0.6152 -12.3027,-1.1073 -18.1773,-1.5379 0.2769,3.9061 0.4921,7.7815 0.7074,11.6569 z"
                 style="fill:#fef473;fill-opacity:1;fill-rule:nonzero;stroke:none"
                 id="path34530" />
              <path
                 d="m 9615.4938,7747.3229 c 5.8746,0.4306 11.9952,0.9227 18.1773,1.5379 -0.3998,-3.7524 -0.8304,-7.4739 -1.3225,-11.1955 -5.9976,-0.8305 -11.9952,-1.4764 -17.8697,-1.9992 0.3998,3.9061 0.7381,7.7815 1.0149,11.6568 z"
                 style="fill:#fefc77;fill-opacity:1;fill-rule:nonzero;stroke:none"
                 id="path34532" />
              <path
                 d="m 9634.6554,7760.087 c 6.2744,0.4921 12.5795,1.0457 18.7001,1.6609 -0.3691,-3.6601 -0.7997,-7.2894 -1.3225,-10.8572 -6.0284,-0.7689 -12.2105,-1.4456 -18.3619,-2.0299 0.3691,3.7215 0.7074,7.4739 0.9843,11.2262 z"
                 style="fill:#fef06c;fill-opacity:1;fill-rule:nonzero;stroke:none"
                 id="path34534" />
              <path
                 d="m 9633.6711,7748.8608 c 6.1514,0.5843 12.3335,1.261 18.3619,2.0299 -0.5229,-3.5678 -1.138,-7.0741 -1.8454,-10.4573 -5.8131,-1.0457 -11.8107,-1.9684 -17.839,-2.7681 0.4921,3.7216 0.9227,7.4431 1.3225,11.1955 z"
                 style="fill:#fef770;fill-opacity:1;fill-rule:nonzero;stroke:none"
                 id="path34536" />
              <path
                 d="m 9654.432,7783.5237 c 0,-7.1048 -0.3691,-14.4864 -1.0765,-21.7758 6.1206,0.5844 12.0875,1.2303 17.6852,1.8762 0.8612,6.951 1.2918,14.0251 1.2918,20.6993 -5.6593,-0.1845 -11.6876,-0.4921 -17.9005,-0.7997 z"
                 style="fill:#fed04c;fill-opacity:1;fill-rule:nonzero;stroke:none"
                 id="path34538" />
              <path
                 d="m 9672.3325,7784.3234 c 0,-6.6742 -0.4306,-13.7483 -1.2918,-20.6993 5.5978,0.6458 10.7957,1.261 15.4092,1.8454 1.0765,6.1821 1.5993,12.518 1.5993,19.0077 -4.7365,0.092 -10.0574,0.031 -15.7167,-0.1538 z"
                 style="fill:#fec12f;fill-opacity:1;fill-rule:nonzero;stroke:none"
                 id="path34540" />
              <path
                 d="m 9653.3555,7761.7479 c -0.7074,-7.3201 -1.7839,-14.548 -3.1679,-21.3145 5.8438,1.0457 11.503,2.1837 16.824,3.3832 1.8146,6.0899 3.1679,12.8872 4.0291,19.8075 -5.5977,-0.6459 -11.5646,-1.2918 -17.6852,-1.8762 z"
                 style="fill:#fee258;fill-opacity:1;fill-rule:nonzero;stroke:none"
                 id="path34542" />
              <path
                 d="m 9671.0407,7763.6241 c -0.8612,-6.9203 -2.2145,-13.7176 -4.0291,-19.8075 5.3209,1.1688 10.3343,2.4298 14.8248,3.7216 2.0299,5.7823 3.5678,11.7799 4.6135,17.9313 -4.6135,-0.5844 -9.8114,-1.1996 -15.4092,-1.8454 z"
                 style="fill:#fecc37;fill-opacity:1;fill-rule:nonzero;stroke:none"
                 id="path34544" />
              <path
                 d="m 9470.1985,7747.5382 c 17.3776,-4.9211 35.2166,-8.3966 53.2709,-10.6111 0.5843,-4.8288 1.0764,-9.8422 1.5686,-14.8248 -17.0701,3.2295 -33.7403,7.9353 -49.9799,13.6868 -1.8454,3.8139 -3.4448,7.72 -4.8596,11.7491 z"
                 style="fill:#ffcf45;fill-opacity:1;fill-rule:nonzero;stroke:none"
                 id="path34546" />
              <path
                 d="m 9475.0581,7735.7891 c 16.2396,-5.7515 32.9098,-10.4573 49.9799,-13.6868 0.4921,-4.9826 0.9842,-9.9652 1.5686,-14.8248 -16.2089,4.0292 -31.6796,9.9652 -45.4279,17.5007 -2.2453,3.537 -4.2752,7.2278 -6.1206,11.0109 z"
                 style="fill:#ffd44b;fill-opacity:1;fill-rule:nonzero;stroke:none"
                 id="path34548" />
              <path
                 d="m 9481.1787,7724.7782 c 13.7483,-7.5355 29.219,-13.4715 45.4279,-17.5007 1.2302,-9.6576 2.8603,-18.7309 5.7822,-26.051 -13.3792,5.6592 -25.4666,13.8713 -35.6164,23.9903 -5.8745,5.9053 -11.134,12.4565 -15.5937,19.5614 z"
                 style="fill:#ffda50;fill-opacity:1;fill-rule:nonzero;stroke:none"
                 id="path34550" />
              <path
                 d="m 9523.4694,7736.9271 c 18.0542,-2.1837 36.293,-3.1064 54.4703,-2.9526 -0.246,-5.6901 -0.4921,-11.2878 -0.7074,-16.7625 -17.7467,-0.1231 -35.1551,1.6301 -52.1943,4.8903 -0.4922,4.9826 -0.9843,9.996 -1.5686,14.8248 z"
                 style="fill:#ffec64;fill-opacity:1;fill-rule:nonzero;stroke:none"
                 id="path34552" />
              <path
                 d="m 9525.038,7722.1023 c 17.0392,-3.2602 34.4476,-5.0134 52.1943,-4.8903 -0.2153,-5.4747 -0.3998,-10.8264 -0.5844,-15.9936 -16.824,-0.061 -33.8017,2.0607 -50.0413,6.0591 -0.5844,4.8596 -1.0765,9.8422 -1.5686,14.8248 z"
                 style="fill:#ffed66;fill-opacity:1;fill-rule:nonzero;stroke:none"
                 id="path34554" />
              <path
                 d="m 9526.6066,7707.2775 c 16.2396,-3.9984 33.2173,-6.1206 50.0413,-6.0591 -0.1537,-5.1671 -0.3075,-10.1805 -0.4306,-15.0093 -15.8705,0 -32.2024,2.399 -47.3347,7.1663 -0.9535,4.3982 -1.6609,9.0733 -2.276,13.9021 z"
                 style="fill:#ffeb62;fill-opacity:1;fill-rule:nonzero;stroke:none"
                 id="path34556" />
              <path
                 d="m 9528.8826,7693.3754 c 15.1323,-4.7673 31.4642,-7.1663 47.3347,-7.1663 -0.092,-4.7981 -0.1845,-9.4116 -0.2153,-13.7791 -15.4706,0 -30.2032,3.1064 -43.6132,8.7965 -1.4455,3.66 -2.5835,7.7507 -3.5062,12.1489 z"
                 style="fill:#ffe75c;fill-opacity:1;fill-rule:nonzero;stroke:none"
                 id="path34558" />
              <path
                 d="m 9577.9397,7733.9745 c 12.2413,0.092 24.4517,0.6766 36.5392,1.6916 -0.5229,-5.5055 -1.138,-10.9187 -1.7839,-16.2396 -11.6876,-1.2611 -23.4983,-2.1223 -35.4627,-2.2145 0.2153,5.4747 0.4614,11.0724 0.7074,16.7625 z"
                 style="fill:#fffb75;fill-opacity:1;fill-rule:nonzero;stroke:none"
                 id="path34560" />
              <path
                 d="m 9577.2323,7717.212 c 11.9644,0.092 23.7751,0.9534 35.4627,2.2145 -0.6459,-5.2902 -1.3533,-10.4574 -2.0915,-15.44 -10.8264,-1.8454 -22.637,-2.7066 -33.9556,-2.7681 0.1846,5.1672 0.3691,10.5189 0.5844,15.9936 z"
                 style="fill:#fffa74;fill-opacity:1;fill-rule:nonzero;stroke:none"
                 id="path34562" />
              <path
                 d="m 9576.6479,7701.2184 c 11.3186,0.062 23.1292,0.9227 33.9556,2.7681 -0.7382,-4.9826 -1.4763,-9.8114 -2.2452,-14.3942 -9.9653,-2.399 -21.4376,-3.3525 -32.141,-3.3832 0.1231,4.8288 0.2769,9.8422 0.4306,15.0093 z"
                 style="fill:#fff46d;fill-opacity:1;fill-rule:nonzero;stroke:none"
                 id="path34564" />
              <path
                 d="m 9576.2173,7686.2091 c 10.7034,0.031 22.1757,0.9842 32.141,3.3832 -0.7997,-4.6135 -1.5686,-8.981 -2.3376,-13.1024 -9.5653,-2.6758 -19.6228,-4.0599 -30.0187,-4.0599 0.031,4.3675 0.1231,8.981 0.2153,13.7791 z"
                 style="fill:#ffea61;fill-opacity:1;fill-rule:nonzero;stroke:none"
                 id="path34566" />
              <path
                 d="m 9614.4789,7735.6661 c 5.8745,0.5228 11.8721,1.1687 17.8697,1.9992 -0.6767,-5.2902 -1.5071,-10.4881 -2.4606,-15.5322 -5.7515,-1.138 -11.5338,-2.0607 -17.193,-2.7066 0.6459,5.3209 1.261,10.7341 1.7839,16.2396 z"
                 style="fill:#ffff78;fill-opacity:1;fill-rule:nonzero;stroke:none"
                 id="path34568" />
              <path
                 d="m 9612.695,7719.4265 c 5.6592,0.6459 11.4415,1.5686 17.193,2.7066 -0.9534,-5.0442 -2.0299,-9.9345 -3.1679,-14.6711 -5.4132,-1.4148 -10.8264,-2.5835 -16.1166,-3.4755 0.7382,4.9826 1.4456,10.1498 2.0915,15.44 z"
                 style="fill:#fffc75;fill-opacity:1;fill-rule:nonzero;stroke:none"
                 id="path34570" />
              <path
                 d="m 9632.3486,7737.6653 c 6.0283,0.7997 12.0259,1.7224 17.839,2.7681 -0.9535,-4.7673 -2.0915,-9.5654 -3.3218,-14.2712 -5.5362,-1.5071 -11.257,-2.8604 -16.9778,-4.0291 0.9535,5.0441 1.7839,10.242 2.4606,15.5322 z"
                 style="fill:#fef972;fill-opacity:1;fill-rule:nonzero;stroke:none"
                 id="path34572" />
              <path
                 d="m 9629.888,7722.1331 c 5.7208,1.1687 11.4416,2.522 16.9778,4.0291 -1.261,-4.7365 -2.6143,-9.4116 -4.0906,-13.9021 -5.2287,-1.8146 -10.6419,-3.414 -16.0551,-4.7981 1.138,4.7366 2.2145,9.6269 3.1679,14.6711 z"
                 style="fill:#fef56d;fill-opacity:1;fill-rule:nonzero;stroke:none"
                 id="path34574" />
              <path
                 d="m 9610.6035,7703.9865 c 5.2902,0.892 10.7034,2.0607 16.1166,3.4755 -1.1073,-4.7365 -2.3068,-9.3193 -3.4755,-13.6867 -4.9826,-1.6302 -9.996,-3.0142 -14.8863,-4.183 0.7689,4.5828 1.507,9.4116 2.2452,14.3942 z"
                 style="fill:#fff36b;fill-opacity:1;fill-rule:nonzero;stroke:none"
                 id="path34576" />
              <path
                 d="m 9608.3583,7689.5923 c 4.8903,1.1688 9.9037,2.5528 14.8863,4.183 -1.1688,-4.3675 -2.3376,-8.5505 -3.4756,-12.4873 -4.4289,-1.907 -9.0425,-3.5063 -13.7483,-4.7981 0.769,4.1214 1.5379,8.4889 2.3376,13.1024 z"
                 style="fill:#ffe45b;fill-opacity:1;fill-rule:nonzero;stroke:none"
                 id="path34578" />
              <path
                 d="m 9626.7201,7707.462 c -2.2453,-9.5038 -4.7058,-18.3003 -6.9511,-26.174 4.4598,1.8761 8.7657,4.0599 12.8872,6.4897 3.7215,7.074 7.1355,15.4707 10.119,24.4824 -5.2287,-1.8146 -10.6419,-3.414 -16.0551,-4.7981 z"
                 style="fill:#feeb62;fill-opacity:1;fill-rule:nonzero;stroke:none"
                 id="path34580" />
              <path
                 d="m 9650.1876,7740.4334 c 5.8438,1.0457 11.503,2.1837 16.824,3.3832 -1.2611,-4.2752 -2.6451,-8.6119 -4.183,-12.9178 -5.0749,-1.6609 -10.4265,-3.2603 -15.9628,-4.7366 1.2303,4.7058 2.3683,9.5039 3.3218,14.2712 z"
                 style="fill:#feea5d;fill-opacity:1;fill-rule:nonzero;stroke:none"
                 id="path34582" />
              <path
                 d="m 9646.8658,7726.1622 c 5.5363,1.4763 10.8879,3.0757 15.9628,4.7366 -1.5378,-4.3367 -3.1987,-8.6427 -5.0441,-12.7949 -4.7365,-2.0914 -9.7807,-4.0599 -15.0093,-5.8438 1.4763,4.4905 2.8296,9.1656 4.0906,13.9021 z"
                 style="fill:#fee658;fill-opacity:1;fill-rule:nonzero;stroke:none"
                 id="path34584" />
              <path
                 d="m 9667.0116,7743.8166 c 5.3209,1.1688 10.3343,2.4298 14.8248,3.7216 -1.4149,-4.0291 -3.045,-7.9352 -4.8596,-11.7491 -4.3367,-1.5994 -9.0733,-3.2602 -14.1482,-4.8903 1.5379,4.3059 2.9219,8.6426 4.183,12.9178 z"
                 style="fill:#fed03b;fill-opacity:1;fill-rule:nonzero;stroke:none"
                 id="path34586" />
              <path
                 d="m 9662.8286,7730.8988 c 5.0749,1.6301 9.8115,3.2909 14.1482,4.8903 -1.8454,-3.7831 -3.8754,-7.4739 -6.1206,-11.0109 -3.9369,-2.3376 -8.3351,-4.5521 -13.0717,-6.6743 1.8454,4.1522 3.5063,8.4582 5.0441,12.7949 z"
                 style="fill:#fecd37;fill-opacity:1;fill-rule:nonzero;stroke:none"
                 id="path34588" />
              <path
                 d="m 9642.7752,7712.2601 c -2.9835,-9.0117 -6.3975,-17.4084 -10.119,-24.4824 4.1521,2.4298 8.089,5.1056 11.8721,8.0275 5.2287,6.2436 9.5654,13.9944 13.2562,22.2987 -4.7365,-2.0914 -9.7807,-4.0599 -15.0093,-5.8438 z"
                 style="fill:#fedb4d;fill-opacity:1;fill-rule:nonzero;stroke:none"
                 id="path34590" />
              <path
                 d="m 9657.7845,7718.1039 c -3.6908,-8.3043 -8.0275,-16.0551 -13.2562,-22.2987 3.7831,2.9219 7.3509,6.0591 10.7034,9.4116 5.9053,5.9053 11.1647,12.4565 15.6245,19.5614 -3.9369,-2.3376 -8.3351,-4.5521 -13.0717,-6.6743 z"
                 style="fill:#fec52f;fill-opacity:1;fill-rule:nonzero;stroke:none"
                 id="path34592" />
            </g>
          </g>
        </g>
      </g>
      <path
         d="m 32242.3,14224.5 c 0,-88 -71.3,-159.3 -159.3,-159.3 -88,0 -159.3,71.3 -159.3,159.3 0,88 71.3,159.3 159.3,159.3 88,0 159.3,-71.3 159.3,-159.3"
         style="fill:#fe9923;fill-opacity:1;fill-rule:nonzero;stroke:none"
         id="path34594" />
      <path
         d="m 30827.2,13619.4 c 0,-88 -71.4,-159.3 -159.3,-159.3 -88,0 -159.3,71.3 -159.3,159.3 0,87.9 71.3,159.2 159.3,159.2 87.9,0 159.3,-71.3 159.3,-159.2"
         style="fill:#fe9923;fill-opacity:1;fill-rule:nonzero;stroke:none"
         id="path34596" />
      <path
         d="m 32313.3,13943.3 c 0,-39.2 -31.8,-71 -71,-71 -39.2,0 -71,31.8 -71,71 0,39.2 31.8,71 71,71 39.2,0 71,-31.8 71,-71"
         style="fill:#fe9923;fill-opacity:1;fill-rule:nonzero;stroke:none"
         id="path34598" />
      <path
         d="m 30943.1,13389.1 c 0,-39.2 -31.8,-71 -71,-71 -39.2,0 -71,31.8 -71,71 0,39.2 31.8,71 71,71 39.2,0 71,-31.8 71,-71"
         style="fill:#fe9923;fill-opacity:1;fill-rule:nonzero;stroke:none"
         id="path34600" />
      <path
         d="m 32242.3,14505.7 c 0,-39.2 -31.8,-71 -71,-71 -39.2,0 -71,31.8 -71,71 0,39.2 31.8,71 71,71 39.2,0 71,-31.8 71,-71"
         style="fill:#fe9923;fill-opacity:1;fill-rule:nonzero;stroke:none"
         id="path34602" />
    </g>
  </g>
</svg>
